<?xml version="1.0" encoding="UTF-8"?>
<svg xmlns="http://www.w3.org/2000/svg" xmlns:xlink="http://www.w3.org/1999/xlink" xmlns:svgjs="http://svgjs.com/svgjs" version="1.1" width="512" height="512" x="0" y="0" viewBox="0 0 96 96" style="enable-background:new 0 0 512 512" xml:space="preserve" class="">
  <g>
    <g id="Pediatric">
      <path d="m74.05 35.22h-52.05a5 5 0 0 1 0-10h52.1a5 5 0 0 1 0 10z" fill="#fb9c88" data-original="#fb9c88"/>
      <path d="m61.51 49.16c-7.86 3.57-19.15 3.57-27 0-21.86-9.89-7.57-40.56 13.49-40.56s35.33 30.67 13.51 40.56z" fill="#fbd8c4" data-original="#fbd8c4"/>
      <path d="m48 8.6c-14.63 0-26.31 15.06-24.19 27.56 1.75 10.84 13.01 15.67 24.19 15.67s22.57-4.83 24.22-15.83c1.97-12.43-9.57-27.4-24.22-27.4zm19.29 26.59c-1.29 8.41-10.7 11.66-19.29 11.66-8.41 0-17.93-3.18-19.26-11.47-1.61-9.49 7.52-21.8 19.26-21.8s20.77 12.42 19.29 21.61z" fill="#fbc9b0" data-original="#fbc9b0"/>
      <path d="m56.26 15.69a2.5 2.5 0 0 0 2.86-.36 2.47 2.47 0 0 0 -.47-4 22.19 22.19 0 0 0 -23.79 1.53 2.49 2.49 0 0 0 .25 4.26 2.46 2.46 0 0 0 2.54-.12 17.42 17.42 0 0 1 18.61-1.31z" fill="#fbfbff" data-original="#fbfbff"/>
      <path d="m68.25 35.07a64.71 64.71 0 0 0 -20.25 5.36 62 62 0 0 0 -17.39-5 4.48 4.48 0 0 0 -4.53 6.79c4.43 7 13.6 9.64 21.92 9.64 9.44 0 19.77-3.46 23.26-12.28a3.28 3.28 0 0 0 -3.01-4.51z" fill="#fb9c88" data-original="#fb9c88"/>
      <path d="m48 96a24.41 24.41 0 0 1 -21.48-12.79c-5.14-9.47.91-18.15.44-17.35a52.52 52.52 0 0 1 36.3-25l4.28-.74a4.18 4.18 0 0 1 4.88 4.12v27.34a24.42 24.42 0 0 1 -24.42 24.42z" fill="#4e59c8" data-original="#4e59c8"/>
      <path d="m50.44 90.87a19.46 19.46 0 0 1 -19.54-10 12.66 12.66 0 0 1 .35-12.44 47.42 47.42 0 0 1 32.86-22.67 2.85 2.85 0 0 1 3.33 2.81v22.56a19.75 19.75 0 0 1 -17 19.74z" fill="#8090fa" data-original="#8090fa"/>
      <path d="m48 96a24.41 24.41 0 0 0 21.48-12.79c5.14-9.47-.91-18.15-.44-17.35a52.52 52.52 0 0 0 -36.3-25l-3.85-.66a4.54 4.54 0 0 0 -5.31 4.47v26.91a24.42 24.42 0 0 0 24.42 24.42z" fill="#5db8ff" data-original="#5db8ff" class=""/>
      <path d="m45.63 87.86a16.73 16.73 0 0 1 -14.08-16.7v-17.71a3.76 3.76 0 0 1 4.85-3.59 44.52 44.52 0 0 1 25.78 20 9.7 9.7 0 0 1 .3 9.5 16.48 16.48 0 0 1 -16.85 8.5z" fill="#a4e6ff" data-original="#a4e6ff" class=""/>
      <path d="m49.6 56.25a44.69 44.69 0 0 0 -13.29-6.42 3.74 3.74 0 0 0 -4.76 3.62v3a8.13 8.13 0 0 0 8.14 8.14h7.17a4.63 4.63 0 0 0 2.74-8.34z" fill="#ffffff" data-original="#ffffff" class=""/>
      <path d="m69 65.86a52.41 52.41 0 0 0 -15.91-16.86 4 4 0 0 0 -4.43 6.62 44.56 44.56 0 0 1 13.51 14.3 9.63 9.63 0 0 1 .3 9.49 16.44 16.44 0 0 1 -16.84 8.46 16.74 16.74 0 0 1 -14.09-16.7v-5.73a4 4 0 1 0 -8 0v5.56c0 13.41 10.55 24.76 24 25 16.29.3 29.83-16.08 21.46-30.14z" fill="#5d90eb" data-original="#5d90eb"/>
      <path d="m65.1 82.61a3.9 3.9 0 0 0 -5.29.42 16.32 16.32 0 0 1 -22.15 1.26c-3.73-3.11-9.65 2.2-5.15 6a24.16 24.16 0 0 0 33.11-1.82 3.91 3.91 0 0 0 -.52-5.86z" fill="#5863d2" data-original="#5863d2"/>
      <g fill="#302d3d">
        <path d="m53.09 26.86a1 1 0 0 1 1.91-.67 2.66 2.66 0 0 0 5 0 1 1 0 1 1 1.88.63 4.64 4.64 0 0 1 -8.79.04z" fill="#302d3d" data-original="#302d3d"/>
        <path d="m34.47 26.86a1 1 0 1 1 1.88-.66 2.65 2.65 0 0 0 5-.05 1 1 0 0 1 1.89.63 4.65 4.65 0 0 1 -8.77.08z" fill="#302d3d" data-original="#302d3d"/>
        <path d="m48.44 37.09a1 1 0 0 1 -1-1v-1.76a1 1 0 0 1 2 0v1.77a1 1 0 0 1 -1 .99z" fill="#302d3d" data-original="#302d3d"/>
      </g>
      <circle cx="29.86" cy="83.09" fill="#4be59e" r="12.91" data-original="#49d293" class=""/>
      <path d="m35.72 81.24h-4v-4.01h-3.71v4.01h-4.01v3.71h4.01v4h3.71v-4h4z" fill="#ffffff" data-original="#ffffff" class=""/>
      <path d="m48.36 11.93a6 6 0 1 1 0-11.93 1 1 0 1 1 0 2 4 4 0 0 0 0 8 1 1 0 1 1 0 2z" fill="#fb7956" data-original="#fb7956" class=""/>
    </g>
  </g>
</svg>
