<?xml version="1.0" encoding="UTF-8"?>
<svg xmlns="http://www.w3.org/2000/svg" xmlns:xlink="http://www.w3.org/1999/xlink" xmlns:svgjs="http://svgjs.com/svgjs" version="1.1" width="512" height="512" x="0" y="0" viewBox="0 0 464.003 464.003" style="enable-background:new 0 0 512 512" xml:space="preserve" class="">
  <g>
    <path d="m331.74 120.4c8.04-3.28 16.32-6.09 24.82-8.4 17.12-4.65 24.5-24.82 14.54-39.5-5.7-8.41-15.8-12.7-25.82-10.97-18.364 3.152-26.82 6.764-26.82 6.45-24.675-38.66-68.776-49.991-106.73-33.34l-.12-.54c.09-18.75-14.87-34.01-33.62-34.1-18.74-.09-34.07 15.03-34.16 33.78v89.27c-24.58 6.28-46.77 23.43-57.59 51.22-21.46 55.17-21.31 115.91.63 169.86 3.46 8.52 12.03 11.82 19.51 10.1 0 .159 6.118 12.305 14.77 24.47 41.51 58.38 124.67 91.91 196.51 84.21 38.86-4.17 72.41-39.22 64.95-78.14-11.49-59.88 3.74-114.97 9.59-160.28 9.56-74.1-27.68-98.33-60.46-104.09z" fill="#ff6d7a" data-original="#ff6d7a"/>
    <path d="m317.66 462.91c-71.84 7.7-155-25.83-196.51-84.21-6.65-9.35-11.44-17.88-14.77-24.45 0-.207 8.837-1.232 12.05-11.17 3.076-9.515 14.778-11.211 20.676-4.198 44.943 53.436 122.56 81.101 188.554 74.028 12.372-1.326 24.207-5.784 34.35-12.5 9.362-6.199 21.373 2.884 18.038 13.605-8.651 27.807-34.806 45.936-62.388 48.895z" fill="#ff8c95" data-original="#ff8c95"/>
    <path d="m318.46 67.98c0 .176-8.55 2.323-22.205 8.263-2.745 1.194-5.899.717-8.241-1.147-19.353-15.4-43.658-20.727-66.954-16.395-4.898.911-9.355-2.937-9.33-7.919v-16.142c37.778-16.573 81.929-5.516 106.73 33.34z" fill="#ff8c95" data-original="#ff8c95"/>
    <path d="m356.97 259.92c-2.743 3.473-7.781 4.05-11.24 1.32-6.651-5.263-15.496-7.941-24.56-6.62-3.756 33.954-15.83 64.691 6.98 83.4 3.42 2.81 3.92 7.85 1.12 11.26-2.852 3.462-7.908 3.883-11.26 1.12-15.32-12.57-18.99-28.62-19.37-42-13.339.909-25.966-.173-27.04 20.39-.247 4.581-4.26 7.866-8.41 7.57-4.41-.23-7.8-4-7.57-8.41.32-6 1.5-11.3 3.5-15.87-9.403-9.117-12.999-20.697-11.38-32.61.6-4.37 4.63-7.43 9.01-6.84 4.38.6 7.45 4.64 6.85 9.02-.927 6.692.885 12.722 5.52 17.79 9.062-6.596 19.711-6.383 30.32-7.13 3.74-33.559 16.236-66.736-7.03-92.54 3.692-3.757 6.93-8.22 9.35-13.02.62.37 1.19.84 1.71 1.39 15.28 16.42 18.6 35.13 18.67 50.28 12.112-.961 24.232 2.94 33.51 10.26 3.47 2.74 4.06 7.77 1.32 11.24z" fill="#e84857" data-original="#e84857"/>
    <path d="m214.85 333.86c-9.896 4.771-21.472 6.065-32.74 2.85-1.02 6.16-2.56 12.27-4.63 18.26-1.14 3.31-4.24 5.39-7.56 5.39-5.46 0-9.36-5.384-7.56-10.61 7.084-20.522 7.129-42.629-.92-63.12 4.777-2.261 9.975-4.123 14.95-5.71 4.775 12.19 7.346 25.393 7.16 39.4 7.79 3.12 16.6 2.86 24.34-.88 3.98-1.91 8.77-.25 10.69 3.73s.25 8.77-3.73 10.69z" fill="#e84857" data-original="#e84857"/>
    <path d="m275.59 430.903c-16.565 0-42.56-3.248-66.811-19.909-3.642-2.502-4.565-7.482-2.063-11.124s7.481-4.565 11.124-2.063c28.943 19.885 60.916 17.551 70.024 16.361 4.383-.572 8.396 2.516 8.969 6.897s-2.516 8.396-6.896 8.968c-2.94.384-7.939.87-14.347.87z" fill="#ffffff" data-original="#ffffff"/>
    <path d="m371.1 72.5c9.96 14.68 2.58 34.85-14.54 39.5-8.5 2.31-16.78 5.12-24.82 8.4-18.64-3.27-35.83-.58-42.17 2.31-2.75-2.6-16.37-15.092-37.54-20.672 28.005-21.164 60.666-34.916 93.25-40.508 10.02-1.73 20.12 2.56 25.82 10.97z" fill="#e84857" data-original="#e84857"/>
    <path d="m362.551 81.258c-17.812 3.088-48.702 13.146-77.004 31.662-2.623 1.716-5.998 1.735-8.645.057-6.312-4.003-14.723-8.267-24.873-10.938 28.048-21.196 60.74-34.929 93.25-40.508 7.851-1.356 15.46.976 21.095 5.725 5.205 4.386 2.884 12.839-3.823 14.002z" fill="#ea5a68" data-original="#ea5a68" class=""/>
    <path d="m289.57 122.71c-20.675-18.982-49.451-28.067-77.96-20.94v-67.67c.09-18.75-14.87-34.01-33.62-34.1-18.74-.09-34.07 15.03-34.16 33.78v89.27c10.48-2.67 21.32-3.37 32-2.08 49.504 5.965 78.326 51.698 71.83 94.29 18.156 2.233 37.154-4.597 49.95-21.67 15.68-21.88 12.062-52.424-8.04-70.88z" fill="#7badf1" data-original="#80aaff" class=""/>
    <path d="m297.406 131.418c5.082 7.083-3.377 16.027-10.765 11.4-22.466-14.069-47.639-16.977-70.514-9.507-2.246.734-4.693.466-6.708-.769-10.288-6.302-21.794-10.15-33.589-11.573 22.118-19.681 50.085-25.858 76.2-18.932 19.749 5.207 37.235 18.034 45.376 29.381z" fill="#9cbcff" data-original="#9cbcff" class=""/>
    <path d="m178.377.004c13.201.209 18.923 17.063 8.534 25.211-7.878 6.18-13.003 15.773-13.055 26.565v54.583c-.012 7.479-5.874 13.702-13.341 14.116-5.638.313-11.185 1.171-16.685 2.571v-89.27c.091-18.933 15.684-34.074 34.547-33.776z" fill="#9cbcff" data-original="#9cbcff" class=""/>
    <path d="m242.22 171.53c11.238 27.29 6.657 56.032-6.8 74.25-38.418 51.983-89.588 12.445-116.99 97.3-4.82 14.941-25.653 15.595-31.56 1.05-21.94-53.95-22.09-114.69-.63-169.86 27.379-70.32 127.219-72.512 155.98-2.74z" fill="#ff8c95" data-original="#ff8c95"/>
    <path d="m213.98 135.529c6.501 4.63 4.038 14.745-3.824 16.124-27.843 4.885-52.491 23.273-63.917 52.617-13.33 34.28-18.329 70.708-14.932 106.32.599 6.283-4.601 6.863-12.878 32.49-4.82 14.941-25.653 15.594-31.56 1.05-21.94-53.95-22.09-114.69-.63-169.86 21.158-54.338 86.154-68.355 127.741-38.741z" fill="#ffaeb5" data-original="#ffaeb5" class=""/>
  </g>
</svg>
