<?xml version="1.0" encoding="UTF-8"?>
<svg xmlns="http://www.w3.org/2000/svg" xmlns:xlink="http://www.w3.org/1999/xlink" xmlns:svgjs="http://svgjs.com/svgjs" version="1.1" width="512" height="512" x="0" y="0" viewBox="0 0 512 512" style="enable-background:new 0 0 512 512" xml:space="preserve" class="">
  <g>
    <g>
      <g>
        <path d="m256 496.362 20 14.822c41.632-3.364 80.319-17.136 113.466-38.711l16.13-26.153 20.643-3.146c46.091-44.55 74.761-107.01 74.761-176.174 0-135.31-109.69-245-245-245s-245 109.69-245 245c0 128.575 99.046 234.006 225 244.184z" fill="#cb29d7" data-original="#e80054" class=""/>
      </g>
      <g>
        <circle cx="256" cy="242" fill="#dfa6d3" r="200" data-original="#ff4155" class=""/>
      </g>
      <g>
        <path d="m258.584 361.071c-.864 0-1.716-.006-2.584-.018-64.047.857-118.501-31.217-153.444-90.414-39.461-66.852-47.236-159.742-17.7-211.474 13.695-23.986 33.97-36.665 58.633-36.665h30c4.142 0 7.5 3.357 7.5 7.5s-3.358 7.5-7.5 7.5h-30c-19.237 0-34.582 9.792-45.607 29.104-12.442 21.793-17.997 54.698-15.239 90.278 2.907 37.5 14.566 75.192 32.83 106.133 22.714 38.48 65.501 84.119 140.418 83.039l.108-.002.108.002c74.958 1.086 117.705-44.56 140.418-83.039 18.264-30.94 29.923-68.633 32.83-106.133 2.758-35.58-2.796-68.485-15.239-90.278-11.024-19.312-26.368-29.104-45.605-29.104h-30c-4.142 0-7.5-3.357-7.5-7.5s3.358-7.5 7.5-7.5h30c24.664 0 44.938 12.679 58.634 36.666 29.536 51.731 21.761 144.622-17.7 211.474-34.47 58.394-87.973 90.427-150.861 90.431z" fill="#d3dcfb" data-original="#d3dcfb" class=""/>
      </g>
      <g>
        <path d="m308.511 50h40c11.046 0 20-8.954 20-20 0-11.046-8.954-20-20-20h-40z" fill="#3b3868" data-original="#3b3868"/>
      </g>
      <g>
        <circle cx="308.511" cy="30" fill="#e9efff" r="30" data-original="#e9efff" class=""/>
      </g>
      <g>
        <path d="m308.511 30c0-11.102 6.036-20.789 15-25.977-4.414-2.554-9.534-4.023-15-4.023-16.569 0-30 13.431-30 30s13.431 30 30 30c5.466 0 10.586-1.469 15-4.023-8.965-5.188-15-14.875-15-25.977z" fill="#d3dcfb" data-original="#d3dcfb" class=""/>
      </g>
      <g>
        <path d="m203.489 50h-40c-11.046 0-20-8.954-20-20 0-11.046 8.954-20 20-20h40z" fill="#3b3868" data-original="#3b3868"/>
      </g>
      <g>
        <circle cx="203.489" cy="30" fill="#e9efff" r="30" data-original="#e9efff" class=""/>
      </g>
      <g>
        <path d="m203.489 30c0-11.102 6.036-20.789 15-25.977-4.414-2.554-9.534-4.023-15-4.023-16.569 0-30 13.431-30 30s13.431 30 30 30c5.466 0 10.586-1.469 15-4.023-8.964-5.188-15-14.875-15-25.977z" fill="#d3dcfb" data-original="#d3dcfb" class=""/>
      </g>
      <g>
        <circle cx="256" cy="171.786" fill="#e9efff" r="60" data-original="#e9efff" class=""/>
      </g>
      <g>
        <path d="m241 216.786c0-8.284 6.716-15 15-15v-60c-8.284 0-15-6.716-15-15s6.716-15 15-15c-33.137 0-60 26.863-60 60s26.863 60 60 60c-8.284 0-15-6.715-15-15z" fill="#d3dcfb" data-original="#d3dcfb" class=""/>
      </g>
      <g>
        <path d="m422.197 228.002c-10.026-4.636-21.912-.262-26.545 9.766-16.605 35.934-56.385 95.805-136.991 95.805-.785 0-1.58-.006-2.373-.018l-.288-.004-.289.004c-.798.012-1.583.018-2.373.018-80.595 0-120.386-59.873-136.99-95.804-4.633-10.026-16.519-14.397-26.545-9.766-10.027 4.634-14.399 16.519-9.766 26.545 16.115 34.873 39.025 64.002 66.253 84.239 18.262 13.573 38.225 23.206 59.696 28.841 17.647 4.631 30.014 20.482 30.014 38.726v104.83c6.597.533 13.265.816 20 .816s13.403-.283 20-.816v-104.823c0-18.243 12.366-34.094 30.011-38.726 21.472-5.636 41.436-15.275 59.699-28.849 27.228-20.237 50.138-49.366 66.253-84.239 4.633-10.026.261-21.911-9.766-26.545z" fill="#3b3868" data-original="#3b3868"/>
      </g>
      <g>
        <path d="m322.327 252.021c-2.282 0-4.536-1.037-6.009-3.005-12.467-16.65-26.253-32.559-40.975-47.281l-24.646-24.645c-2.929-2.93-2.929-7.678 0-10.607 2.929-2.928 7.678-2.928 10.606 0l24.646 24.646c15.225 15.227 29.482 31.678 42.375 48.897 2.483 3.315 1.808 8.017-1.508 10.499-1.348 1.008-2.925 1.496-4.489 1.496z" fill="#d3dcfb" data-original="#d3dcfb" class=""/>
      </g>
      <g>
        <path d="m407.735 365.465c-15.587-47.083-38.454-91.158-67.966-131-6.575-8.876-19.101-10.742-27.976-4.167-8.876 6.574-10.742 19.1-4.167 27.976 46.135 62.285 74.541 137.137 81.839 214.199 13.191-8.586 25.503-18.406 36.773-29.3-3.926-26.323-10.091-52.299-18.503-77.708z" fill="#47477f" data-original="#47477f"/>
      </g>
      <g>
        <circle cx="256" cy="171.786" fill="#ffffff" r="30" data-original="#ffffff"/>
      </g>
      <g>
        <path d="m256 171.786c0-11.102 6.036-20.789 15-25.977-4.414-2.554-9.534-4.023-15-4.023-16.569 0-30 13.432-30 30 0 16.569 13.431 30 30 30 5.466 0 10.586-1.469 15-4.023-8.964-5.188-15-14.875-15-25.977z" fill="#e9efff" data-original="#e9efff" class=""/>
      </g>
      <g>
        <path d="m306 367.406c-11.322 0-20.5-9.178-20.5-20.5 0-7.903 4.479-14.75 11.031-18.172-11.488 3.085-24.081 4.838-37.87 4.838-.785 0-1.58-.006-2.373-.018l-.288-.003-.289.004c-.798.012-1.583.018-2.373.018-80.595 0-120.386-59.873-136.99-95.804-4.633-10.026-16.519-14.397-26.545-9.766-10.027 4.634-14.399 16.519-9.766 26.545 16.115 34.873 39.025 64.002 66.253 84.239 18.262 13.573 38.225 23.206 59.696 28.841 17.647 4.631 30.014 20.482 30.014 38.726v104.83c6.597.533 13.265.816 20 .816s13.403-.283 20-.816v-104.823c0-18.243 12.366-34.094 30.011-38.726.343-.09.682-.19 1.024-.282-.345.017-.685.053-1.035.053z" fill="#2d2d59" data-original="#2d2d59" class=""/>
      </g>
      <g>
        <path d="m408.419 367.609c.034.487.074.972.074 1.468 0 11.459-9.289 20.749-20.749 20.749-7.286 0-13.684-3.764-17.386-9.445 9.698 29.87 16.143 60.799 19.107 92.091 13.191-8.586 25.503-18.406 36.773-29.3-3.816-25.584-9.765-50.835-17.819-75.563z" fill="#3b3868" data-original="#3b3868"/>
      </g>
    </g>
  </g>
</svg>
