<?xml version="1.0" encoding="UTF-8"?>
<svg xmlns="http://www.w3.org/2000/svg" xmlns:xlink="http://www.w3.org/1999/xlink" xmlns:svgjs="http://svgjs.com/svgjs" version="1.1" width="512" height="512" x="0" y="0" viewBox="0 0 512 512" style="enable-background:new 0 0 512 512" xml:space="preserve" class="">
  <g>
    <g>
      <g>
        <g>
          <path d="m452.819 460.721h-203.583c-16.195 0-29.758-12.265-31.382-28.378l-27.638-274.25c-1.872-18.576 12.712-34.703 31.382-34.703h258.857c18.67 0 33.254 16.127 31.382 34.703l-27.637 274.25c-1.624 16.113-15.187 28.378-31.381 28.378z" fill="#fb6b7d" data-original="#ff6e80"/>
          <path d="m372.081 429.18v-274.25c0-17.42 14.121-31.541 31.541-31.541h-182.023c-18.67 0-33.254 16.128-31.382 34.703l27.638 274.251c1.624 16.113 15.187 28.378 31.382 28.378h154.386c-17.421 0-31.542-14.121-31.542-31.541z" fill="#f8475e" data-original="#f8475e"/>
        </g>
        <g>
          <path d="m460.421 295.106h-218.787v-11.767c0-60.416 48.977-109.393 109.393-109.393s109.393 48.977 109.393 109.393v11.767z" fill="#eeecff" data-original="#eeecff"/>
          <path d="m372.081 175.977c-6.814-1.328-13.851-2.032-21.054-2.032-60.417 0-109.393 48.977-109.393 109.393v11.768h99.959l10.072-1.632 8.928 1.632h11.488z" fill="#d3d3ff" data-original="#d3d3ff"/>
          <path d="m360.594 295.106 40.81-52.49c2.543-3.271 1.952-7.982-1.317-10.524-3.271-2.544-7.981-1.953-10.524 1.317l-47.968 61.698h18.999z" fill="#3b4456" data-original="#3b4456"/>
        </g>
        <g>
          <path d="m82.441 398.272 12.686-114.099h159.348l12.686 114.099c6.018 54.129-36.345 101.477-90.807 101.486-1.035 0-2.07 0-3.105 0-54.464-.009-96.826-47.357-90.808-101.486z" fill="#49bdfc" data-original="#49bdfc"/>
          <path d="m209.968 390.69-119.096-68.76-8.465 76.139c-3.939 35.426 12.745 68.061 40.083 86.308l87.479-50.562c16.598-9.583 16.598-33.541-.001-43.125z" fill="#7acefa" data-original="#7acefa" class=""/>
        </g>
        <g>
          <g fill="#d2996f">
            <path d="m174.106 92.005c-4.143 0-7.5-3.357-7.5-7.5 0-25.605-12.061-50.938-20.767-59.379-2.974-2.884-3.047-7.632-.164-10.605 2.884-2.974 7.632-3.046 10.605-.164 12.18 11.81 25.325 41.987 25.325 70.148.001 4.142-3.356 7.5-7.499 7.5z" fill="#d2996f" data-original="#d2996f"/>
            <path d="m193.692 94.718c-4.143 0-7.5-3.357-7.5-7.5 0-21.643 13.238-42.315 31.477-49.155 3.883-1.453 8.202.511 9.656 4.389 1.454 3.879-.511 8.202-4.389 9.656-12.193 4.572-21.744 19.994-21.744 35.11 0 4.142-3.357 7.5-7.5 7.5z" fill="#d2996f" data-original="#d2996f"/>
            <path d="m154.547 95.987c-2.985 0-5.808-1.795-6.975-4.739-6.836-17.253-16.998-27.556-30.204-30.621-4.034-.937-6.546-4.967-5.609-9.002.936-4.034 4.961-6.546 9.002-5.609 18.029 4.186 32.123 17.916 40.757 39.707 1.525 3.851-.359 8.21-4.21 9.735-.907.359-1.842.529-2.761.529z" fill="#d2996f" data-original="#d2996f"/>
          </g>
          <circle cx="315.404" cy="225.012" fill="#ffddcf" r="34.127" data-original="#ffddcf"/>
          <circle cx="34.127" cy="225.012" fill="#ffcbbe" r="34.127" data-original="#ffcbbe"/>
          <circle cx="174.766" cy="225.103" fill="#ffddcf" r="141.244" data-original="#ffddcf"/>
          <path d="m89.487 225.103c0-68.426 48.67-125.485 113.272-138.47-9.046-1.818-18.413-2.774-27.994-2.774-78.007 0-141.244 63.237-141.244 141.244s63.237 141.244 141.244 141.244c9.581 0 18.949-.956 27.994-2.774-64.601-12.985-113.272-70.044-113.272-138.47z" fill="#ffcbbe" data-original="#ffcbbe"/>
        </g>
      </g>
      <g>
        <g>
          <g>
            <g>
              <ellipse cx="97.589" cy="252.584" fill="#ffa1ac" rx="29.355" ry="23.377" data-original="#ffa1ac"/>
            </g>
            <g>
              <ellipse cx="256.702" cy="252.584" fill="#ffa1ac" rx="29.355" ry="23.377" data-original="#ffa1ac"/>
            </g>
          </g>
        </g>
        <g fill="#3b4456">
          <path d="m114.697 237.58c-4.143 0-7.5-3.357-7.5-7.5v-12c0-4.143 3.357-7.5 7.5-7.5s7.5 3.357 7.5 7.5v12c0 4.143-3.357 7.5-7.5 7.5z" fill="#3b4456" data-original="#3b4456"/>
          <path d="m239.595 237.58c-4.143 0-7.5-3.357-7.5-7.5v-12c0-4.143 3.357-7.5 7.5-7.5s7.5 3.357 7.5 7.5v12c0 4.143-3.358 7.5-7.5 7.5z" fill="#3b4456" data-original="#3b4456"/>
          <path d="m177.146 244.724c-8.478 0-16.539-3.671-22.118-10.072-2.721-3.122-2.396-7.86.727-10.582 3.122-2.721 7.859-2.396 10.582.727 2.729 3.132 6.669 4.928 10.81 4.928s8.081-1.796 10.812-4.929c2.721-3.123 7.458-3.447 10.582-.725 3.122 2.722 3.446 7.46.725 10.582-5.582 6.4-13.644 10.071-22.12 10.071z" fill="#3b4456" data-original="#3b4456"/>
        </g>
      </g>
      <circle cx="201.751" cy="412.927" fill="#eeecff" r="7.5" data-original="#eeecff"/>
    </g>
  </g>
</svg>
