<?xml version="1.0" encoding="UTF-8"?>
<svg xmlns="http://www.w3.org/2000/svg" xmlns:xlink="http://www.w3.org/1999/xlink" xmlns:svgjs="http://svgjs.com/svgjs" version="1.1" width="512" height="512" x="0" y="0" viewBox="0 0 512 512" style="enable-background:new 0 0 512 512" xml:space="preserve" class="">
  <g>
    <g>
      <path d="m256 22.002c-135.309 0-244.999 109.69-244.999 244.999 0 119.457 85.501 218.928 198.64 240.599l195.477-46.214c58.294-44.787 95.88-115.191 95.88-194.385.001-135.309-109.689-244.999-244.998-244.999z" fill="#ff4155" data-original="#ff4155"/>
      <path d="m407.004 459.941-19.183-64.219c-5.117-19.592 1.239-40.254 16.131-53.975 39.048-35.981 63.514-87.544 63.514-144.829 0-108.755-88.163-196.918-196.918-196.918-102.59 0-194.384 70.917-204.301 170.405-.856 8.59-.145 17.266 2.115 25.597l2.523 9.301c2.607 9.612.387 19.889-5.963 27.561-19.979 24.138-42.387 52.736-42.387 59.579 0 10.572 25.921 20.32 33.374 22.905 1.188.412 1.982 1.527 1.982 2.784v17.556c0 1.4.628 2.727 1.71 3.615l12.229 10.027c1.1.902 1.58 2.358 1.233 3.738l-1.023 4.058c-1.115 4.424.219 9.107 3.499 12.278l8.783 8.492c5.465 5.284 8.55 12.56 8.55 20.161v10.067c0 11.173 3.367 22.087 9.661 31.319 6.181 9.065 16.198 14.941 27.159 15.43 9.629.429 19.347-1.03 28.571-4.245l23.735-8.271c3.865-1.347 8.144.226 10.216 3.756 8.941 15.233 13.979 32.435 14.667 50.085.138 3.548.282 7.245.426 10.958 15.737 3.171 32.019 4.844 48.693 4.844 56.968 0 109.393-19.446 151.004-52.059z" fill="#e9efff" data-original="#e9efff"/>
      <path d="m270.549 0c-102.591 0-194.385 70.917-204.302 170.405-.856 8.59-.145 17.266 2.115 25.597l2.523 9.301c2.607 9.612.387 19.889-5.963 27.561-19.979 24.138-42.387 52.736-42.387 59.578 0 10.572 25.921 20.32 33.374 22.905 1.188.412 1.982 1.527 1.982 2.784v17.556c0 1.4.628 2.727 1.71 3.615l12.229 10.027c1.1.902 1.58 2.358 1.233 3.738l-1.023 4.058c-1.115 4.424.219 9.107 3.499 12.278l8.783 8.492c5.465 5.284 8.55 12.56 8.55 20.161v10.067c0 11.173 3.367 22.087 9.661 31.319 6.181 9.065 16.198 14.941 27.159 15.43 9.629.429 19.347-1.03 28.571-4.245l23.735-8.271c3.865-1.347 8.144.226 10.216 3.756 8.941 15.233 13.979 32.435 14.667 50.085.138 3.548.282 7.245.426 10.958 15.737 3.172 32.019 4.845 48.693 4.845 19.066 0 37.619-2.189 55.432-6.31-38.514-36.4-1.53-117.523-70.175-112.427-85.8 6.37-28.204-175.043-46.608-276.066-18.405-101.022 75.9-117.197 75.9-117.197z" fill="#d3dcfb" data-original="#d3dcfb"/>
      <g>
        <path d="m264.711 128.458c-4.407 0-7.979-3.572-7.979-7.979v-28.997c0-4.407 3.573-7.979 7.979-7.979 4.407 0 7.979 3.572 7.979 7.979v28.998c0 4.406-3.572 7.978-7.979 7.978z" fill="#bec8f7" data-original="#bec8f7" class=""/>
      </g>
      <g>
        <path d="m264.711 313.587c-4.407 0-7.979-3.572-7.979-7.979v-28.998c0-4.407 3.573-7.979 7.979-7.979 4.407 0 7.979 3.573 7.979 7.979v28.997c0 4.407-3.572 7.98-7.979 7.98z" fill="#bec8f7" data-original="#bec8f7" class=""/>
      </g>
      <g>
        <path d="m203.869 148.986-20.505-20.505c-3.116-3.116-3.116-8.168 0-11.284s8.169-3.116 11.284 0l20.505 20.505c3.117 3.116 3.117 8.168 0 11.284-3.117 3.117-8.168 3.116-11.284 0z" fill="#bec8f7" data-original="#bec8f7" class=""/>
      </g>
      <g>
        <path d="m334.774 279.892-20.504-20.504c-3.116-3.116-3.116-8.168 0-11.284s8.168-3.116 11.284 0l20.505 20.504c3.116 3.116 3.116 8.168 0 11.284-3.117 3.116-8.169 3.116-11.285 0z" fill="#bec8f7" data-original="#bec8f7" class=""/>
      </g>
      <g>
        <path d="m186.646 206.524h-28.998c-4.406 0-7.979-3.572-7.979-7.979s3.573-7.979 7.979-7.979h28.998c4.407 0 7.979 3.572 7.979 7.979 0 4.406-3.572 7.979-7.979 7.979z" fill="#bec8f7" data-original="#bec8f7" class=""/>
      </g>
      <g>
        <path d="m371.774 206.524h-28.998c-4.407 0-7.979-3.572-7.979-7.979s3.572-7.979 7.979-7.979h28.998c4.407 0 7.979 3.572 7.979 7.979.001 4.406-3.572 7.979-7.979 7.979z" fill="#bec8f7" data-original="#bec8f7" class=""/>
      </g>
      <g>
        <path d="m183.364 279.892c-3.116-3.116-3.116-8.168 0-11.284l20.505-20.504c3.116-3.116 8.168-3.117 11.284 0 3.117 3.116 3.117 8.168 0 11.284l-20.505 20.504c-3.115 3.115-8.168 3.117-11.284 0z" fill="#bec8f7" data-original="#bec8f7" class=""/>
      </g>
      <g>
        <path d="m314.27 148.986c-3.116-3.116-3.116-8.168 0-11.284l20.504-20.505c3.116-3.116 8.168-3.116 11.284 0s3.116 8.168 0 11.284l-20.505 20.505c-3.116 3.117-8.167 3.116-11.283 0z" fill="#bec8f7" data-original="#bec8f7" class=""/>
      </g>
      <path d="m119.536 180.097c-10.172 0-18.448 8.276-18.448 18.448s8.276 18.448 18.448 18.448 18.448-8.276 18.448-18.448c-.001-10.172-8.276-18.448-18.448-18.448z" fill="#8ae1ff" data-original="#8ae1ff" class=""/>
      <circle cx="122.869" cy="194.078" fill="#b8f0ff" r="8.648" data-original="#b8f0ff" class=""/>
      <path d="m149.012 288.155c-7.193 7.193-7.193 18.896 0 26.089s18.896 7.193 26.09 0c7.192-7.193 7.192-18.896-.001-26.089-7.192-7.192-18.895-7.193-26.089 0z" fill="#89e56a" data-original="#89e56a" class=""/>
      <ellipse cx="264.711" cy="198.545" fill="#ff4155" rx="55.264" ry="55.264" transform="matrix(.924 -.383 .383 .924 -55.83 116.414)" data-original="#ff4155"/>
      <path d="m314.666 222.191c-17.986 2.075-22.314-16.019-22.314-16.019l-46.514-26.854c-22.321 0-20.222-19.821-20.221-19.834-9.991 9.999-16.17 23.808-16.17 39.06 0 30.521 24.742 55.264 55.263 55.264 22.06 0 41.094-12.927 49.956-31.617z" fill="#ed0056" data-original="#e80054" class=""/>
      <path d="m241.257 214.221c4.337.913 8.605 2.505 12.646 4.838 4.042 2.333 7.554 5.233 10.513 8.533l22.913-16.482c2.067-1.12 3.784-2.791 4.96-4.827l.544-.943c-.07-.039-.143-.069-.213-.109-4.016-2.318-6.375-6.397-6.673-10.698-.06-.874-.55-1.584-1.219-2.01-.736-.469-1.689-.593-2.556-.17-8.556 4.179-18.616-1.618-19.275-11.129-.067-.962-.651-1.726-1.425-2.129-.703-.366-1.563-.435-2.35-.05-3.874 1.892-8.586 1.888-12.602-.43-.07-.04-.132-.088-.201-.13l-.544.943c-1.176 2.036-1.765 4.358-1.701 6.709z" fill="#fcf9eb" data-original="#fcf9eb" class=""/>
      <path d="m259.619 200.26c2.885-8.549 12.051-6.341 12.051-6.341l.173-.955c-4.79-1.69-8.551-6.048-8.946-11.739-.067-.962-.651-1.726-1.425-2.129-.703-.366-1.563-.435-2.35-.051-3.874 1.892-8.586 1.888-12.602-.43-.07-.04-.132-.088-.201-.13l-.544.943c-1.176 2.036-1.765 4.358-1.701 6.709l-2.817 28.084c4.156.875 8.245 2.38 12.135 4.557 2.015-6.002 4.628-13.783 6.227-18.518z" fill="#fceca9" data-original="#fceca9"/>
      <path d="m254.383 218.229c-4.166-2.405-8.563-4.042-13.029-4.975l-2.283 22.755c-.479 4.143 4.221 6.857 7.57 4.37l18.565-13.354c-3.042-3.401-6.657-6.391-10.823-8.796z" fill="#5f5f9b" data-original="#5f5f9b" class=""/>
      <path d="m266.617 143.329-20.778 35.989c.068.041.132.087.201.128 4.146 2.394 9.194 2.566 13.503.461.461-.225.981-.21 1.449.019l19.783-34.265c-4.503-1.366-9.25-2.165-14.158-2.332z" fill="#ffb332" data-original="#ffb332"/>
      <path d="m280.775 145.661-19.783 34.265c.036.018.075.027.11.048.494.285.799.765.837 1.317.332 4.784 3.005 9.07 7.151 11.463 4.146 2.394 9.194 2.566 13.503.462.497-.242 1.065-.219 1.56.066.036.021.063.049.096.072l19.555-33.87c-6.341-6.347-14.221-11.151-23.029-13.823z" fill="#ffdd40" data-original="#ffdd40" class=""/>
      <path d="m303.804 159.484-19.555 33.87c.433.29.705.733.741 1.245.332 4.784 3.005 9.069 7.151 11.463.07.04.142.071.212.11l20.284-35.132c-2.437-4.235-5.404-8.124-8.833-11.556z" fill="#ffb332" data-original="#ffb332"/>
      <path d="m250.536 227.292s1.394-4.157 3.167-9.438c-3.964-2.197-8.124-3.717-12.349-4.6l-2.283 22.755c-.479 4.143 4.221 6.857 7.57 4.37l7.171-5.158c-5.27-1.531-3.276-7.929-3.276-7.929z" fill="#47477f" data-original="#47477f" class=""/>
      <path d="m162.057 77.442c-10.173 0-18.448 8.276-18.448 18.448s8.276 18.448 18.448 18.448 18.448-8.276 18.448-18.448c-.001-10.172-8.276-18.448-18.448-18.448z" fill="#42c3fc" data-original="#42c3fc" class=""/>
      <path d="m165.39 82.775c-4.769 0-8.649 3.88-8.649 8.648s3.88 8.648 8.649 8.648c4.768 0 8.648-3.88 8.648-8.648s-3.88-8.648-8.648-8.648z" fill="#8ae1ff" data-original="#8ae1ff" class=""/>
      <path d="m264.711 34.921c-10.172 0-18.448 8.276-18.448 18.448s8.276 18.448 18.448 18.448 18.448-8.276 18.448-18.448-8.276-18.448-18.448-18.448z" fill="#746bf9" data-original="#746bf9" class=""/>
      <path d="m268.044 40.254c-4.769 0-8.649 3.88-8.649 8.648s3.88 8.648 8.649 8.648 8.648-3.88 8.648-8.648-3.879-8.648-8.648-8.648z" fill="#827df9" data-original="#827df9"/>
      <path d="m367.366 77.442c-10.173 0-18.448 8.276-18.448 18.448s8.276 18.448 18.448 18.448 18.448-8.276 18.448-18.448-8.276-18.448-18.448-18.448z" fill="#ff4155" data-original="#ff4155"/>
      <circle cx="370.699" cy="91.424" fill="#ff7186" r="8.648" data-original="#ff7186"/>
      <path d="m409.887 180.097c-10.173 0-18.448 8.276-18.448 18.448s8.276 18.448 18.448 18.448 18.448-8.276 18.448-18.448-8.276-18.448-18.448-18.448z" fill="#ff7186" data-original="#ff7186"/>
      <path d="m413.221 185.43c-4.769 0-8.649 3.88-8.649 8.648s3.88 8.648 8.649 8.648c4.768 0 8.648-3.88 8.648-8.648s-3.88-8.648-8.648-8.648z" fill="#fc95a9" data-original="#fc95a9" class=""/>
      <path d="m367.366 282.752c-10.173 0-18.448 8.276-18.448 18.448s8.276 18.448 18.448 18.448 18.448-8.276 18.448-18.448-8.276-18.448-18.448-18.448z" fill="#ffb332" data-original="#ffb332"/>
      <path d="m370.699 288.085c-4.769 0-8.649 3.88-8.649 8.648 0 4.769 3.88 8.648 8.649 8.648s8.648-3.88 8.648-8.648-3.879-8.648-8.648-8.648z" fill="#ffdd40" data-original="#ffdd40" class=""/>
      <path d="m264.712 325.273c-10.173 0-18.449 8.276-18.449 18.448s8.276 18.448 18.449 18.448c10.172 0 18.448-8.276 18.448-18.448-.001-10.172-8.277-18.448-18.448-18.448z" fill="#ffdd40" data-original="#ffdd40" class=""/>
      <path d="m268.045 330.606c-4.769 0-8.649 3.88-8.649 8.648 0 4.769 3.88 8.648 8.649 8.648s8.648-3.88 8.648-8.648-3.88-8.648-8.648-8.648z" fill="#fceca9" data-original="#fceca9"/>
    </g>
  </g>
</svg>
