<?xml version="1.0" encoding="UTF-8"?>
<svg xmlns="http://www.w3.org/2000/svg" xmlns:xlink="http://www.w3.org/1999/xlink" xmlns:svgjs="http://svgjs.com/svgjs" version="1.1" width="512" height="512" x="0" y="0" viewBox="0 0 512 512" style="enable-background:new 0 0 512 512" xml:space="preserve" class="">
  <g>
    <g>
      <path d="m153.6 300.228-.139-.12c-26.882-23.221-26.816-64.917.139-88.053v-24.112h204.8v24.112c26.956 23.136 27.022 64.832.139 88.053l-.139.12z" fill="#ff5e5e" data-original="#ff5e5e"/>
      <path d="m358.4 212.054v-24.112h-23.694v24.112c26.956 23.136 27.022 64.831.139 88.053l-.139.12h23.694l.139-.12c26.882-23.221 26.816-64.916-.139-88.053z" fill="#cc4949" data-original="#cc4949"/>
      <path d="m241.414 396.568c-10.634 30.571-19.681 68.784-25.655 108.201-.631 4.162-4.221 7.231-8.43 7.231h-34.503c-5.199 0-9.198-4.612-8.452-9.758 3.438-23.7 7.959-47.167 13.274-69.215.954-3.958-1.052-7.968-4.72-9.736-11.436-5.513-19.329-17.212-19.329-30.758 0-5.582 1.349-10.846 3.725-15.498h83.355z" fill="#fac8c8" data-original="#fac8c8"/>
      <path d="m321.936 220.762 21.248-8.707h15.216c5.225-4.108 9.59-9.368 12.674-15.535 11.691-23.382 1.499-51.791-22.39-62.408l-22.005-9.78c-6.569-2.919-10.604-9.642-10.092-16.812l7.027-98.378c.353-4.94-3.56-9.141-8.512-9.141h-118.204c-4.952 0-8.864 4.202-8.512 9.141l7.027 98.378c.512 7.17-3.523 13.892-10.092 16.812l-22.005 9.78c-23.888 10.617-34.081 39.026-22.39 62.408 7.767 15.535 23.645 25.347 41.013 25.347h8.722c19.98 0 39.142-7.937 53.27-22.065 6.665-6.665 17.471-6.665 24.136 0 12.141 12.141 28.003 19.694 44.904 21.582z" fill="#fff5f5" data-original="#fff5f5" class=""/>
      <path d="m371.437 316.209c-3.172-6.344-7.662-11.756-13.038-15.982l-22.207-5.044s-17.697-4.266-17.821-4.266-5.816-.784-5.821-.784h-8.717-1.956l-9.991-2.25-25.988-16.149-12-5.56-9.746-.147c-11.31 2.892-21.325 9.864-27.953 19.807-1.791 2.686-4.805 4.3-8.034 4.3h-25.413c-17.867 0-34.201 10.095-42.191 26.076-11.651 23.301-2.206 51.636 21.096 63.287 17.148 8.574 36.057 13.038 55.229 13.038h13.52c9.426 0 17.067 7.641 17.067 17.067v93.867c0 4.713 3.82 8.533 8.533 8.533h67.628c4.952 0 8.865-4.202 8.512-9.141l-7.068-98.946c-.492-6.888 3.215-13.393 9.391-16.481l15.872-7.936c23.303-11.653 32.747-39.988 21.096-63.289z" fill="#fff5f5" data-original="#fff5f5" class=""/>
      <g>
        <g>
          <g>
            <path d="m51.2 263.726h-34.133c-4.267 0-7.726-3.459-7.726-7.726s3.459-7.726 7.726-7.726h34.133c4.267 0 7.726 3.459 7.726 7.726s-3.459 7.726-7.726 7.726z" fill="#6cdaff" data-original="#beebfa" class=""/>
          </g>
          <g>
            <path d="m49.084 383.195c-2.67 0-5.267-1.386-6.698-3.865-2.134-3.695-.868-8.421 2.828-10.554l29.56-17.067c3.695-2.134 8.421-.868 10.554 2.828 2.134 3.695.868 8.421-2.828 10.554l-29.56 17.067c-1.216.703-2.545 1.037-3.856 1.037z" fill="#6cdaff" data-original="#beebfa" class=""/>
          </g>
          <g>
            <path d="m462.915 383.195c-1.311 0-2.639-.334-3.856-1.037l-29.56-17.067c-3.695-2.133-4.962-6.859-2.828-10.554 2.133-3.696 6.857-4.963 10.554-2.828l29.56 17.067c3.695 2.133 4.962 6.859 2.828 10.554-1.43 2.479-4.028 3.865-6.698 3.865z" fill="#6cdaff" data-original="#beebfa" class=""/>
          </g>
          <g>
            <path d="m494.933 263.726h-34.133c-4.268 0-7.726-3.459-7.726-7.726s3.459-7.726 7.726-7.726h34.134c4.268 0 7.726 3.459 7.726 7.726s-3.459 7.726-7.727 7.726z" fill="#6cdaff" data-original="#beebfa" class=""/>
          </g>
          <g>
            <path d="m433.369 161.328c-2.67 0-5.267-1.386-6.698-3.865-2.134-3.695-.867-8.421 2.828-10.554l29.56-17.067c3.694-2.134 8.42-.868 10.554 2.828 2.134 3.695.867 8.421-2.828 10.554l-29.56 17.067c-1.216.703-2.545 1.037-3.856 1.037z" fill="#6cdaff" data-original="#beebfa" class=""/>
          </g>
          <g>
            <path d="m78.631 161.328c-1.311 0-2.639-.334-3.856-1.037l-29.56-17.067c-3.696-2.133-4.962-6.859-2.828-10.554 2.134-3.696 6.858-4.962 10.554-2.828l29.56 17.067c3.696 2.133 4.962 6.859 2.828 10.554-1.431 2.479-4.028 3.865-6.698 3.865z" fill="#6cdaff" data-original="#beebfa" class=""/>
          </g>
        </g>
      </g>
      <path d="m295.8 285.834c6.369 11.938 10.281 27.163 11.193 43.277.232 4.098 3.603 7.31 7.708 7.31 4.428 0 7.972-3.717 7.723-8.138-.766-13.582-3.438-26.635-7.78-38.149h-10.809c-3.229-.001-6.244-1.614-8.035-4.3z" fill="#fae1e1" data-original="#fae1e1"/>
      <g>
        <path d="m348.684 134.111-22.005-9.78c-6.569-2.92-10.604-9.642-10.092-16.812l7.027-98.378c.352-4.939-3.56-9.141-8.512-9.141h-23.694c4.952 0 8.865 4.202 8.512 9.141l-7.027 98.378c-.512 7.17 3.523 13.892 10.092 16.812l22.005 9.78c23.888 10.617 34.081 39.026 22.39 62.408-6.769 13.538-19.7 22.726-34.408 24.864 2.766.309 5.557.483 8.367.483h8.722c17.368 0 33.245-9.813 41.013-25.347 11.69-23.381 1.498-51.791-22.39-62.408z" fill="#fae1e1" data-original="#fae1e1"/>
      </g>
      <g fill="#fae1e1">
        <path d="m272.106 285.834c1.791 2.686 4.806 4.299 8.034 4.299h23.694c-3.228 0-6.243-1.613-8.034-4.299-8.872-13.307-23.807-21.301-39.8-21.301-4.044 0-8.019.515-11.847 1.494 11.31 2.892 21.325 9.864 27.953 19.807z" fill="#fae1e1" data-original="#fae1e1"/>
        <path d="m371.438 316.209c-7.99-15.981-24.324-26.076-42.191-26.076h-23.694c17.867 0 34.201 10.095 42.191 26.076 11.651 23.301 2.206 51.636-21.096 63.286l-15.872 7.936c-6.176 3.088-9.883 9.593-9.391 16.481l7.068 98.946c.353 4.94-3.559 9.141-8.512 9.141h23.694c4.952 0 8.865-4.202 8.512-9.141l-7.068-98.946c-.492-6.887 3.215-13.393 9.391-16.481l15.872-7.936c23.301-11.65 32.746-39.985 21.096-63.286z" fill="#fae1e1" data-original="#fae1e1"/>
      </g>
    </g>
  </g>
</svg>
