<?xml version="1.0" encoding="UTF-8"?>
<svg xmlns="http://www.w3.org/2000/svg" xmlns:xlink="http://www.w3.org/1999/xlink" xmlns:svgjs="http://svgjs.com/svgjs" version="1.1" width="512" height="512" x="0" y="0" viewBox="0 0 512 512" style="enable-background:new 0 0 512 512" xml:space="preserve" class="">
  <g>
    <g>
      <g>
        <path d="m445.432 71.735c-3.246-6.71-7.118-13.185-11.59-19.362h-168.969l-64.897 58.086v350.296l71.984 51.245h15.453c34.137 0 61.811-27.047 61.811-61.184v-160.896l71.435-71.512c39.674-39.676 47.903-98.862 24.773-146.673z" fill="#ffe3d5" data-original="#ffd4bd" class=""/>
        <path d="m420.658 36.885c-25.002-25.003-57.728-36.885-90.59-36.885-32.929 0-65.809 11.761-90.933 36.885l-86.553 86.655c-38.534 38.625-60.174 90.958-60.174 145.517v181.759c0 34.137 27.674 61.184 61.811 61.184h15.452l50.909-41.207v-233.699l164.69-164.69c13.399-13.399 30.992-20.073 48.571-20.03-3.921-5.417-8.299-10.606-13.183-15.489z" fill="#ffccb1" data-original="#ffbf9d" class=""/>
      </g>
      <path d="m293.936 238.125c-19.883-21.005-53.038-21.349-73.356-1.031h-20.604v265.858l71.984 9.048v-181.485l20.221-20.317c10.472-10.472 15.722-24.449 15.469-38.283-.225-12.204-4.732-24.302-13.714-33.79z" fill="#efedff" data-original="#efedff" class=""/>
      <path d="m385.48 72.603c-.069-.069-.141-.131-.21-.199h-56.67l-108.019 108.019v56.671c0 28.733 23.688 51.934 52.6 51.141 13.06-.357 24.825-5.751 33.614-14.222 9.924-9.6 16.108-23.204 16.108-37.983v-28.423l62.58-62.689c19.969-19.969 19.966-52.347-.003-72.315z" fill="#ffffff" data-original="#ffffff"/>
      <path d="m313.385 72.395-62.243 62.375h-29.498c-27.876 0-51.44 21.857-52.205 49.723-.794 28.912 22.408 52.6 51.141 52.6 0-36.695 29.747-66.442 66.442-66.442l98.248-98.248c-19.913-19.693-51.969-19.695-71.885-.008z" fill="#efedff" data-original="#efedff" class=""/>
      <path d="m220.581 450.55v-213.456c-20.317-20.317-53.473-19.974-73.356 1.031-19.163 20.244-17.955 52.362 1.756 72.073l20.692 20.562v181.24h102.287c-29.879-5.991-51.379-30.977-51.379-61.45z" fill="#d4d4ff" data-original="#d4d4ff"/>
      <g>
        <path d="m125.234 96.256c-44.499 44.605-71.457 106.189-71.457 172.802 0 4.268 3.459 7.726 7.726 7.726s7.726-3.459 7.726-7.726c0-59.028 22.87-117.709 66.944-161.888 3.014-3.021 3.008-7.912-.013-10.927-3.021-3.016-7.913-3.011-10.926.013z" fill="#ffccb1" data-original="#ffbf9d" class=""/>
        <path d="m417.076 265.686c-3.021-3.014-7.913-3.011-10.927.011l-22.461 22.509c-7.278 7.294-11.286 16.985-11.286 27.287v32.305c0 4.268 3.459 7.726 7.726 7.726s7.726-3.459 7.726-7.726v-32.305c0-6.181 2.405-11.996 6.772-16.372l22.46-22.508c3.015-3.021 3.01-7.913-.01-10.927z" fill="#ffe3d5" data-original="#ffd4bd" class=""/>
      </g>
    </g>
  </g>
</svg>
