<?xml version="1.0" encoding="UTF-8"?>
<svg xmlns="http://www.w3.org/2000/svg" xmlns:xlink="http://www.w3.org/1999/xlink" xmlns:svgjs="http://svgjs.com/svgjs" version="1.1" width="512" height="512" x="0" y="0" viewBox="0 0 512 512" style="enable-background:new 0 0 512 512" xml:space="preserve" class="">
  <g>
    <g>
      <path d="m445.285 170.441h43.381c12.891 0 23.335 10.454 23.335 23.335 0 12.891-10.443 23.335-23.335 23.335-44.022 18.535-34.607 14.573-49.087 20.659l-39.769-39.852z" fill="#ffddcf" data-original="#ffddcf"/>
      <path d="m450.466 233.194-10.887 4.576-40.751-20.659c-7.241 0-14.224-2.593-19.699-7.334-.733-.63-1.529-1.312-2.386-2.056-18.557-16.052-7.703-46.008 11.714-46.008 4.245 0 8.512 1.446 11.993 4.369 3.25 2.749 7.523 4.359 11.982 4.359h32.859s-20.06 25.659 5.175 62.753z" fill="#ffcbbe" data-original="#ffcbbe"/>
      <path d="m488.428 217.111v68.971s-74.721 10.516-109.505-21.868c3.998-10.474 6.704-21.599 7.913-33.169.826-7.912 7.458-13.934 15.402-13.934z" fill="#ff8a98" data-original="#ff8a98"/>
      <path d="m488.428 286.082v37.868s-100.035 20.277-132.881-20.587c9.906-11.497 17.87-24.719 23.366-39.15h.01c37.021 1.137 73.609 10.672 109.505 21.869z" fill="#ffcbbe" data-original="#ffcbbe"/>
      <path d="m78.358 170.441h21.2c2.2 0 4.349-.382 6.384-1.126 2.035-.733 3.936-1.818 5.609-3.233 3.481-2.923 7.737-4.369 11.993-4.369 4.793 0 9.565 1.839 13.191 5.464 11.373 11.373 10.691 30.018-1.477 40.544-.857.744-1.653 1.426-2.386 2.056-5.475 4.741-12.458 7.334-19.699 7.334l-26.434 13.398-14.317 7.262-19.024-59.277z" fill="#ffddcf" data-original="#ffddcf"/>
      <path d="m86.738 230.508-14.317 7.262-49.087-20.659c-12.891 0-23.334-10.444-23.334-23.335 0-12.881 10.443-23.335 23.335-23.335h54.985v.01s-19.141 18.077 0 46.659c3.222 4.804 6.011 9.267 8.418 13.398z" fill="#ffcbbe" data-original="#ffcbbe"/>
      <path d="m131.755 264.214c-11.879 11.063-28.417 17.116-45.037 20.298-32.063 6.125-64.467 1.57-64.467 1.57v-68.971h86.191c7.944 0 14.575 6.022 15.401 13.934 1.208 11.57 3.914 22.695 7.912 33.169z" fill="#ff8a98" data-original="#ff8a98"/>
      <path d="m96.748 217.111s-8.419 28.355-10.03 67.401c-32.063 6.125-64.467 1.57-64.467 1.57v-68.971z" fill="#ff6e80" data-original="#ff6e80"/>
      <path d="m155.131 303.364c-14.234 17.715-41.091 23.934-66.957 25.308-33.809 1.787-65.924-4.721-65.924-4.721v-37.868c21.589-6.735 43.436-12.871 65.469-16.93 14.596-2.696 29.285-4.483 44.035-4.938h.01c5.496 14.429 13.461 27.651 23.367 39.149z" fill="#ffcbbe" data-original="#ffcbbe"/>
      <path d="m88.174 328.671c-33.809 1.787-65.924-4.721-65.924-4.721v-37.868c21.589-6.735 43.436-12.871 65.469-16.93-1.549 17.415-1.983 37.93.455 59.519z" fill="#ffbbae" data-original="#ffbbae"/>
      <path d="m488.428 323.95v87.843c0 34.232-27.756 61.978-61.978 61.978h-246.92l-104.003-22.805-29.517-92.019 41.958-50.956c22.209-3.843 44.604-5.816 67.122-4.669 24.244 28.169 60.16 46.008 100.249 46.008 40.069 0 75.975-17.819 100.208-45.967 44.955-2.448 89.414 7.83 132.881 20.587z" fill="#ffddcf" data-original="#ffddcf"/>
      <path d="m179.53 473.772h-95.302c-34.222 0-61.978-27.746-61.978-61.978v-88.029c21.682-6.291 43.602-11.962 65.717-15.773 2.035 56.007 20.939 124.74 91.563 165.78z" fill="#ffcbbe" data-original="#ffcbbe"/>
      <path d="m340.889 215.727c0 31.908-16.91 59.798-42.124 74.921-12.726 7.644-27.57 12.024-43.426 12.024-47.248 0-85.55-38.932-85.55-86.945 0 0-2.138-122.355 89.042-166.297 9.276-4.473 19.513-8.14 30.824-10.774 13.697-3.192 24.13 12.158 16.404 24.089-12.416 19.162-19.761 45.895 3.729 73.94 33.332 39.81 31.101 79.042 31.101 79.042z" fill="#736acc" data-original="#736acc"/>
      <path d="m298.765 290.648c-12.726 7.644-27.57 12.024-43.426 12.024-47.248 0-85.55-38.932-85.55-86.945 0 0-2.138-122.355 89.042-166.297-.001-.001-84.652 145.296 39.934 241.218z" fill="#625ac5" data-original="#625ac5"/>
      <ellipse cx="173.16" cy="418.518" fill="#ffa1ac" rx="30.323" ry="24.147" data-original="#ffa1ac" class=""/>
      <ellipse cx="337.518" cy="418.518" fill="#ffa1ac" rx="30.323" ry="24.147" data-original="#ffa1ac" class=""/>
      <path d="m255.339 392.861c-12.03 0-22.742-8.084-29.48 1.885-6.835 10.112 8.473 25.793 29.48 25.793s36.315-15.68 29.48-25.793c-6.738-9.968-17.45-1.885-29.48-1.885z" fill="#495560" data-original="#495560"/>
      <g>
        <path d="m190.831 401.351c-7.368 0-14.375-3.191-19.223-8.754-2.811-3.226-2.475-8.119.751-10.93 3.225-2.811 8.119-2.475 10.93.751 1.905 2.186 4.654 3.439 7.542 3.439s5.637-1.254 7.543-3.44c2.81-3.225 7.704-3.561 10.93-.75 3.225 2.811 3.561 7.705.75 10.93-4.848 5.563-11.855 8.754-19.223 8.754z" fill="#596773" data-original="#455059" class=""/>
      </g>
      <g>
        <path d="m319.846 401.351c-7.368 0-14.375-3.191-19.223-8.754-2.811-3.225-2.475-8.119.75-10.93 3.225-2.812 8.119-2.476 10.93.75 1.906 2.186 4.655 3.44 7.543 3.44s5.637-1.253 7.542-3.439c2.811-3.226 7.705-3.562 10.93-.751 3.226 2.811 3.562 7.704.751 10.93-4.847 5.563-11.854 8.754-19.223 8.754z" fill="#596773" data-original="#455059" class=""/>
      </g>
    </g>
  </g>
</svg>
