<?xml version="1.0" encoding="UTF-8"?>
<svg xmlns="http://www.w3.org/2000/svg" xmlns:xlink="http://www.w3.org/1999/xlink" xmlns:svgjs="http://svgjs.com/svgjs" version="1.1" width="512" height="512" x="0" y="0" viewBox="0 0 512 512" style="enable-background:new 0 0 512 512" xml:space="preserve" class="">
  <g>
<path style="" d="M167.653,100v300c0,4.143-3.358,7.5-7.5,7.5s-7.5-3.357-7.5-7.5V100c0-4.143,3.358-7.5,7.5-7.5  S167.653,95.857,167.653,100z M51.698,129.466c-1.072-4.001-5.185-6.378-9.186-5.303c-4.001,1.071-6.375,5.185-5.304,9.186  l77.646,289.778c0.898,3.351,3.928,5.561,7.24,5.561c0.643,0,1.296-0.083,1.946-0.258c4.001-1.071,6.375-5.185,5.304-9.186  L51.698,129.466z" fill="#916152" data-original="#916050" class=""/>
<path style="" d="M185.153,25c0,3.47-0.707,6.775-1.985,9.779c-5.277,12.401-8.015,25.732-8.015,39.209V155  c0,8.284-6.716,15-15,15s-15-6.716-15-15V73.222c0-13.338-3.077-26.401-8.139-38.741c-3.291-8.022-2.531-18.134,4.826-27.794  C162.46-9.019,185.153,5.34,185.153,25z M52.21,102.399c-3.488-13.018-4.294-26.604-2.407-39.947  c0.457-3.232,0.285-6.607-0.613-9.959c-5.088-18.99-30.724-26.987-46.577-6.479C-1.993,57.249-0.11,67.212,5.145,74.109  c8.084,10.609,14.437,22.431,17.889,35.314L44.2,188.416c2.144,8.002,10.369,12.751,18.371,10.607  c8.002-2.145,12.751-10.37,10.607-18.372L52.21,102.399z" fill="#ff9744" data-original="#ff9744"/>
<path style="" d="M474.672,202.683c-11.439,11.439-21.759,23.941-30.853,37.317H485c2.761,0,5,2.239,5,5v15  c0,51.3-27.597,96.146-68.75,120.527V400c0,11.046-8.954,20-20,20h-112.5c-11.046,0-20-8.954-20-20v-19.473  C227.597,356.147,200,311.3,200,260v-15c0-2.761,2.239-5,5-5h147.502l8.333-8.333c11.989-11.989,25.133-22.765,39.241-32.17l0,0  c14.108-9.405,27.252-20.181,39.241-32.17l31.47-31.47c7.81-7.811,20.474-7.811,28.284,0l7.071,7.071  c7.811,7.811,7.811,20.474,0,28.285L474.672,202.683z" fill="#d2b48c" data-original="#d2b48c"/>
<path style="" d="M450,245v15c0,1.061-0.012,2.119-0.035,3.175C448.515,328.337,394.353,380,329.176,380h-61.31  C227.201,355.506,200,310.933,200,260v-15c0-2.761,2.239-5,5-5h240C447.761,240,450,242.239,450,245z" fill="#e6c8a0" data-original="#e6c8a0"/>
<path style="" d="M350.077,429.078L350.077,429.078c0,14.051-11.39,25.441-25.441,25.441H85.441  C71.39,454.518,60,443.128,60,429.078l0,0c0-7.824,3.6-15.213,9.761-20.035l119.598-93.598c9.21-7.208,22.148-7.208,31.359,0  l119.598,93.598C346.477,413.865,350.077,421.254,350.077,429.078z" fill="#7dc86e" data-original="#7dc86e"/>
<path style="" d="M310.077,441.389L310.077,441.389c0,4.745-1.182,9.211-3.26,13.13H85.441  C71.39,454.519,60,443.128,60,429.078l0,0c0-7.824,3.6-15.213,9.761-20.035l108.231-84.703l121.314,94.942  C306.105,424.603,310.077,432.756,310.077,441.389z" fill="#8ce16e" data-original="#8ce16e"/>
<path style="" d="M177.782,462.426L177.782,462.426c-23.431,23.431-61.421,23.431-84.853,0l0,0  c-3.905-3.905-3.905-10.237,0-14.142l0,0c23.431-23.431,61.421-23.431,84.853,0l0,0C181.687,452.19,181.687,458.521,177.782,462.426  z" fill="#916152" data-original="#916050" class=""/>
<path style="" d="M509.071,494.426L509.071,494.426c-23.431,23.431-61.421,23.431-84.853,0l0,0  c-3.905-3.905-3.905-10.237,0-14.142l0,0c23.431-23.431,61.421-23.431,84.853,0l0,0C512.976,484.19,512.976,490.521,509.071,494.426  z" fill="#7db764" data-original="#7db764" class=""/>
<path style="" d="M0,460L0,460c0-33.137,26.863-60,60-60l0,0c5.523,0,10,4.477,10,10l0,0c0,33.137-26.863,60-60,60l0,0  C4.477,470,0,465.523,0,460z" fill="#b4826e" data-original="#b4826e" class=""/>
<g>
</g>
<g>
</g>
<g>
</g>
<g>
</g>
<g>
</g>
<g>
</g>
<g>
</g>
<g>
</g>
<g>
</g>
<g>
</g>
<g>
</g>
<g>
</g>
<g>
</g>
<g>
</g>
<g>
</g>
</g>
</svg>
