<?xml version="1.0" encoding="UTF-8"?>
<svg xmlns="http://www.w3.org/2000/svg" xmlns:xlink="http://www.w3.org/1999/xlink" xmlns:svgjs="http://svgjs.com/svgjs" version="1.1" width="512" height="512" x="0" y="0" viewBox="0 0 74 74" style="enable-background:new 0 0 512 512" xml:space="preserve">
  <g>
    <path xmlns="http://www.w3.org/2000/svg" d="M46.26,72H27.74a8.33,8.33,0,0,1-8.32-8.32V37.54a12.85,12.85,0,0,1,3-8.31,18.27,18.27,0,0,1,3.2-3,1,1,0,0,1,.59-.18H47.81a1,1,0,0,1,.51.13l.09.05a12.76,12.76,0,0,1,6.17,11.08V63.68A8.33,8.33,0,0,1,46.26,72ZM26.51,28.07a15.7,15.7,0,0,0-2.58,2.46,10.8,10.8,0,0,0-2.51,7V63.68A6.33,6.33,0,0,0,27.74,70H46.26a6.33,6.33,0,0,0,6.32-6.32V37.33a10.74,10.74,0,0,0-5-9.26Z" fill="#3f51b5" data-original="#000000"/>
    <path xmlns="http://www.w3.org/2000/svg" d="M49.53,28.07H24.47A2.51,2.51,0,0,1,22,25.56V19.67a2.5,2.5,0,0,1,2.5-2.5H49.53a2.5,2.5,0,0,1,2.5,2.5v5.89A2.51,2.51,0,0,1,49.53,28.07Zm-25.06-8.9a.51.51,0,0,0-.5.5v5.89a.51.51,0,0,0,.5.51H49.53a.51.51,0,0,0,.5-.51V19.67a.51.51,0,0,0-.5-.5Z" fill="#3f51b5" data-original="#000000"/>
    <path xmlns="http://www.w3.org/2000/svg" d="M47.22,19.17H26.78a1,1,0,0,1-1-1.22c.74-3.25,2.85-5.84,6.28-7.71V6.92A4.93,4.93,0,0,1,37,2a4.93,4.93,0,0,1,4.92,4.92v3.3A11.22,11.22,0,0,1,48.2,18a1,1,0,0,1-1,1.21Zm-19.1-2H45.9a9.72,9.72,0,0,0-5.41-5.42,1,1,0,0,1-.57-.91V6.92A2.92,2.92,0,0,0,37,4a2.82,2.82,0,0,0-2,.85,2.87,2.87,0,0,0-.87,2.07v3.92a1,1,0,0,1-.55.9A10.35,10.35,0,0,0,28.12,17.17Z" fill="#3f51b5" data-original="#000000"/>
    <path xmlns="http://www.w3.org/2000/svg" d="M27,38.88H20.42a1,1,0,0,1,0-2H27a1,1,0,0,1,0,2Z" fill="#3f51b5" data-original="#000000"/>
    <path xmlns="http://www.w3.org/2000/svg" d="M24.44,44.37h-4a1,1,0,0,1,0-2h4a1,1,0,1,1,0,2Z" fill="#3f51b5" data-original="#000000"/>
    <path xmlns="http://www.w3.org/2000/svg" d="M27,49.87H20.42a1,1,0,1,1,0-2H27a1,1,0,0,1,0,2Z" fill="#3f51b5" data-original="#000000"/>
    <path xmlns="http://www.w3.org/2000/svg" d="M24.44,55.37h-4a1,1,0,1,1,0-2h4a1,1,0,1,1,0,2Z" fill="#3f51b5" data-original="#000000"/>
    <path xmlns="http://www.w3.org/2000/svg" d="M27,60.86H20.42a1,1,0,0,1,0-2H27a1,1,0,1,1,0,2Z" fill="#3f51b5" data-original="#000000"/>
  </g>
</svg>
