<?xml version="1.0" encoding="UTF-8"?>
<svg xmlns="http://www.w3.org/2000/svg" xmlns:xlink="http://www.w3.org/1999/xlink" xmlns:svgjs="http://svgjs.com/svgjs" version="1.1" width="512" height="512" x="0" y="0" viewBox="0 0 64 64" style="enable-background:new 0 0 512 512" xml:space="preserve" class="">
  <g>
    <g xmlns="http://www.w3.org/2000/svg" id="_x32_1-Tooth">
      <g>
        <path d="m50.6503906 23.8476563c-.534668-5.3583984-4.4355469-11.1425781-9.8061523-11.1425781-1.6904297 0-3.3803711.5751953-5.0610352 1.7373047-2.2451172 1.5800781-5.2836914 1.6074219-7.6040039-.0273438-1.6430664-1.1347656-3.3330078-1.7099609-5.0234375-1.7099609-5.3706055 0-9.2714844 5.7841797-9.8061523 11.1425781-.3037109 3.0458984 1.1416016 5.3457031 2.5395508 7.5703125l.3178711.5078125c1.4199219 2.28125 1.8857422 4.8222656 2.3789063 7.5126953.1254883.6855469.2519531 1.375.3955078 2.0673828.5161133 2.4931641 1.8881836 9.1181641 6.6015625 9.765625.1108398.015625.2202148.0234375.3271484.0234375 2.7661133 0 3.6044922-4.3173828 4.5756836-9.3164063.1245117-.6416016.2495117-1.2841797.3779297-1.9121094.1386718-.6748046.6777343-.9160156 1.1362304-.9160156s.9975586.2412109 1.1362305.9160156c.128418.6269531.253418 1.2695313.3779297 1.9111328.9711914 4.9990234 1.8100586 9.3164063 4.5756836 9.3173828h.0004883c.1069336 0 .2158203-.0078125.3266602-.0234375 4.7133789-.6474609 6.0854492-7.2724609 6.6020508-9.7666016.1430664-.6914063.2695313-1.3808594.3950195-2.0664063.4931641-2.6904297.9589844-5.2314453 2.378418-7.5126953l.3183594-.5078125c1.3979491-2.2246092 2.8432616-4.5244139 2.5395506-7.5703123zm-4.2329101 6.5068359-.3227539.5146484c-1.6206055 2.6035156-2.1425781 5.453125-2.6479492 8.2089844-.1230469.6708984-.246582 1.3457031-.3862305 2.0214844-.3964844 1.9130859-1.6020508 7.7353516-4.9160156 8.1914063l-.0541992.0039063c-1.1176758 0-2.090332-5.0087891-2.612793-7.6992188-.1259766-.6484375-.2519531-1.296875-.3823242-1.9316406-.3081055-1.5029298-1.5522461-2.513672-3.0952149-2.513672s-2.7871094 1.0107422-3.0952148 2.5136719c-.1303711.6347656-.2563477 1.2841797-.3823242 1.9326172-.522461 2.6894531-1.494629 7.6943359-2.6655274 7.6943359-.0004883 0-.0009766 0-.0014648 0-3.3139648-.4560547-4.5195313-6.2783203-4.9155273-8.1904297-.1401367-.6767578-.2636719-1.3515625-.3867188-2.0224609-.5053711-2.7558594-1.0273438-5.6054688-2.6484375-8.2089844l-.3222656-.5146484c-1.3300781-2.1171875-2.4785156-3.9443359-2.2426758-6.3076172.449707-4.5117188 3.6977539-9.3417969 7.815918-9.3417969 1.2763672 0 2.5839844.4560547 3.909668 1.3720703 2.9238281 2.0585938 6.9223633 2.0742188 9.8920898-.015625 1.3027344-.9003906 2.6103516-1.3564453 3.8867188-1.3564453 4.1181641 0 7.3662109 4.8300781 7.815918 9.3417969.2358397 2.3632813-.9125978 4.1904297-2.2426759 6.3076172z" fill="#3f51b5" data-original="#000000"/>
        <path d="m22.8798828 17.7216797c-2.0996094.2539063-4.2280273 3.3486328-4.5551758 6.6220703-.0546875.5498047.3461914 1.0400391.8959961 1.0947266.0336914.0029297.0668945.0048828.1000977.0048828.5078125 0 .9423828-.3847656.9941406-.9003906.2670898-2.6748047 1.9794922-4.7353516 2.8051758-4.8349609.5483398-.0664063.9389648-.5644531.8725586-1.1132813-.065918-.5488282-.5556641-.9394532-1.112793-.8730469z" fill="#3f51b5" data-original="#000000"/>
      </g>
    </g>
  </g>
</svg>
