<?xml version="1.0" encoding="UTF-8"?>
<svg xmlns="http://www.w3.org/2000/svg" xmlns:xlink="http://www.w3.org/1999/xlink" xmlns:svgjs="http://svgjs.com/svgjs" version="1.1" width="512" height="512" x="0" y="0" viewBox="0 0 60 60" style="enable-background:new 0 0 512 512" xml:space="preserve" class="">
  <g>
    <path xmlns="http://www.w3.org/2000/svg" d="m41.556 15.681c-4.39-1.616-6.326 1.027-6.952 2.231-.493.933-.743 2.006-.743 3.191v1.176c-.62-1.256-.963-2.646-.963-4.06v-8.521c0-.552-.448-1-1-1s-1 .448-1 1v8.522c0 2.93 1.183 5.787 3.245 7.866.008.008.014.017.023.025.02.021.038.044.058.064l3.154 3.112c.195.192.448.288.702.288.258 0 .516-.1.712-.298.388-.393.384-1.026-.01-1.414l-2.921-2.882v-3.877c0-.844.177-1.625.514-2.263.862-1.659 2.332-2.078 4.489-1.283 5.228 1.925 13.415 17.042 11.963 27.95-.489 3.684-4.39 3.869-6.044 3.775-4.98-.276-10.837-3.776-10.923-7.854v-8.384l.578.578c.391.391 1.023.391 1.414 0s.391-1.024 0-1.414l-4.148-4.147c-.989-.99-2.305-1.535-3.704-1.535s-2.715.545-3.704 1.535l-1.865 1.865c-.002.002-.004.004-.006.006l-2.693 2.693c-.391.391-.391 1.023 0 1.414.195.195.451.293.707.293s.512-.098.707-.293l.988-.988v8.358c-.083 4.096-5.936 7.597-10.916 7.875-1.654.093-5.562-.09-6.051-3.774-1.444-10.908 6.74-26.025 11.962-27.951 2.166-.794 3.636-.375 4.498 1.283.332.638.507 1.421.507 2.263v3.883l-2.915 2.876c-.394.388-.397 1.021-.01 1.414.196.198.454.298.712.298.254 0 .507-.096.702-.288l3.154-3.112c2.114-2.085 3.326-4.984 3.326-7.954v-8.525c0-.552-.448-1-1-1s-1 .448-1 1v8.522c0 1.419-.346 2.813-.969 4.072v-1.188c0-1.162-.253-2.263-.732-3.185-.629-1.211-2.568-3.85-6.963-2.238-6.034 2.226-14.861 17.934-13.251 30.091.464 3.499 3.203 5.53 7.385 5.53.248 0 .502-.007.76-.021 5.969-.334 12.696-4.453 12.804-9.852v-10.378l1.576-1.576c1.223-1.224 3.355-1.224 4.579 0l1.57 1.57v10.405c.113 5.38 6.843 9.499 12.812 9.83.256.015.507.021.754.021 4.18 0 6.919-2.031 7.383-5.53 1.617-12.156-7.213-27.865-13.255-30.09z" fill="#3f51b5" data-original="#000000"/>
  </g>
</svg>
