<?xml version="1.0" encoding="UTF-8"?>
<svg xmlns="http://www.w3.org/2000/svg" xmlns:xlink="http://www.w3.org/1999/xlink" xmlns:svgjs="http://svgjs.com/svgjs" version="1.1" width="512" height="512" x="0" y="0" viewBox="0 0 32 32" style="enable-background:new 0 0 512 512" xml:space="preserve" class="">
  <g>
    <path d="m26 32h-20c-3.314 0-6-2.686-6-6v-20c0-3.314 2.686-6 6-6h20c3.314 0 6 2.686 6 6v20c0 3.314-2.686 6-6 6z" fill="#daffef" data-original="#e3f8fa" class=""/>
    <path d="m16.167 9.333h-.733c-.221-.766-.927-1.333-1.767-1.333s-1.547.567-1.767 1.333h-.733c-.273 0-.5.227-.5.5v1c0 .64.527 1.167 1.167 1.167h3.666c.64 0 1.167-.527 1.167-1.167v-1c0-.273-.227-.5-.5-.5z" fill="#6bedb5" data-original="#8ce1eb" class=""/>
    <path d="m17.5 10h-.167v.833c0 1.013-.82 1.833-1.833 1.833h-3.667c-1.013 0-1.833-.82-1.833-1.833v-.833h-.167c-1.013 0-1.833.82-1.833 1.833v8.333c0 1.014.82 1.834 1.833 1.834h4.393c-.333-.713-.533-1.5-.553-2.333h-3.173c-.273 0-.5-.227-.5-.5s.227-.5.5-.5h3.227c.06-.407.16-.793.293-1.167h-3.52c-.273 0-.5-.227-.5-.5s.227-.5.5-.5h4c.26-.427.567-.82.927-1.167h-4.927c-.273 0-.5-.227-.5-.5s.227-.5.5-.5h6.293c.767-.4 1.627-.64 2.54-.66v-1.84c0-1.013-.82-1.833-1.833-1.833z" fill="#6bedb5" data-original="#26c6da" class=""/>
    <path d="m19.5 15c-2.481 0-4.5 2.019-4.5 4.5s2.019 4.5 4.5 4.5 4.5-2.019 4.5-4.5-2.019-4.5-4.5-4.5zm1.833 5.167h-1.167v1.167c0 .368-.299.667-.667.667s-.667-.299-.667-.667v-1.167h-1.167c-.366 0-.665-.299-.665-.667s.299-.667.667-.667h1.167v-1.167c0-.368.299-.667.667-.667s.667.299.667.667v1.167h1.167c.368 0 .667.299.667.667s-.301.667-.669.667z" fill="#6bedb5" data-original="#8ce1eb" class=""/>
  </g>
</svg>
