<?xml version="1.0" encoding="UTF-8"?>
<svg xmlns="http://www.w3.org/2000/svg" xmlns:xlink="http://www.w3.org/1999/xlink" xmlns:svgjs="http://svgjs.com/svgjs" version="1.1" width="512" height="512" x="0" y="0" viewBox="0 0 64 64" style="enable-background:new 0 0 512 512" xml:space="preserve" class="">
  <g>
    <g xmlns="http://www.w3.org/2000/svg" id="Exp-1.-O">
      <g fill="#738bab">
        <path d="m51.71 23.023v6.627c0 .276.224.5.5.5s.5-.224.5-.5v-6.627c0-.276-.224-.5-.5-.5s-.5.224-.5.5z" fill="#ff9900" data-original="#738bab" class=""/>
        <path d="m48.855 54.031c-.236.539-.492 1.048-.77 1.517-.09.15-.252.241-.427.241-3.835.001-26.546.001-32.896.001-.175 0-.338-.092-.428-.242-.091-.151-.095-.338-.013-.493.005-.008.009-.017.013-.025 3.137-6.811 3.376-18.665 3.376-18.665v-5.732c0-.276-.224-.5-.5-.5s-.5.224-.5.5v5.717c-.005.256-.249 11.654-3.277 18.245-.242.468-.225 1.021.043 1.467.271.451.759.728 1.285.728 6.35 0 29.063 0 32.897-.001.526 0 1.013-.275 1.284-.725.001-.001.001-.003.002-.004.298-.503.574-1.049.827-1.627.111-.253-.004-.548-.257-.659s-.548.004-.659.257z" fill="#ff9900" data-original="#738bab" class=""/>
        <path d="m17.71 10.949v-2.239c0-.276.224-.5.5-.5h20.062c.276 0 .5-.224.5-.5s-.224-.5-.5-.5c0 0-15.879 0-20.062 0-.828 0-1.5.671-1.5 1.5v2.239c0 .276.224.5.5.5s.5-.224.5-.5z" fill="#ff9900" data-original="#738bab" class=""/>
      </g>
      <path d="m40.772 7.21h-.009c-.093 0-.187.026-.269.079-.174.111-.262.32-.219.523.737 3.521 1.099 7.084.742 10.727-.049.459.12.919.457 1.239.28.266.648.412 1.028.413h.021c.072-.001.144-.007.216-.018 1.252-.194 2.493-.308 3.716-.306h.073c1.882.01 3.722.299 5.498 1 .059.023.12.034.181.035h.009c.14-.002.276-.063.372-.173.139-.16.161-.391.056-.575-2.821-4.932-6.686-9.211-11.582-12.846-.086-.064-.188-.097-.29-.098z" fill="#dddddd" data-original="#2d74ff" class=""/>
      <path d="m52.662 31.5c-5.796 0-10.5 4.705-10.5 10.5s4.704 10.5 10.5 10.5c5.795 0 10.5-4.705 10.5-10.5s-4.705-10.5-10.5-10.5zm0 1c5.243 0 9.5 4.257 9.5 9.5s-4.257 9.5-9.5 9.5c-5.244 0-9.5-4.257-9.5-9.5s4.256-9.5 9.5-9.5z" fill="#ff9900" data-original="#738bab" class=""/>
      <path d="m51.662 37v10c0 .552.448 1 1 1s1-.448 1-1v-10c0-.552-.448-1-1-1s-1 .448-1 1z" fill="#dddddd" data-original="#2d74ff" class=""/>
      <path d="m57.662 41h-10c-.552 0-1 .448-1 1s.448 1 1 1h10c.552 0 1-.448 1-1s-.448-1-1-1z" fill="#dddddd" data-original="#2d74ff" class=""/>
      <path d="m22.638 22.815 2.05-.829c.567-.229.938-.779.938-1.391 0-.611-.372-1.161-.938-1.39-.63-.255-1.336-.54-2.048-.828-2.891-1.168-5.184-3.46-6.353-6.351l-.83-2.052c-.229-.567-.779-.938-1.391-.938-.611 0-1.161.371-1.39.938l-.827 2.046c-1.168 2.891-3.46 5.184-6.351 6.353-.715.29-1.424.576-2.055.832-.567.229-.938.779-.938 1.39 0 .612.371 1.162.938 1.391.632.255 1.341.542 2.056.832 2.891 1.169 5.183 3.462 6.351 6.353l.826 2.045c.229.567.779.938 1.39.938.612 0 1.162-.371 1.391-.938.255-.629.541-1.336.829-2.049 1.168-2.891 3.461-5.184 6.352-6.352zm1.675-1.756-2.05.829c-3.142 1.27-5.634 3.762-6.904 6.904-.289.713-.574 1.42-.829 2.05-.076.188-.26.312-.463.312-.204 0-.388-.124-.464-.313 0 0-.826-2.044-.826-2.044-1.27-3.143-3.761-5.635-6.903-6.906l-2.056-.832c-.189-.077-.313-.26-.313-.464 0-.203.124-.387.313-.463l2.055-.831c3.142-1.271 5.634-3.764 6.903-6.906 0 0 .827-2.046.827-2.046.076-.189.26-.313.464-.313.203 0 .387.123.463.312 0 0 .83 2.053.83 2.053 1.271 3.142 3.763 5.634 6.905 6.903l2.048.828c.189.076.313.26.313.463 0 .204-.124.388-.313.464z" fill="#ff9900" data-original="#738bab" class=""/>
      <path d="m34.601 38.782c.484-.195.8-.665.8-1.187 0-.521-.317-.991-.8-1.186-.001-.001-.001-.001-.002-.001-2.59-1.047-4.645-3.101-5.693-5.692 0-.001-.001-.003-.002-.004-.195-.484-.665-.801-1.186-.801-.522.001-.992.317-1.187.801-1.047 2.591-3.101 4.646-5.692 5.694-.001.001-.003.001-.004.002-.484.195-.801.665-.801 1.187s.317.992.801 1.188c.002.001.004.001.006.002 2.59 1.048 4.643 3.102 5.69 5.693 0 .001 0 .002.001.002.195.484.664.8 1.186.8.521 0 .99-.316 1.186-.799 0-.002.001-.003.001-.004 1.048-2.592 3.102-4.647 5.694-5.694zm-.375-.927-.002.001c-2.843 1.149-5.097 3.403-6.246 6.246l-.002.004c-.042.105-.145.174-.258.174-.114 0-.216-.069-.259-.174l-.001-.003c-1.148-2.841-3.401-5.095-6.242-6.245l-.006-.002c-.106-.043-.176-.146-.176-.261 0-.114.07-.217.176-.26l.004-.002c2.842-1.149 5.096-3.404 6.244-6.246.043-.106.146-.176.26-.176s.217.07.259.175l.002.005c1.149 2.842 3.404 5.096 6.246 6.244l.001.001c.106.043.175.145.175.259 0 .115-.069.217-.175.26z" fill="#ff9900" data-original="#738bab" class=""/>
    </g>
  </g>
</svg>
