<?xml version="1.0" encoding="UTF-8"?>
<svg xmlns="http://www.w3.org/2000/svg" xmlns:xlink="http://www.w3.org/1999/xlink" xmlns:svgjs="http://svgjs.com/svgjs" version="1.1" width="512" height="512" x="0" y="0" viewBox="0 0 64 64" style="enable-background:new 0 0 512 512" xml:space="preserve" class="">
  <g>
    <g xmlns="http://www.w3.org/2000/svg" id="Exp-1.-O">
      <path d="m48.887 23.278v13.078s.003 1.204-.096 3.055c-.015.276.197.512.473.526.275.015.511-.196.526-.472.101-1.885.097-3.112.097-3.112v-13.075c0-.276-.224-.5-.5-.5s-.5.224-.5.5z" fill="#ff9900" data-original="#738bab" class=""/>
      <path d="m46.333 37.833-2.503-.908c-.842-.305-1.783-.137-2.467.441l-3.032 2.563c-.382.323-.9.435-1.381.297l-5.974-1.707c-.234-.067-.482.045-.587.264-.106.219-.039.482.159.624 0 0 3.761 2.686 5.77 4.121.91.65 2.141.616 3.014-.082 0 0 2.932-2.346 2.932-2.346.413-.33.969-.418 1.464-.233 0 0 4.818 1.807 4.818 1.807-.409 4.189-1.298 9.529-3.289 12.884-.093.144-.25.229-.419.229-3.827.003-26.547.003-32.899.003-.175 0-.338-.092-.428-.242-.09-.151-.095-.338-.013-.493.005-.008.009-.017.013-.025 3.137-6.811 3.376-18.665 3.376-18.665v-1.321c0-.276-.224-.5-.5-.5s-.5.224-.5.5v1.306c-.005.256-.249 11.654-3.277 18.245-.241.468-.224 1.021.044 1.467.27.451.758.728 1.284.728h.001c6.351 0 29.073 0 32.9-.003.512 0 .99-.263 1.264-.696.003-.004.005-.008.007-.012 2.123-3.567 3.063-9.311 3.467-13.693.021-.224-.111-.435-.322-.514l-5.176-1.941c-.825-.309-1.752-.162-2.44.389-.816.653-2.033 1.626-2.931 2.345-.524.419-1.263.439-1.809.049 0 0-3.413-2.438-3.413-2.438s3.19.912 3.19.912c.801.229 1.664.043 2.3-.495l3.033-2.563c.41-.347.975-.448 1.48-.265 0 0 2.502.908 2.502.908.26.094.547-.04.641-.299.094-.26-.04-.547-.299-.641z" fill="#ff9900" data-original="#738bab" class=""/>
      <path d="m17.298 34.487 1.652-.62c.495-.185 1.051-.097 1.464.233 0 0 2.931 2.346 2.931 2.346.874.698 2.105.732 3.015.082 2.009-1.435 5.77-4.121 5.77-4.121.198-.142.265-.405.159-.624-.105-.219-.353-.331-.587-.264 0 0-4.03 1.152-5.975 1.707-.48.138-.998.026-1.38-.297l-3.032-2.563c-.684-.578-1.625-.746-2.467-.441 0 0-3.961 1.437-3.961 1.437v-22.652c0-.133.053-.26.147-.354s.221-.146.353-.146h20.113c.276 0 .5-.224.5-.5s-.224-.5-.5-.5c-5.09 0-16.648 0-20.113 0-.398 0-.779.158-1.06.439-.282.281-.44.663-.44 1.061v23.365c0 .163.08.316.213.41.134.093.305.116.458.06l4.631-1.68c.505-.183 1.07-.082 1.48.265 0 0 3.032 2.563 3.032 2.563.637.538 1.5.724 2.301.495 0 0 3.19-.912 3.19-.912s-3.413 2.438-3.413 2.438c-.546.39-1.285.37-1.809-.049-.898-.719-2.115-1.692-2.931-2.345-.688-.551-1.615-.698-2.44-.389 0 0-1.652.62-1.652.62-.259.096-.39.385-.293.643.097.259.385.39.644.293z" fill="#ff9900" data-original="#738bab" class=""/>
      <g fill="#2d74ff">
        <path d="m49.204 20.867c.197.078.422.023.561-.138.139-.16.162-.391.056-.575-2.821-4.932-6.686-9.211-11.582-12.846-.166-.124-.392-.131-.567-.019-.175.111-.263.32-.22.523.737 3.521 1.099 7.084.742 10.727-.048.459.12.919.458 1.239.337.321.804.467 1.264.395 3.207-.496 6.335-.472 9.288.694z" fill="#dddddd" data-original="#2d74ff" class=""/>
        <path d="m6.078 23.778 5 5.87c.358.421.989.471 1.409.113s.471-.989.113-1.409l-5-5.87c-.358-.421-.989-.471-1.41-.113-.42.358-.47.989-.112 1.409z" fill="#dddddd" data-original="#2d74ff" class=""/>
        <path d="m6.132 32.504 3.549.951c.533.143 1.082-.174 1.225-.707s-.174-1.082-.707-1.225l-3.549-.951c-.534-.143-1.082.174-1.225.707s.174 1.082.707 1.225z" fill="#dddddd" data-original="#2d74ff" class=""/>
        <path d="m5.661 40.729 6.678-3.856c.478-.276.642-.888.366-1.366s-.888-.642-1.366-.366l-6.678 3.856c-.478.276-.642.888-.366 1.366s.888.642 1.366.366z" fill="#dddddd" data-original="#2d74ff" class=""/>
        <path d="m57.922 51.214-5-5.87c-.358-.42-.989-.47-1.409-.113-.42.358-.471.99-.113 1.41l5 5.87c.358.42.989.471 1.41.113.42-.358.47-.99.112-1.41z" fill="#dddddd" data-original="#2d74ff" class=""/>
        <path d="m57.868 42.489-3.549-.951c-.533-.143-1.082.174-1.225.707s.174 1.082.707 1.225l3.549.951c.534.142 1.082-.174 1.225-.708.143-.533-.174-1.081-.707-1.224z" fill="#dddddd" data-original="#2d74ff" class=""/>
        <path d="m58.339 34.264-6.678 3.855c-.478.276-.642.888-.366 1.366s.888.642 1.366.366l6.678-3.855c.478-.276.642-.888.366-1.366s-.888-.642-1.366-.366z" fill="#dddddd" data-original="#2d74ff" class=""/>
      </g>
      <path d="m20.218 16.546 3.535 3.536c.195.195.512.195.707 0s.195-.512 0-.707l-3.535-3.536c-.195-.195-.512-.195-.707 0-.196.196-.196.512 0 .707z" fill="#ff9900" data-original="#738bab" class=""/>
      <path d="m23.753 15.839-3.535 3.536c-.196.195-.196.512 0 .707.195.195.512.195.707 0l3.535-3.536c.195-.195.195-.511 0-.707-.195-.195-.512-.195-.707 0z" fill="#ff9900" data-original="#738bab" class=""/>
      <path d="m31.218 16.546 3.535 3.536c.195.195.512.195.707 0s.195-.512 0-.707l-3.535-3.536c-.195-.195-.512-.195-.707 0-.196.196-.196.512 0 .707z" fill="#ff9900" data-original="#738bab" class=""/>
      <path d="m34.753 15.839-3.535 3.536c-.196.195-.196.512 0 .707.195.195.512.195.707 0l3.535-3.536c.195-.195.195-.511 0-.707-.195-.195-.512-.195-.707 0z" fill="#ff9900" data-original="#738bab" class=""/>
      <path d="m22.139 26.009 1.703-1.276s1.697 1.275 1.697 1.275c.177.134.422.134.6 0l1.7-1.275s1.7 1.275 1.7 1.275c.178.134.422.134.6 0l1.7-1.275s1.7 1.275 1.7 1.275c.221.166.534.121.7-.1.165-.22.121-.534-.1-.7l-2-1.5c-.177-.133-.422-.133-.6 0l-1.7 1.275s-1.7-1.275-1.7-1.275c-.177-.133-.422-.133-.6 0l-1.7 1.275s-1.696-1.274-1.696-1.274c-.178-.134-.422-.134-.6-.001l-2.004 1.5c-.221.165-.266.479-.1.7.165.221.479.266.7.101z" fill="#ff9900" data-original="#738bab" class=""/>
    </g>
  </g>
</svg>
