<?xml version="1.0" encoding="UTF-8"?>
<svg xmlns="http://www.w3.org/2000/svg" xmlns:xlink="http://www.w3.org/1999/xlink" xmlns:svgjs="http://svgjs.com/svgjs" version="1.1" width="512" height="512" x="0" y="0" viewBox="0 0 512.002 512.002" style="enable-background:new 0 0 512 512" xml:space="preserve" class="">
  <g>
    <g>
      <path d="m497.001 135.01v301.99c0 4.15-.57 8.18-1.63 12-5.26 19.01-22.72 33-43.37 33h-392c-20.65 0-38.11-13.99-43.37-33-1.06-3.82-1.63-7.85-1.63-12v-301.99c0-8.29 6.72-15 15-15h452c8.28-.001 15 6.709 15 15z" fill="#fffbf0" data-original="#fffbf0" class=""/>
      <path d="m482 120.005h-225.999v361.993h195.999c24.813 0 45-20.187 45-45v-301.993c0-8.284-6.716-15-15-15z" fill="#fff4d9" data-original="#fff4d9" class=""/>
      <path d="m495.371 449c-5.26 19.01-22.72 33-43.37 33h-392c-20.65 0-38.11-13.99-43.37-33z" fill="#fff4d9" data-original="#fff4d9" class=""/>
      <path d="m495.371 449c-5.26 19.01-22.72 33-43.37 33h-196v-33z" fill="#ffebc0" data-original="#ffebc0" class=""/>
      <path d="m452 46.002h-391.998c-24.813 0-45 20.187-45 45v44.004h481.998v-44.004c0-24.813-20.187-45-45-45z" fill="#8cdb86" data-original="#f26a34" class=""/>
      <path d="m452 46.002h-195.999v89.004h240.999v-44.004c0-24.813-20.187-45-45-45z" fill="#76cf91" data-original="#f03800" class=""/>
      <path d="m155.996 89.997c-8.284 0-15-6.716-15-15v-59.997c0-8.284 6.716-15 15-15s15 6.716 15 15v59.997c0 8.284-6.715 15-15 15z" fill="#a38f8f" data-original="#725d57" class=""/>
      <path d="m356.006 89.997c-8.284 0-15-6.716-15-15v-59.997c0-8.284 6.716-15 15-15s15 6.716 15 15v59.997c0 8.284-6.716 15-15 15z" fill="#7f7f7f" data-original="#53433f" class=""/>
      <path d="m256.001 89.997c-8.284 0-15-6.716-15-15v-59.997c0-8.284 6.716-15 15-15s15 6.716 15 15v59.997c0 8.284-6.716 15-15 15z" fill="#a38f8f" data-original="#725d57" class=""/>
      <path d="m256.001 0v89.997c8.284 0 15-6.716 15-15v-59.997c0-8.284-6.716-15-15-15z" fill="#7f7f7f" data-original="#53433f" class=""/>
      <path d="m301.991 270.008c-8.284 0-15-6.716-15-15v-45h-61.977v45c0 8.284-6.716 15-15 15s-15-6.716-15-15v-60c0-8.284 6.716-15 15-15h91.977c8.284 0 15 6.716 15 15v60c0 8.285-6.715 15-15 15z" fill="#76cf91" data-original="#f03800" class=""/>
      <path d="m301.991 180.008h-45.988v30h30.988v45c0 8.284 6.716 15 15 15s15-6.716 15-15v-60c0-8.284-6.715-15-15-15z" fill="#a38f8f" data-original="#bc1f00" class=""/>
      <path d="m392 240.008h-271.998c-24.813 0-45 20.187-45 45v181.994c0 24.813 20.187 45 45 45h271.998c24.813 0 45-20.187 45-45v-181.994c0-24.813-20.186-45-45-45z" fill="#8cdb86" data-original="#f26a34" class=""/>
      <path d="m392 240.008h-135.997v271.994h135.997c24.813 0 45-20.187 45-45v-181.994c0-24.813-20.186-45-45-45z" fill="#76cf91" data-original="#f03800" class=""/>
      <path d="m361.997 265.009c-8.284 0-15-6.716-15-15v-20.001c0-8.284 6.716-15 15-15s15 6.716 15 15v20.001c0 8.284-6.716 15-15 15z" fill="#a38f8f" data-original="#bc1f00" class=""/>
      <path d="m150.008 265.009c-8.284 0-15-6.716-15-15v-20.001c0-8.284 6.716-15 15-15s15 6.716 15 15v20.001c0 8.284-6.716 15-15 15z" fill="#76cf91" data-original="#f03800" class=""/>
      <path d="m316.998 341.006h-25.998v-25.997c0-8.284-6.716-15-15-15h-39.998c-8.284 0-15 6.716-15 15v25.997h-25.998c-8.284 0-15 6.716-15 15v39.999c0 8.284 6.716 15 15 15h25.998v25.997c0 8.284 6.716 15 15 15h39.998c8.284 0 15-6.716 15-15v-25.997h25.998c8.284 0 15-6.716 15-15v-39.999c0-8.284-6.715-15-15-15z" fill="#f9f9f9" data-original="#d1f7ff" class=""/>
      <path d="m316.998 341.006h-25.998v-25.997c0-8.284-6.716-15-15-15h-19.997v151.994h19.997c8.284 0 15-6.716 15-15v-25.997h25.998c8.284 0 15-6.716 15-15v-39.999c0-8.285-6.715-15.001-15-15.001z" fill="#e6f7fb" data-original="#b3f2ff" class=""/>
    </g>
  </g>
</svg>
