<?xml version="1.0" encoding="UTF-8"?>
<svg xmlns="http://www.w3.org/2000/svg" xmlns:xlink="http://www.w3.org/1999/xlink" xmlns:svgjs="http://svgjs.com/svgjs" version="1.1" width="512" height="512" x="0" y="0" viewBox="0 0 32 32" style="enable-background:new 0 0 512 512" xml:space="preserve" class="">
  <g>
    <g xmlns="http://www.w3.org/2000/svg">
      <path d="m16 1.5c-7.995 0-14.5 6.505-14.5 14.5s6.505 14.5 14.5 14.5 14.5-6.505 14.5-14.5-6.505-14.5-14.5-14.5zm0 28c-7.444 0-13.5-6.056-13.5-13.5s6.056-13.5 13.5-13.5 13.5 6.056 13.5 13.5-6.056 13.5-13.5 13.5z" fill="#ff9900" data-original="#000000" class=""/>
      <path d="m23.146 11.148-8.499 8.562c-.185.187-.431.29-.692.29 0 0 0 0-.001 0-.262 0-.508-.103-.693-.29l-4.406-4.44c-.193-.196-.51-.198-.707-.003-.195.195-.197.511-.002.707l4.406 4.44c.374.378.872.586 1.402.586h.001c.53 0 1.028-.208 1.401-.585l8.498-8.562c.195-.196.193-.512-.002-.707-.197-.196-.513-.194-.706.002z" fill="#ff9900" data-original="#000000" class=""/>
    </g>
  </g>
</svg>
