<?xml version="1.0" encoding="UTF-8"?>
<svg xmlns="http://www.w3.org/2000/svg" xmlns:xlink="http://www.w3.org/1999/xlink" xmlns:svgjs="http://svgjs.com/svgjs" version="1.1" width="512" height="512" x="0" y="0" viewBox="0 0 479 480" style="enable-background:new 0 0 512 512" xml:space="preserve" class="">
  <g>
    <path d="m64.5 248-8-32 16-32-72-24 104-160h336v480h-160l-8-72h-160l-32-48 16-56-24-24v-32zm0 0" fill="#ffbcba" data-original="#ffbcba"/>
    <path d="m91.835938 73.40625-43.335938 70.59375 39.3125 18.929688c21.699219 8.675781 44.425781 14.535156 67.617188 17.4375 60.320312 7.539062 116.40625 34.96875 159.390624 77.953124l5.679688 5.679688 32-8-62.726562-167.289062c-5.628907-15-19.667969-25.199219-35.671876-25.910157l-128.097656-5.824219c-13.425781-.613281-26.261718 5.5625-34.167968 16.429688zm0 0" fill="#ff757a" data-original="#ff757a"/>
    <path d="m91.835938 96.390625c7.914062-10.851563 20.75-17.011719 34.167968-16.390625l128.128906 5.824219c15.996094.726562 30.015626 10.917969 35.640626 25.910156l62.726562 144.265625-62.726562-167.289062c-5.628907-15-19.667969-25.199219-35.671876-25.910157l-128.097656-5.824219c-13.425781-.613281-26.261718 5.5625-34.167968 16.429688l-43.335938 70.59375zm0 0" fill="#e56469" data-original="#de5055" class=""/>
    <path d="m322.996094 353.328125c-13.597656-20.328125-40.179688-27.390625-62.070313-16.488281l7.148438 14.320312c14.671875-7.3125 32.488281-2.585937 41.601562 11.039063l44.160157 66.242187 13.3125-8.882812zm0 0" fill="#ff757a" data-original="#ff757a"/>
  </g>
</svg>
