<?xml version="1.0" encoding="UTF-8"?>
<svg xmlns="http://www.w3.org/2000/svg" xmlns:xlink="http://www.w3.org/1999/xlink" xmlns:svgjs="http://svgjs.com/svgjs" version="1.1" width="512" height="512" x="0" y="0" viewBox="0 0 64 64" style="enable-background:new 0 0 512 512" xml:space="preserve" class="">
  <g>
    <g xmlns="http://www.w3.org/2000/svg" id="Exp-1.-O">
      <g fill="#738bab">
        <path d="m27.815 20.643c.803-.319 1.717-.539 2.731-.641.275-.027.475-.272.448-.547-.028-.274-.273-.475-.547-.448-1.115.112-2.119.356-3.001.707-.257.101-.382.392-.28.649.102.256.393.382.649.28z" fill="#ff9900" data-original="#738bab" class=""/>
        <path d="m32.996 19.983c1.182.089 2.264.108 3.252.066.276-.011.491-.244.479-.52-.011-.276-.245-.49-.52-.479-.953.04-1.996.021-3.136-.065-.275-.02-.515.186-.536.461-.021.276.186.516.461.537z" fill="#ff9900" data-original="#738bab" class=""/>
        <path d="m38.948 19.753c1.166-.219 2.155-.543 2.986-.942.249-.12.354-.419.234-.667-.119-.249-.418-.354-.667-.235-.762.366-1.669.661-2.738.862-.271.051-.45.312-.399.584.051.271.313.449.584.398z" fill="#ff9900" data-original="#738bab" class=""/>
        <path d="m43.972 17.422c.896-.865 1.422-1.861 1.659-2.874.063-.269-.105-.538-.373-.601-.269-.063-.538.105-.601.373-.196.841-.636 1.665-1.379 2.382-.199.192-.205.509-.013.707.192.199.508.205.707.013z" fill="#ff9900" data-original="#738bab" class=""/>
        <path d="m45.393 11.105c-.397-1.054-1.07-1.949-1.89-2.515-.227-.156-.538-.099-.695.128s-.1.539.128.696c.663.457 1.2 1.189 1.521 2.043.097.258.385.389.644.292.258-.097.389-.386.292-.644z" fill="#ff9900" data-original="#738bab" class=""/>
        <path d="m32.365 8.588c.549-2.576 2.737-3.829 4.315-3.838.518-.003.967.119 1.2.431.138.185.18.433.127.737-.047.272.136.531.408.578s.531-.136.578-.408c.108-.625-.028-1.126-.312-1.505-.397-.533-1.125-.838-2.006-.833-1.921.011-4.62 1.494-5.288 4.63-.058.27.114.535.384.593s.536-.115.594-.385z" fill="#ff9900" data-original="#738bab" class=""/>
        <path d="m31.391 8.59c.677 3.12 3.366 4.596 5.282 4.608.949.005 1.718-.348 2.094-.959.227-.368.326-.837.22-1.41-.13-.705-.594-1.608-1.565-2.68-.185-.205-.502-.221-.706-.036-.205.186-.221.502-.035.707.676.747 1.077 1.384 1.253 1.919.133.408.13.735-.018.976-.134.217-.374.348-.663.42-.363.09-.798.083-1.257-.014-1.467-.31-3.149-1.537-3.627-3.743-.059-.27-.325-.441-.595-.383-.27.059-.441.325-.383.595z" fill="#ff9900" data-original="#738bab" class=""/>
      </g>
      <path d="m31.744 9.484h6.695c.552 0 1-.448 1-1s-.448-1-1-1h-6.695c-.552 0-1 .448-1 1s.448 1 1 1z" fill="#dddddd" data-original="#2d74ff" class=""/>
      <path d="m11.5 48.52v5.609c0 1.104.724 2.077 1.782 2.394 4.018 1.206 15.32 4.597 18 5.4.468.141.968.141 1.436 0 2.68-.803 13.982-4.194 18-5.4 1.058-.317 1.782-1.29 1.782-2.394 0-2.67 0-7.997 0-7.997 0-.276-.224-.5-.5-.5s-.5.224-.5.5v7.997c0 .662-.435 1.246-1.069 1.437-4.018 1.205-15.321 4.596-18 5.4-.281.084-.581.084-.862 0l-18-5.4c-.634-.191-1.069-.775-1.069-1.437v-5.609c0-.276-.224-.5-.5-.5s-.5.224-.5.5z" fill="#ff9900" data-original="#738bab" class=""/>
      <path d="m10.336 37.19s-2.532 3.754-3.826 5.672c-.263.39-.328.882-.174 1.327.153.445.506.793.954.938l17.995 5.847c.636.206 1.331-.032 1.706-.585 1.341-1.98 5.423-8.002 5.423-8.002.088-.13.11-.294.059-.443s-.169-.265-.319-.313l-20-6.49c-.262-.085-.544.059-.63.322-.085.262.059.544.322.63l19.367 6.284s-5.05 7.451-5.05 7.451c-.125.184-.357.264-.569.195 0 0-17.995-5.847-17.995-5.847-.149-.049-.267-.164-.318-.313-.051-.148-.029-.312.058-.442l3.826-5.672c.155-.229.094-.54-.135-.694-.228-.155-.539-.094-.694.135z" fill="#ff9900" data-original="#738bab" class=""/>
      <path d="m49.001 36.064-17.155 5.567c-.263.085-.407.367-.322.63.086.262.368.406.63.321l17.155-5.566c.263-.085.407-.368.322-.63-.086-.263-.368-.407-.63-.322z" fill="#ff9900" data-original="#738bab" class=""/>
      <path d="m33.002 44.476s2.901 4.28 4.007 5.913c.375.553 1.07.791 1.706.585 2.949-.958 14.196-4.613 17.995-5.847.448-.145.801-.493.954-.938.154-.445.089-.937-.174-1.327-1.568-2.325-5.075-7.525-5.075-7.525-.155-.228-.466-.289-.695-.135-.228.155-.289.466-.135.695 0 0 3.508 5.199 5.076 7.524.087.13.109.294.058.442-.051.149-.169.264-.318.313 0 0-17.995 5.847-17.995 5.847-.212.069-.444-.011-.569-.195l-4.007-5.913c-.155-.229-.466-.288-.695-.133-.228.154-.288.466-.133.694z" fill="#ff9900" data-original="#738bab" class=""/>
      <path d="m15.192 35.104 16.963-5.522c.149-.049.267-.165.318-.314s.029-.313-.06-.443c0 0-3.592-5.283-4.841-7.12-.375-.551-1.069-.789-1.704-.583l-17.996 5.847c-.448.146-.801.493-.955.939-.153.445-.088.936.175 1.327 1.444 2.141 4.493 6.662 4.493 6.662.155.228.466.289.695.134.228-.154.289-.465.135-.694 0 0-3.05-4.52-4.494-6.661-.088-.131-.109-.294-.058-.443.051-.148.169-.264.318-.313 0 0 17.996-5.847 17.996-5.847.212-.069.443.011.568.194 0 0 4.467 6.57 4.467 6.57s-16.329 5.316-16.329 5.316c-.263.085-.406.368-.321.63.086.262.368.406.63.321z" fill="#ff9900" data-original="#738bab" class=""/>
      <path d="m31.845 29.582 20 6.51c.212.069.445-.01.57-.195 0 0 3.049-4.521 4.493-6.662.263-.391.328-.882.175-1.327-.154-.446-.507-.793-.955-.939l-17.996-5.847c-.635-.206-1.329.032-1.704.583l-3.498 5.144c-.155.229-.096.54.132.695.229.155.54.096.695-.132l3.498-5.145c.125-.183.356-.263.568-.194 0 0 17.996 5.847 17.996 5.847.149.049.267.165.318.313.051.149.03.312-.058.443l-4.283 6.349s-19.641-6.394-19.641-6.394c-.263-.086-.545.058-.63.321-.086.262.058.544.32.63z" fill="#ff9900" data-original="#738bab" class=""/>
      <path d="m47.147 35.615-15.147 4.914s-15.147-4.914-15.147-4.914 15.147-4.931 15.147-4.931z" fill="#dddddd" data-original="#2d74ff" class=""/>
      <path d="m26.998 29.06c-.269-.379-.5-.76-.694-1.141-.125-.246-.426-.344-.672-.218-.246.125-.344.426-.219.672.215.423.471.846.77 1.267.16.225.472.277.697.118.225-.16.278-.473.118-.698z" fill="#ff9900" data-original="#738bab" class=""/>
      <path d="m25.611 25.839c-.09-.57-.094-1.127-.015-1.661.04-.273-.149-.527-.422-.567s-.527.149-.568.422c-.092.63-.089 1.288.017 1.961.043.273.299.459.572.416.272-.043.459-.299.416-.571z" fill="#ff9900" data-original="#738bab" class=""/>
    </g>
  </g>
</svg>
