<?xml version="1.0" encoding="UTF-8"?>
<svg xmlns="http://www.w3.org/2000/svg" xmlns:xlink="http://www.w3.org/1999/xlink" xmlns:svgjs="http://svgjs.com/svgjs" version="1.1" width="512" height="512" x="0" y="0" viewBox="0 0 50 50" style="enable-background:new 0 0 512 512" xml:space="preserve" class="">
  <g>
    <g id="_x39_8">
      <g>
        <path d="m43.1512909 8.1938772-.0599976 21.5c0 1.2200317-.4299927 2.0700073-1.1299438 2.4799805l-28.2800293 16.4200449c-.0299683.0199585-.0499878.0299683-.0700073.0499878-.7199707.5100098-1.75.4899902-2.9099731-.1699829-2.1300049-1.2400513-3.8599849-4.2300415-3.8499751-6.6800537l.0599976-21.5 18.1999512-10.579957-.0199591-.0100098 2.3499756-4.0599971 7.9699707-4.6400146 1.960022 1.130005v2.710022l-.0100098.0099487h.0100098l-.0100098 2.2300415 1.9000244 1.0999751 1.9299927-1.1199948z" fill="#fdac42" data-original="#f9a83d"/>
      </g>
      <g>
        <g>
          <g>
            <g>
              <g>
                <g>
                  <g>
                    <g>
                      <path d="m40.573658 29.7828999-28.5069971 16.5664577c-.3471537.2017441-.8275633.1738358-1.3568487-.1317482-1.0523338-.607563-1.9056149-2.0855064-1.9021873-3.2947121l28.507-16.5664577c-.0034294 1.2092056.8498535 2.687149 1.9021873 3.294714.5292854.305582 1.0096931.3334903 1.3568458.1317463z" fill="#fdac42" data-original="#f9a83d"/>
                      <path d="m6.908092 20.2922573 28.5070005-16.5664575 1.9604797 1.1318848-28.5069981 16.5664582z" fill="#ffd06c" data-original="#ffd06c"/>
                      <path d="m8.8685741 21.4241428 28.5069981-16.5664582-.0609474 21.498755-28.507 16.5664577z" fill="#fdac42" data-original="#f9a83d"/>
                      <g>
                        <g>
                          <path d="m12.9678946 46.8372154-.8937426-.5193863c-1.4054155-.8167381-2.2720346-2.3177681-2.2766428-3.9432602l-.0576334-20.3292236 3.1629448 1.8381023z" fill="#e9e7fc" data-original="#e9e7fc"/>
                        </g>
                        <g>
                          <path d="m12.9028206 23.8834476-3.1629448-1.8381023 26.7745094-15.4582696 3.1629448 1.8381019z" fill="#ffffff" data-original="#ffffff"/>
                        </g>
                        <g>
                          <path d="m39.67733 8.4251776.0650749 22.9537668-26.7745103 15.458271-.065074-22.9537678z" fill="#c4c2c0" data-original="#c4c2c0" class=""/>
                        </g>
                      </g>
                      <path d="m12.6833115 23.6270714 28.507-16.5664597 1.9604797 1.1318607c-3.8453217 20.1224976-16.6112633 17.2214966-28.5069981 16.5664673z" fill="#ffd06c" data-original="#ffd06c"/>
                      <path d="m14.6458588 24.7596741c12.9018536 3.5543213 8.0547504 12.0696411-.0609493 21.4987183-.0069504 2.4515991-1.748415 3.4434967-3.881484 2.2119713-2.1335058-1.231781-3.8632331-4.2277946-3.8562827-6.6793518l.0609492-21.4987546 1.9604821 1.1318855-.0609493 21.4987545c-.0034275 1.2092056.8498535 2.687149 1.9021873 3.2947121 1.0519018.6073189 1.9107609.117878 1.9141893-1.0913277l.0609493-21.4987526z" fill="#febc1f" data-original="#febc1f" class=""/>
                      <g>
                        <g>
                          <g>
                            <path d="m27.0798206 10.8628111-1.9852981-1.1544609 2.3441524-4.063726 1.9561596 1.1368323z" fill="#ffd06c" data-original="#ffd06c"/>
                          </g>
                          <g>
                            <path d="m29.3948345 6.7814565-1.9561596-1.1368323 7.9730683-4.6451663 1.9561576 1.1368324z" fill="#ffde9b" data-original="#ffde9b" class=""/>
                          </g>
                          <g>
                            <path d="m37.3679008 2.1362903.0076714 2.7059004-10.2957516 6.0206204 2.3150139-4.0813546z" fill="#fdac42" data-original="#f9a83d"/>
                          </g>
                        </g>
                      </g>
                      <g>
                        <path d="m14.6458588 24.7594299-.0609131 21.4987793 28.506958-16.5664673.0609741-21.4987192z" fill="#fdac42" data-original="#f9a83d"/>
                      </g>
                    </g>
                  </g>
                </g>
              </g>
              <g>
                <g>
                  <g>
                    <g fill="#fff">
                      <path d="m35.2032967 20.7942944c-1.2733002-.7451077-.7432213 5.8861256-2.6862106 7.0179787-3.876545 2.2353821-7.3641739.8036423-7.3547325 5.2555828l1.3181362.082428c0 .5470734.2097282.8479652.3040257 1.3101807.1792107.9337616-1.0172005 1.6839371-.517334 2.2498322.0660305.0754738.9200745.0055618.9861069.062149.132061.1320076-2.3686161.8768501-2.2271118.9806442l-1.9524345-1.1318512c-1.2544727-.726284-2.0372887-2.2919731-2.04673-4.4990883-.0094414-4.4518814 3.121994-9.875288 6.9985371-12.1201134 1.9429913-1.1224117 3.7162151-1.2261486 4.9895115-.481041z" fill="#ffffff" data-original="#ffffff"/>
                      <path d="m25.2619762 37.9039803-2.1882343-1.2827415 1.9524345 1.1318512c.028265.0188255.0565891.0377083.0754719.0471497.0565892.0377081.1037388.0754736.1603279.1037406z" fill="#ffffff" data-original="#ffffff"/>
                    </g>
                    <g>
                      <path d="m37.246521 25.2968407c.0124016 4.4482193-3.1100769 9.875351-6.9883728 12.1056633-3.878294 2.2427902-7.0255051.4461212-7.0379086-4.0021744-.0124016-4.460619 3.1100788-9.875349 6.9883728-12.118063s7.025507-.4461231 7.0379086 4.0145741z" fill="#e9e7fc" data-original="#e9e7fc"/>
                    </g>
                  </g>
                </g>
              </g>
            </g>
          </g>
          <g>
            <g>
              <path d="m33.1856689 30.6900635-2.3117809-.440342.1901493 3.0524025-1.6312618.9407273.1701145-3.3025952-2.2917442 3.1124439-.8306561-1.1308746 2.4819527-2.8622513-2.4819527.050087.8106213-2.1116734 2.2817879.4303246-.1601582-3.0423222 1.6213055-.9407291-.1401215 3.2124977 2.2717095-3.012331.8106803 1.1308765-2.4719352 2.8221817 2.4818916-.0100173z" fill="#f45170" data-original="#f45170" class=""/>
            </g>
          </g>
        </g>
        <path d="m19.9977512 33.8666992c-.9137802 0-1.7270584.3563881-2.3118343.9594574-.6031265.5848312-.9595146 1.3981094-.9595146 2.3118896 0-1.8001747-1.4620247-3.271347-3.2712917-3.271347.8954868 0 1.7270021-.3746262 2.320981-.9503098.5756865-.5939827.9503107-1.4254971.9503107-2.3210392 0 .8955421.3563881 1.7270565.9595146 2.3210392.5847759.5756837 1.3980541.9503098 2.3118343.9503098z" fill="#ffffff" data-original="#ffffff"/>
      </g>
    </g>
  </g>
</svg>
