<svg width="198" height="183" viewBox="0 0 198 183" fill="none" xmlns="http://www.w3.org/2000/svg">
<path d="M177.406 157.325L192.894 172.813C195.956 168.831 197.75 163.888 197.75 158.463C197.75 145.469 187.206 134.925 174.213 134.925C173.25 134.925 172.288 134.969 171.325 135.1C171.325 135.231 171.325 135.319 171.325 135.45V158.419C171.325 166.25 168.35 173.6 162.881 179.2C166.25 181.038 170.1 182.088 174.169 182.088C179.55 182.088 184.538 180.25 188.519 177.231L173.031 161.744C171.85 160.563 171.85 158.594 173.031 157.413C174.256 156.144 176.225 156.144 177.406 157.325Z" fill="white"/>
<path d="M165.2 141.488H156.669V146.431C156.669 148.138 155.312 149.494 153.606 149.494C151.9 149.494 150.544 148.138 150.544 146.431V141.488H117.862V158.331C117.862 165.506 121.056 171.938 126.087 176.269C130.244 179.856 135.625 182 141.531 182C147.875 182 153.65 179.506 157.894 175.438C162.4 171.106 165.2 165.069 165.2 158.331V141.488ZM156.625 156.844C156.581 157.019 156.537 157.238 156.45 157.413C156.362 157.588 156.275 157.763 156.187 157.938C156.056 158.113 155.969 158.244 155.794 158.419C155.662 158.55 155.487 158.681 155.312 158.813C155.137 158.944 154.962 159.031 154.787 159.119C154.612 159.206 154.394 159.25 154.219 159.294C154 159.338 153.825 159.338 153.606 159.338C153.387 159.338 153.212 159.338 152.994 159.294C152.775 159.25 152.6 159.206 152.425 159.119C152.25 159.031 152.075 158.944 151.9 158.813C151.725 158.681 151.594 158.55 151.419 158.419C151.287 158.288 151.156 158.113 151.025 157.938C150.894 157.763 150.806 157.588 150.762 157.413C150.675 157.238 150.631 157.019 150.587 156.844C150.544 156.669 150.544 156.45 150.544 156.231C150.544 156.056 150.544 155.838 150.587 155.619C150.631 155.444 150.675 155.225 150.762 155.05C150.85 154.875 150.937 154.7 151.025 154.525C151.156 154.35 151.287 154.175 151.419 154.044C151.55 153.913 151.725 153.781 151.9 153.65C152.075 153.519 152.25 153.431 152.425 153.388C152.6 153.3 152.819 153.256 152.994 153.213C153.387 153.125 153.781 153.125 154.175 153.213C154.35 153.256 154.569 153.3 154.744 153.388C154.919 153.475 155.094 153.563 155.269 153.65C155.444 153.781 155.575 153.913 155.75 154.044C155.881 154.175 156.012 154.35 156.144 154.525C156.275 154.7 156.362 154.875 156.406 155.05C156.494 155.225 156.537 155.444 156.581 155.619C156.625 155.794 156.625 156.013 156.625 156.231C156.712 156.45 156.669 156.625 156.625 156.844Z" fill="#F0F7F9"/>
<path d="M117.906 114.581V135.406H150.588H156.713H165.244V114.581C165.244 108.063 162.575 102.113 158.287 97.8251C154 93.5376 148.094 90.9126 141.531 90.9126C137.112 90.9126 133 92.1376 129.456 94.2376C122.544 98.3501 117.906 105.919 117.906 114.581Z" fill="#0857DE"/>
<path d="M94.2812 8.26875C94.2812 3.675 90.5625 0 86.0125 0H43.4875C38.8937 0 35.2188 3.71875 35.2188 8.26875V12.8188H94.325V8.26875H94.2812Z" fill="#0857DE"/>
<path d="M111.781 158.331V141.488C111.781 140.35 112.087 139.344 112.612 138.425C112.087 137.506 111.781 136.5 111.781 135.363V114.538C111.781 104.081 117.381 94.2376 126.35 88.9001C127.356 88.2876 128.406 87.7626 129.5 87.2813V34.2563C129.5 25.7688 122.631 18.9438 114.188 18.9438H15.3125C6.825 18.9438 0 25.8126 0 34.2563V166.688C0 175.131 6.86875 182 15.3125 182H114.144C116.725 182 119.175 181.344 121.319 180.206C115.237 174.563 111.781 166.644 111.781 158.331ZM46.4188 145.688C47.6 146.869 47.6 148.838 46.4188 150.019C45.8063 150.631 45.0187 150.938 44.275 150.938C43.4875 150.938 42.7 150.631 42.0875 150.019L34.6063 142.538L27.125 150.019C26.5125 150.631 25.725 150.938 24.9812 150.938C24.2375 150.938 23.4062 150.631 22.8375 150.019C21.6562 148.838 21.6562 146.869 22.8375 145.688L30.3188 138.206L22.75 130.725C21.5688 129.544 21.5688 127.575 22.75 126.394C23.9312 125.213 25.9 125.213 27.0813 126.394L34.5625 133.875L42.0438 126.394C43.225 125.213 45.1938 125.213 46.375 126.394C47.5562 127.575 47.5562 129.544 46.375 130.725L38.9375 138.206L46.4188 145.688ZM48.825 96.8626L32.6375 113.05C32.025 113.663 31.2375 113.925 30.4937 113.925C29.7062 113.925 28.9188 113.619 28.35 113.05L20.3875 105.088C19.2062 103.906 19.2062 101.938 20.3875 100.756C21.5687 99.5751 23.5375 99.5751 24.7188 100.756L30.5375 106.575L44.5812 92.5313C45.7625 91.3501 47.7313 91.3501 48.9125 92.5313C50.0063 93.7126 50.0063 95.6813 48.825 96.8626ZM48.825 61.4251L32.6375 77.6126C32.025 78.2251 31.2375 78.5313 30.4937 78.5313C29.7062 78.5313 28.9188 78.2251 28.35 77.6126L20.3875 69.6501C19.2062 68.4688 19.2062 66.5001 20.3875 65.3188C21.5687 64.1376 23.5375 64.1376 24.7188 65.3188L30.5375 71.1376L44.5812 57.0938C45.7625 55.9126 47.7313 55.9126 48.9125 57.0938C50.0063 58.3188 50.0063 60.2438 48.825 61.4251ZM91.5687 143.981H59.675C57.9687 143.981 56.6125 142.625 56.6125 140.919C56.6125 139.213 57.9687 137.856 59.675 137.856H91.5687C93.275 137.856 94.6312 139.213 94.6312 140.919C94.6312 142.581 93.2312 143.981 91.5687 143.981ZM91.5687 108.544H59.675C57.9687 108.544 56.6125 107.188 56.6125 105.481C56.6125 103.775 57.9687 102.419 59.675 102.419H91.5687C93.275 102.419 94.6312 103.775 94.6312 105.481C94.6312 107.188 93.2312 108.544 91.5687 108.544ZM91.5687 73.1063H59.675C57.9687 73.1063 56.6125 71.7501 56.6125 70.0438C56.6125 68.3376 57.9687 66.9813 59.675 66.9813H91.5687C93.275 66.9813 94.6312 68.3376 94.6312 70.0438C94.6312 71.7501 93.2312 73.1063 91.5687 73.1063ZM106.838 143.063C106.269 143.631 105.481 143.981 104.694 143.981C104.475 143.981 104.3 143.938 104.081 143.938C103.862 143.894 103.688 143.85 103.513 143.763C103.338 143.675 103.162 143.588 102.987 143.5C102.812 143.369 102.681 143.238 102.506 143.106C102.375 142.975 102.244 142.8 102.112 142.625C101.981 142.45 101.894 142.275 101.85 142.1C101.762 141.925 101.719 141.706 101.675 141.531C101.631 141.313 101.631 141.138 101.631 140.919C101.631 140.7 101.631 140.525 101.675 140.306C101.719 140.131 101.762 139.913 101.85 139.738C101.937 139.563 102.025 139.388 102.112 139.213C102.244 139.038 102.331 138.906 102.506 138.731C102.637 138.6 102.812 138.469 102.987 138.338C103.162 138.206 103.338 138.119 103.513 138.075C103.688 137.988 103.906 137.944 104.081 137.9C105.087 137.725 106.138 138.031 106.838 138.731C107.406 139.3 107.756 140.088 107.756 140.875C107.756 141.706 107.406 142.494 106.838 143.063ZM106.838 107.669C106.269 108.238 105.481 108.588 104.694 108.588C104.475 108.588 104.3 108.588 104.081 108.544C103.862 108.5 103.688 108.456 103.513 108.369C103.338 108.281 103.162 108.194 102.987 108.063C102.812 107.931 102.681 107.844 102.506 107.669C102.375 107.538 102.244 107.363 102.112 107.188C101.981 107.013 101.894 106.838 101.85 106.663C101.762 106.488 101.719 106.269 101.675 106.094C101.631 105.919 101.631 105.7 101.631 105.481C101.631 104.694 101.981 103.906 102.506 103.338C102.637 103.206 102.812 103.075 102.987 102.944C103.162 102.813 103.338 102.725 103.513 102.681C103.688 102.594 103.906 102.55 104.081 102.506C105.087 102.288 106.138 102.638 106.838 103.338C107.406 103.906 107.756 104.694 107.756 105.481C107.756 106.269 107.406 107.1 106.838 107.669ZM106.838 72.2313C106.269 72.8001 105.481 73.1501 104.694 73.1501C104.475 73.1501 104.3 73.1501 104.081 73.1063C103.862 73.0626 103.688 73.0188 103.513 72.9313C103.338 72.8438 103.162 72.7563 102.987 72.6688C102.812 72.5376 102.681 72.4063 102.506 72.2751C102.375 72.1438 102.244 71.9688 102.112 71.7938C101.981 71.6188 101.894 71.4438 101.85 71.2688C101.762 71.0938 101.719 70.8751 101.675 70.7001C101.631 70.5251 101.631 70.3063 101.631 70.0876C101.631 69.8688 101.631 69.6938 101.675 69.4751C101.719 69.3001 101.762 69.0813 101.85 68.9063C101.937 68.7313 102.025 68.5563 102.112 68.3813C102.244 68.2063 102.331 68.0751 102.506 67.9001C102.637 67.7688 102.812 67.6376 102.987 67.5063C103.162 67.3751 103.338 67.2876 103.513 67.2438C103.688 67.1563 103.906 67.1126 104.081 67.0688C105.087 66.8501 106.138 67.2001 106.838 67.9001C107.406 68.4688 107.756 69.2563 107.756 70.0876C107.756 70.8751 107.406 71.6626 106.838 72.2313Z" fill="white"/>
</svg>
