<?xml version="1.0" encoding="UTF-8"?>
<svg xmlns="http://www.w3.org/2000/svg" xmlns:xlink="http://www.w3.org/1999/xlink" xmlns:svgjs="http://svgjs.com/svgjs" version="1.1" width="512" height="512" x="0" y="0" viewBox="0 0 50 50" style="enable-background:new 0 0 512 512" xml:space="preserve" class="">
  <g>
    <g id="_x34_7">
      <g>
        <g>
          <g>
            <g>
              <g>
                <g>
                  <g>
                    <g>
                      <g>
                        <g>
                          <g>
                            <g>
                              <path d="m26.4517822 2.8810573-17.7200317 46.02002-3.1699834-1.8800049c-.25-.1499634-.3999634-.4599609-.4099731-.8900146l-.0900269-33.0099497c0-.8800049.6199951-1.9500122 1.3800049-2.3900146l16.849976-9.7299802z" fill="#f3f1fc" data-original="#f3f1fc"/>
                            </g>
                            <g>
                              <path d="m33.6202698 33.4119987c.0099411.8792763-.6095428 1.9383965-1.3788605 2.3879738l-22.5312967 13.0092278c-.7693816.4396362-1.3888626.0899505-1.3888626-.7893257l-.0999537-33.0126505c0-.8792753.6194811-1.9483347 1.3788605-2.3879728l16.8560123-9.7319775 7.0941505 4.0466914z" fill="#dedffb" data-original="#dedffb" class=""/>
                              <path d="m32.1215134 33.4119987c0 .3496857-.3297443.91922-.6394844 1.0990639l-21.6620226 12.5096436-.0999537-32.0134821c0-.3496857.3297434-.9192209.6294823-1.0890627l16.1066341-9.3022804 5.5953941 3.1873584z" fill="#ffffff" data-original="#ffffff" class=""/>
                            </g>
                          </g>
                        </g>
                        <g>
                          <g>
                            <g>
                              <path d="m27.4419518 3.4406595-.953682-.5542204 6.1083832 3.4809825.9536819.5542202z" fill="#d6d4d2" data-original="#d6d4d2" class=""/>
                            </g>
                            <g>
                              <path d="m28.1309032 10.0259714-1.2789688-.7493782c-.2098465-.1198959-.3496857-.3896914-.3496857-.7593794l-.0100002-5.6353397 1.2789078.7493782 1.6558437 4.9291925c0 .3796902-1.5059452 1.3356295-1.2960968 1.4655266z" fill="#e9e7fc" data-original="#e9e7fc" class=""/>
                            </g>
                            <g>
                              <path d="m27.7714996 3.6321723 6.1083832 3.4809825-4.8974037 2.827518c-.6587467.3803263-1.1928787.0759401-1.1950245-.6810083z" fill="#f3f1fc" data-original="#f3f1fc"/>
                            </g>
                          </g>
                        </g>
                      </g>
                    </g>
                  </g>
                </g>
              </g>
            </g>
          </g>
        </g>
        <g>
          <path d="m24.3464584 10.1496696-12.9977035 7.5042572v2.9015027l12.9977035-7.5042563z" fill="#e9e7fc" data-original="#e9e7fc" class=""/>
        </g>
        <g>
          <path d="m30.0193024 13.7149353-18.6705475 10.7794876v2.9015026l18.6705475-10.7794876z" fill="#e9e7fc" data-original="#e9e7fc" class=""/>
        </g>
        <g>
          <path d="m17.5984497 28.5901508v2.9014893l12.4208374-7.1712036v-2.9014893z" fill="#e9e7fc" data-original="#e9e7fc" class=""/>
        </g>
        <g>
          <path d="m17.5984497 35.9271545v2.9014893l12.4208374-7.1712036v-2.9014893z" fill="#e9e7fc" data-original="#e9e7fc" class=""/>
        </g>
      </g>
      <g>
        <g>
          <path d="m25.5245571 40.7343941c.3553257.9900551.8486271 1.9939003 1.4626579 3.2323418 1.7765884 3.5669479 3.7980919 2.2077751 3.7980919 2.2077751 3.3013363 3.4703712 5.2745419-.127636 5.2745419-.127636 3.1530037 1.7627792 5.4263458-5.0675659 5.4263458-5.0675659 2.1491394-4.1396065.3070068-8.0549774.3070068-8.0549774-.2725182-.6933861-.6899376-1.2039318-1.1728783-1.5799541-1.6524048-1.2867203-4.0706062-.9728107-4.0706062-.9728107-1.9870148.1966343-3.6566658-.6347275-3.6566658-.6347275-3.6738873-.7140846-5.7229939.6519718-6.8131008 2.0077114 0 0 0 0-.0034542 0-.3277016.4036045-.5691833.8072109-.7416668 1.1556301-.2552719.5070915-.4036045 1.0625076-.4519062 1.6282349v.0069084.0034523c-.2173309 2.7769813.0068856 4.4604224.641634 6.1956176z" fill="#f45170" data-original="#f45170"/>
          <path d="m24.8829231 34.5353241c.5036392-1.7524414 1.5626907-2.0628967 1.5626907-2.0628967 3.325489-1.2625923 4.6777534 1.3522644 4.6777534 1.3522644-.9279613 1.0625038.8313828 1.3315697 1.8766212 1.566143 1.0452614.231144 3.9947281-.358757 5.2055664-1.1625366 1.1590843-.7692719 2.3239365-.4368782 2.4929657-.3644257-2.7735291-2.5148258-2.8862343-2.4367065-5.0491867-2.9093094-2.1663818-.4760571-4.0430031 1.3660774-4.0430031 1.3660774-3.9843674-2.0904999-5.5263805-.5760899-5.5263805-.5760899s0 0-.0034542 0c-.3261223.4047527-.5674725.8085423-.741869 1.1555767-.2554226.5082703-.4031925 1.0622787-.4511871 1.6290894-.0001715.0020371-.0003432.0040703-.0005168.0061074z" fill="#e93565" data-original="#e93565" class=""/>
          <path d="m31.5949211 32.6709747-1.6803264-.7656326 1.490612 1.3754272z" fill="#f45170" data-original="#f45170"/>
          <g>
            <path d="m32.9153061 33.442955c-.630043.3637543-.6333542.9524422-.0081673 1.3157616.625946.3637619 1.6422615.3637695 2.2723045.0000114.630043-.3637543.6341171-.9528809.0081711-1.3166428-.6251907-.3633193-1.6422691-.3628845-2.2723083.0008698z" fill="#cc104a" data-original="#cc104a" class=""/>
          </g>
          <path d="m33.3931999 27.2750187s.359272.1363773.740921.0386772c.381649-.097702 2.0137291-1.8616543 3.4195328-2.0729141 1.3409233-.2015095 7.2874222-.0164928 7.3845787 5.5697231 0 0-2.3308296-.9811897-4.8266144-1.0461845-2.4957886-.0649929-3.8216743-1.2348938-3.9126663-3.0677376l-2.3546715 1.2876873s-.6494637.4454288-.9088821.078783c-.2594147-.3666439-.0565758-.6145935.4462013-.5568867.0585137-.0758342.0363617-.1534595.0116005-.2311477z" fill="#78e75a" data-original="#78e75a" class=""/>
          <g fill="#5ec363">
            <path d="m34.1341209 27.3136959c1.0501251-.6004333 1.9401855-1.5111465 3.0758209-1.8549175.5482788-.1547241 1.1662369-.1243439 1.7564774-.0869331.5947685.0479488 1.1875381.1471062 1.7566071.3194561 1.1519814.2947121 2.223217.9040642 2.9884148 1.8066196.7876968.8955402 1.129097 2.1079025 1.2267914 3.3125801l-.0335617-.9139996c-.0352478-.3029346-.1103706-.6019039-.1647797-.9059296-.0939903-.2921047-.2109871-.5806046-.3298569-.8662052-.1669579-.2597942-.2911301-.5532322-.4971275-.7879372-.7684174-.9929199-1.9118195-1.6381321-3.0990028-1.9678555-.5963898-.1694145-1.2103615-.2615051-1.8257294-.3008633-.3076439-.0235176-.6166077-.0261135-.9264565-.012043-.3060837.0052681-.629776.0504208-.9302254.1583519-.5995026.2114296-1.1084328.5715237-1.5908356.9440651-.4860611.37031-.8992233.8291609-1.4065361 1.1556112z" fill="#5ec363" data-original="#5ec363" class=""/>
            <path d="m44.9382324 30.8105011c-.789669-.3889084-1.6304779-.6686707-2.4878845-.8812771-.85252-.2191792-1.7549515-.318718-2.6229477-.3485413-.850956-.0486145-1.7079887-.2456665-2.4027481-.7226563-.7019691-.4703312-1.1281395-1.2887497-1.2257004-2.1614456-.0155678.4393139.0621376.8876877.2381935 1.3039246.1836624.412756.475647.7799549.8328171 1.0642529.7239227.5738583 1.6503372.7930298 2.535759.850687.883873.0228958 1.7303734.1087952 2.5910187.2651443.8550415.1573048 1.7028122.3705273 2.5414924.6299115z" fill="#5ec363" data-original="#5ec363" class=""/>
            <path d="m44.9382324 30.8105011c-.4419556-1.0981579-1.0900078-2.1166878-1.8965492-3.0019989-.806881-.8787174-1.8331718-1.6071453-3.0175323-1.931263-.5951767-.1543865-1.2074089-.1881542-1.8076897-.1597214-.6014366.0316391-1.2144051.1333523-1.7702255.3987732-.2833214.1280384-.529953.3056641-.7741508.4622097l-.7398682.4849358c-.2504349.1581249-.4761581.3533707-.7455559.4587479-.1332245.0563259-.2725182.0998917-.4151382.1161633-.1402664.0201359-.2974701-.0112534-.3899231-.1321793.0763512.1312065.2430725.187788.3923492.1821899.1522598-.0012436.3008575-.0369205.4437408-.0828037.2921104-.0887413.538456-.2642212.7994194-.3975143l.7696342-.4397755c.2605743-.1476345.5051727-.3031254.7678261-.4031982.5289154-.2067261 1.1001167-.3053951 1.6752472-.3219604.5774002-.016346 1.1563568.0275707 1.7023354.1810284 1.111618.2773323 2.0879326.9628696 2.9101639 1.7768688.4167862.4055767.7937737.8549309 1.1393661 1.3277359.3540306.4677771.6702004.964939.9565506 1.4817618z" fill="#5ec363" data-original="#5ec363" class=""/>
          </g>
          <path d="m30.81744 37.6341743c-.0713024.2807846-.360796.4499016-.6377239.5355606-.5663204.1794395-1.2339516.2591209-1.7398281-.046566-1.9325123-1.1677704-1.9849586-3.1307526-1.926075-3.4787903.0488777-.3017578.0624733-.5895653.4176769-.6637726.1750259-.0376587.3591328.0074158.5149078.0840759.4518776.2266197.7100925.7022324.9304905 1.1535568.2255173.4524269.4598255.9390831.8947811 1.1943588.2046051.1248474.4390411.186161.6650352.2617912.2322483.0716171.4611778.1586266.6425629.3161926.1803113.1626971.2932244.4131968.2381726.643593z" fill="#ffffff" opacity=".3" data-original="#ffffff" class=""/>
          <g opacity=".3">
            <path d="m31.7350559 30.8451195c-.0779572.055212-.1559162.110424-.2338734.1656361-.1024208.0725384-.2048435.1450748-.3072643.2176132-.0725307.0513687-.1551552.1053028-.2429657.0915699-.0712242-.0111389-.1294079-.0667381-.1613674-.1313553-.0319614-.0646172-.0416698-.137722-.0483608-.2094994-.0129185-.1385899-.0106201-.2941456.0844707-.3957901.0670719-.0716915.1669979-.1010628.2628059-.1224804.1294994-.0289478.261013-.048872.3932686-.0596333.0802765-.0065346.1852283-.026886.2639217.0000134.0722065.0246811.1322136.1051769.1478348.1782093.0260583.1218148-.0695934.2027703-.1584701.2657166z" fill="#ffffff" data-original="#ffffff" class=""/>
          </g>
          <g>
            <path d="m30.3403072 26.1457195c.5622978.4932995 1.090086 1.0590515 1.5109577 1.7248363.4173965.6657829.7727242 1.3902264 1.0383339 2.1664028.2621765.7727242.4588127 1.5833874.5864487 2.4078655.0965996.6209373.1586914 1.2591362.1759338 1.8904114.0034561.0103607.0034561.0172653.0034561.0276031 0 .013813.0034523.0276031 0 .0413971v.0034523c.0172424.0448456.0551834.0862427.1172752.1241837.1621475.0965996.4312096.0965996.5933533 0 .0172462-.0103378.0344887-.0241508.0483017-.0413971.0103378-.0068855.0206985-.0172424.0310364-.0310326.013813-.0103607.0276031-.0276031.0345078-.0483017.0068855-.0172462.0103378-.0344887.0103378-.051754 0-.0103378 0-.0206985-.0034523-.0310364.0552063-.6623497.0689964-1.3177757.0448494-1.987011-.0379448-.8900223-.1448822-1.7800446-.33461-2.6700439-.1931801-.8865681-.4967537-1.7627773-.8969269-2.6114044-.410511-.8451729-.88657-1.5351086-1.5454464-2.2491932z" fill="#febc1f" data-original="#febc1f" class=""/>
          </g>
          <path d="m30.626152 24.9752483c-.419569.3463306-.5809727.8367977-.363966 1.0996857.2170048.262888.7306633.1991577 1.1502323-.1471729.4166927-.3439579.5766087-.8362274.3596039-1.0991154-.2170066-.2628879-.7291774-.1973553-1.1458702.1466026z" fill="#ffd06c" data-original="#ffd06c"/>
          <path d="m25.5245571 40.7343941c.3553257.9900551.8486271 1.9939003 1.4626579 3.2323418 1.7765884 3.5669479 3.7980919 2.2077751 3.7980919 2.2077751 3.3013363 3.4703712 5.2745419-.127636 5.2745419-.127636 3.1530037 1.7627792 5.4263458-5.0675659 5.4263458-5.0675659 2.1491394-4.1396065.3070068-8.0549774.3070068-8.0549774-.2725182-.6933861-.6899376-1.2039318-1.1728783-1.5799541.0931473.7037449.3656654 1.462656.448452 2.014616.1172981.7623634.1897278 1.5316544.1828461 2.3043785-.0172653 1.7765694-.4933243 3.6117973-1.6661987 4.9502716-.8417206.962471-1.9904671 1.6110115-3.1978531 2.0387688-3.3565216 1.1832314-7.2787991.6209335-10.1696243-1.4557724-.2207851-.1586724-.4519062-.3277245-.693388-.462246z" fill="#e93565" data-original="#e93565" class=""/>
        </g>
        <path d="m33.1103935 34.0804672c-.0239716.1055107.01437.2157936.0815125.2973022.0671387.0863113.1582489.1438522.2493591.206192.1390495.0911102.2829018.1870193.4507523.2109909.115078.0143967.2301598-.0048027.3452415-.0239716.1342773-.0239716.2637596-.0479393.3980103-.0671387.0911102-.0191727.1870193-.0335732.2589302-.0911102.0767403-.0575409.1198807-.1678238.0719414-.2493324l-.0239716.0479393c.0191689-.0959091-.0335693-.1965904-.1198807-.2445602-.0815086-.0527382-.1822205-.0623398-.2781296-.0527382-.0959091.0095978-.1918221.0383682-.2829018.0575371-.2014198.0431709-.4124107.0479431-.6090012 0-.0959091-.0191689-.1966209-.0575371-.2781296-.115078-.0287704-.0191727-.0575409-.0479698-.0911102-.0623398-.0335732-.0144005-.0767136-.0239716-.1102829-.0048027-.0335692.0144006-.0527381.0527421-.0623397.0911103z" fill="#cc104a" data-original="#cc104a" class=""/>
      </g>
      <g>
        <g>
          <g>
            <path d="m15.962492 31.175539c0 1.4600201-1.0300293 3.2499981-2.3000488 3.9799786-1.2699585.7399902-2.3099976.1400146-2.3099976-1.3200073-.0099487-1.4599609 1.0200195-3.2399883 2.2900391-3.9799786 1.2799682-.7299805 2.3099975-.1400147 2.3200073 1.3200073z" fill="#5ec363" data-original="#4c5c75" class=""/>
          </g>
        </g>
      </g>
      <g>
        <g>
          <g>
            <path d="m15.962492 38.1395073c0 1.460022-1.0300293 3.25-2.3000488 3.9799805-1.2699585.7399902-2.3099976.1400146-2.3099976-1.3200073-.0099487-1.4599609 1.0200195-3.2399902 2.2900391-3.9799805 1.2799682-.7299805 2.3099975-.1400147 2.3200073 1.3200073z" fill="#9065f5" data-original="#b28afd" class=""/>
          </g>
        </g>
      </g>
      <g>
        <path d="m15.0481157 31.10882-1.7368498 3.0159397c-.0469141.0820808-.117322.1524887-.1877308.1994743-.0821543.0351715-.1408157.046917-.1994772.0234222l-.6572361-.3754616c-.1055765-.0587311-.1055765-.2582092 0-.4459381.058733-.0821571.1173944-.152565.1878023-.1995506.0821543-.0351677.1525621-.0469131.1994772-.0234222l.4576874.269886 1.5490475-2.6755753c.0586615-.0939007.1173229-.1643085.1877308-.1995487.0704079-.0469151.1408157-.0586605.1995487-.0234203.1055765.0586605.1055765.2581387 0 .4341946z" fill="#ffffff" data-original="#ffffff" class=""/>
      </g>
      <g>
        <path d="m15.0480795 38.0735016-1.7368488 3.0159416c-.0469151.0820808-.1173229.1524887-.1877308.1994743-.0821543.0351677-.1408157.046917-.1994772.0234222l-.6572371-.3754616c-.1055756-.0587311-.1055756-.2582092 0-.4459419.058733-.0821533.1173944-.1525612.1878023-.1995468.0821552-.0351677.1525631-.046917.1994781-.0234222l.4576874.269886 1.5490466-2.6755752c.0586615-.0939026.1173229-.1643105.1877308-.1995506.0704079-.0469131.1408157-.0586586.1995487-.0234184.1055765.0586585.1055765.2581367 0 .4341926z" fill="#ffffff" data-original="#ffffff" class=""/>
      </g>
    </g>
  </g>
</svg>
