<?xml version="1.0" encoding="UTF-8"?>
<svg xmlns="http://www.w3.org/2000/svg" xmlns:xlink="http://www.w3.org/1999/xlink" xmlns:svgjs="http://svgjs.com/svgjs" version="1.1" width="512" height="512" x="0" y="0" viewBox="0 0 50 50" style="enable-background:new 0 0 512 512" xml:space="preserve" class="">
  <g>
    <g id="_x31_9">
      <g>
        <g>
          <g>
            <g>
              <path d="m38.8192177 19.4712296-.1020355 21.124073c0 2.0298424-1.3361931 4.0596237-4.0187874 5.6099739-5.3549786 3.1110382-14.0861397 3.1110382-19.4921036 0-1.8359804-1.0709801-3.049778-2.3561859-3.6413927-3.7229462-.2855663-.642601-.428381-1.315773-.428381-1.9685822l.1019754-21.144556c0-2.0297813 1.3361912-4.0595627 4.0086374-5.5997667 4.9469538-2.8661852 12.7499475-3.1007643 18.1661224-.6731691.4589462.204011.8975372.42838 1.3259811.6731691 2.7131626 1.5809812 4.0799839 3.6311827 4.0799839 5.7018042z" fill="#b28afd" data-original="#b28afd" class=""/>
            </g>
            <g>
              <path d="m34.7118683 46.1617317c-5.363821 3.1226501-14.0894947 3.1076965-19.4981842 0-5.4086895-3.1227379-5.4386015-8.1878128-.074687-11.310463 5.3787785-3.1227398 14.1194077-3.1227398 19.5280991 0 5.393733 3.1226502 5.4385976 8.1877251.0447721 11.310463z" fill="#7e5af2" data-original="#7e5af2" class=""/>
            </g>
            <g>
              <path d="m34.8404655 25.0381184c-5.3638229 3.1226482-14.0894966 3.1076927-19.498188 0-5.4086895-3.1227417-5.4386015-8.1878147-.074687-11.3104649 5.3787785-3.1227407 14.1194077-3.1227407 19.5280972 0 5.3937349 3.1226501 5.4386034 8.1877232.0447778 11.3104649z" fill="#9065f5" data-original="#986ff9" class=""/>
            </g>
            <g>
              <g>
                <g>
                  <path d="m36.1413536 7.9569774-.0300293 7.8699946c0 .9700327-.3699951 1.9299936-1.1099854 2.8200083-.4700317.5499878-1.0599976 1.0599976-1.7999878 1.5200195-.1000366.0700073-.2200317.1399536-.3300171.1999512-.710022.4100342-1.4899921.7600098-2.3200092 1.0300293-.5800171.1900024-1.1799927.3599854-1.7999878.4799805-.8599854.1799927-1.75.2999878-2.6500244.3500366-.5999756.039978-1.2099609.039978-1.8099976.0100098-.8800049-.0200195-1.7699585-.1300049-2.6400146-.2800293-.6099854-.1099854-1.2199707-.25-1.7999878-.4299927-.9500122-.2800293-1.8499756-.6600342-2.6599731-1.1199951-.0300293-.0100098-.0499878-.0300293-.0800171-.0400391-.6699829-.3899536-1.2399893-.8199463-1.710021-1.2599487-1.0599976-1.0400391-1.5899658-2.2000122-1.5799561-3.3500376l.0199585-7.8499751z" fill="#dedffb" data-original="#dedffb"/>
                  <g fill="#c3c6e5">
                    <path d="m17.1952953 12.5238171v7.8846092c-.0306301-.01021-.0509872-.0306301-.0816174-.0408401-.6731701-.3876019-1.2443647-.8159828-1.7135849-1.2647839v-7.8947573c.4692202.4590101 1.0506248.8873911 1.734005 1.2852049.0204201.01021.0407773.0204191.0611973.0305672z" fill="#c3c6e5" data-original="#c3c6e5"/>
                    <path d="m21.6526718 14.0742302v7.8845482c-.6119728-.1121845-1.2240086-.2549992-1.8054123-.428381v-7.8845472c.5814038.1835909 1.1934395.3264055 1.8054123.42838z" fill="#c3c6e5" data-original="#c3c6e5"/>
                    <path d="m26.0998383 14.3496494v7.8743382c-.6017628.0408382-1.2035885.0408382-1.8053513.0102081v-7.8743362c.6017628.0305671 1.2035885.0305671 1.8053513-.0102101z" fill="#c3c6e5" data-original="#c3c6e5"/>
                    <path d="m30.5470676 13.5234556v7.8743372c-.5712585.1938019-1.1730213.3570347-1.7952042.4794292v-7.8743982c.6221829-.1121854 1.2239457-.2753572 1.7952042-.4793682z" fill="#c3c6e5" data-original="#c3c6e5"/>
                    <path d="m35.0044441 10.7898741v7.8539171c-.469223.5508385-1.0608368 1.0608349-1.8054123 1.519846v-7.8641892c.7445755-.4590111 1.3361893-.9690084 1.8054123-1.5095739z" fill="#c3c6e5" data-original="#c3c6e5"/>
                  </g>
                </g>
                <g>
                  <path d="m32.8879318 12.4934635c-4.3342762 2.5232801-11.3851223 2.5111952-15.7556534 0-4.370532-2.5233545-4.3947029-6.6162233-.0603523-9.1395035 4.3463612-2.5233541 11.4092922-2.5233541 15.7798233 0 4.358448 2.5232802 4.3947029 6.616149.0361824 9.1395035z" fill="#f3f1fc" data-original="#f3f1fc"/>
                </g>
                <g>
                  <path d="m35.0007591 8.4005938c-.1810532 1.3280344-1.146904 2.6319723-2.8975487 3.6460896-3.8996544 2.2697878-10.250227 2.2577763-14.1982231 0-1.7747402-1.0262022-2.7527494-2.3422251-2.9338055-3.6823444-.2293959-1.6298676.736454-3.308075 2.8855381-4.5636725 3.9117413-2.269788 10.2743244-2.269788 14.2223206 0 2.1731797 1.2676824 3.1511154 2.9579752 2.9217186 4.5999273z" fill="#dedffb" data-original="#dedffb"/>
                </g>
                <g>
                  <path d="m35.0007591 8.4005938c-.1810532 1.3280344-1.146904 2.6319723-2.8975487 3.6460896-3.8996544 2.2697878-10.250227 2.2577763-14.1982231 0-1.7747402-1.0262022-2.7527494-2.3422251-2.9338055-3.6823444.181056-1.3280349 1.1469803-2.6198874 2.8855381-3.634078 3.9117413-2.2817993 10.2743244-2.2817993 14.2223206 0 1.7627297 1.0141905 2.7406655 2.3302134 2.9217186 3.6703328z" fill="#ffffff" data-original="#ffffff" class=""/>
                </g>
              </g>
            </g>
          </g>
        </g>
        <g>
          <g>
            <g>
              <g>
                <path d="m18.7888088 43.1073723 2.6846523 1.5494728c-.2293739-.1380882-.3698025-.4306641-.3698025-.833252 0-.0608559.0023422-.1240425.0093555-.1872444.0749016-.7911224.6296215-1.6969299 1.3013687-2.0831337.3393898-.1942558.650692-.2246857.8824081-.1146851l-2.65658-1.5377693c-.8870792-.5079079-2.0199184-.2083054-2.5278358.6787758-.0234013.0421295-.0468159.0866013-.067873.1287308-.4142893.863678-.0983008 1.9122582.7443067 2.3991051z" fill="#f45170" data-original="#f45170" class=""/>
              </g>
            </g>
            <path d="m18.7888088 43.1073723 2.6846523 1.5494728c-.2293739-.1380882-.3698025-.4306641-.3698025-.833252 0-.0608559.0023422-.1240425.0093555-.1872444-1.4769115-.8777237-2.7408371-1.9614182-3.068512-2.9280815-.4142893.863678-.0983008 1.9122582.7443067 2.3991051z" fill="#df3260" data-original="#df3260" class=""/>
            <g>
              <g>
                <g>
                  <g>
                    <path d="m20.9559174 43.739315c0 .3510895.1076717.6155624.2855606.7723923.0023422 0 .0023422 0 .0023422.0023422.0093575.004673.0163708.0116997.0233994.0187149l.0257435.0163841c.0093727.0093727.0210724.0163879.0327721.0234146.0210724.0117035.0421295.0234032.0632.0351028l2.010561 1.1609383.1849155.1076584c.2925739.1685295.6085491.2481003.9245224.2481003.6389904 0 1.2615833-.3323593 1.6033134-.9245224.0234013-.0421295.0468159-.0842705.0655289-.1264.4166336-.863678.1006451-1.9146004-.7443066-2.4014511 0 0-2.2165318-1.2826385-2.2516479-1.3036957-.0093555-.0046844-.016386-.0093727-.0210571-.0116997-.0046844-.0023422-.0093708-.0046844-.0093708-.0046844-.016386-.0070305-.0327721-.0140457-.0491428-.0187302-.2270451-.084259-.5172768-.046814-.83325.1357574-.6694202.3885345-1.2264824 1.289669-1.3037128 2.0807762-.0070288.063202-.009371.1264001-.009371.189602z" fill="#ffd06c" data-original="#ffd06c"/>
                  </g>
                </g>
                <path d="m20.9559174 43.739315c0 .3510895.1076717.6155624.2855606.7723923.0023422 0 .0023422 0 .0023422.0023422.0093575.004673.0163708.0116997.0233994.0187149l.0257435.0163841c.0093727.0093727.0210724.0163879.0327721.0234146.0210724.0117035.0421295.0234032.0632.0351028l2.010561 1.1609383.1849155.1076584c.2925739.1685295.6085491.2481003.9245224.2481003.6389904 0 1.2615833-.3323593 1.6033134-.9245224.0234013-.0421295.0468159-.0842705.0655289-.1264-.0842571.0327721-.1802158.0585136-.2855453.0749016-.8075066.1170273-2.1884613-.2668304-3.5904732-.9104958 0 0 0 0-.0023422 0-.4493904-.2059593-.8987808-.4376869-1.3341274-.6881332-.0070287.0632019-.0093709.1264-.0093709.1896019z" fill="#febc1f" data-original="#febc1f"/>
              </g>
            </g>
            <path d="m25.9458771 44.932373s.135294-1.0381851-.8911152-1.7499046c-1.0264282-.7117195-4.3850555-2.5645714-4.3850555-2.5645714s-.4176178-.2293892-.2441082-.3764381c0 0 .1000023-.1823425.6705589.1676407.5382099.3293915 3.9144821 2.2263451 3.9144821 2.2263451s1.5322723.7205314.9352379 2.2969283z" fill="#ffffff" opacity=".5" data-original="#ffffff" class=""/>
          </g>
          <g>
            <g>
              <g>
                <path d="m30.367281 39.3772087 2.6846523 1.549469c-.2293739-.1380844-.3698044-.4306602-.3698044-.8332481 0-.0608597.002346-.1240463.0093575-.1872444.0749016-.7911224.6296196-1.6969299 1.3013687-2.0831337.3393898-.1942596.650692-.2246857.8824081-.1146851l-2.6565781-1.5377731c-.8870811-.5079041-2.0199184-.2083015-2.5278378.6787796-.0234013.0421295-.046814.0866013-.067873.1287308-.4142875.8636779-.0983008 1.9122581.7443067 2.399105z" fill="#f45170" data-original="#f45170" class=""/>
              </g>
            </g>
            <path d="m30.367281 39.3772087 2.6846523 1.549469c-.2293739-.1380844-.3698044-.4306602-.3698044-.8332481 0-.0608597.002346-.1240463.0093575-.1872444-1.4769115-.8777237-2.7408371-1.9614182-3.068512-2.9280815-.4142876.8636779-.0983009 1.9122581.7443066 2.399105z" fill="#df3260" data-original="#df3260" class=""/>
            <g>
              <g>
                <g>
                  <g>
                    <path d="m32.5343895 40.0091515c0 .3510895.1076736.6155624.2855606.7723923.0023422 0 .0023422 0 .0023422.0023422.0093575.004673.0163727.0116997.0233994.0187149l.0257454.0163841c.0093689.0093727.0210686.0163879.0327721.0234146.0210686.0116997.0421257.0234032.0631981.0351028l2.0105629 1.1609383.1849136.1076584c.2925758.1685295.6085472.2481003.9245224.2481003.6389923 0 1.2615814-.3323593 1.6033134-.9245224.0233994-.0421295.046814-.0842705.0655289-.1264.4166336-.863678.1006432-1.9146042-.7443047-2.4014511 0 0-2.2165337-1.2826385-2.2516479-1.3036957-.0093575-.0046844-.0163879-.0093727-.0210571-.0116997-.0046883-.0023422-.0093727-.0046883-.0093727-.0046883-.0163841-.0070267-.0327721-.0140419-.0491447-.0187263-.2270432-.084259-.5172729-.046814-.8332481.1357574-.6694221.3885307-1.2264824 1.289669-1.3037109 2.0807762-.0070307.0631982-.0093729.1264001-.0093729.189602z" fill="#ffd06c" data-original="#ffd06c"/>
                  </g>
                </g>
                <path d="m32.5343895 40.0091515c0 .3510895.1076736.6155624.2855606.7723923.0023422 0 .0023422 0 .0023422.0023422.0093575.004673.0163727.0116997.0233994.0187149l.0257454.0163841c.0093689.0093727.0210686.0163879.0327721.0234146.0210686.0116997.0421257.0234032.0631981.0351028l2.0105629 1.1609383.1849136.1076584c.2925758.1685295.6085472.2481003.9245224.2481003.6389923 0 1.2615814-.3323593 1.6033134-.9245224.0233994-.0421295.046814-.0842705.0655289-.1264-.0842552.0327721-.1802139.0585136-.2855453.0749016-.8075066.1170273-2.1884613-.2668304-3.5904732-.9104958 0 0 0 0-.0023422 0-.4493904-.2059593-.8987808-.4376907-1.3341255-.6881332-.0070306.0631981-.0093728.1264-.0093728.1896019z" fill="#febc1f" data-original="#febc1f"/>
              </g>
            </g>
            <path d="m37.5243492 41.2022057s.1352959-1.0381813-.8911133-1.7499008c-1.0264282-.7117195-4.3850555-2.5645714-4.3850555-2.5645714s-.4176197-.2293892-.2441101-.3764381c0 0 .1000023-.1823425.6705589.1676369.538208.3293915 3.9144821 2.2263489 3.9144821 2.2263489s1.5322724.7205313.9352379 2.2969245z" fill="#ffffff" opacity=".5" data-original="#ffffff" class=""/>
          </g>
          <g>
            <g>
              <g>
                <path d="m33.4914284 42.7814484-2.6846504 1.549469c.2293739-.1380882.3698025-.4306602.3698025-.833252 0-.0608559-.0023422-.1240425-.0093575-.1872444-.0748997-.7911186-.6296196-1.6969261-1.3013668-2.0831299-.3393898-.1942596-.650692-.2246895-.8824081-.1146889l2.65658-1.5377693c.8870792-.5079041 2.0199184-.2083015 2.5278378.6787758.0233994.0421295.046814.0866013.0678711.1287308.4142874.863678.0983008 1.9122581-.7443086 2.3991089z" fill="#f45170" data-original="#f45170" class=""/>
              </g>
            </g>
            <path d="m33.4914284 42.7814484-2.6846504 1.549469c.2293739-.1380882.3698025-.4306602.3698025-.833252 0-.0608559-.0023422-.1240425-.0093575-.1872444 1.4769154-.8777199 2.740839-1.9614143 3.0685139-2.9280815.4142875.863678.0983009 1.9122581-.7443085 2.3991089z" fill="#df3260" data-original="#df3260" class=""/>
            <g>
              <g>
                <g>
                  <g>
                    <path d="m31.3243217 43.4133873c0 .3510895-.1076736.6155624-.2855606.7723923-.0023422 0-.0023422 0-.0023422.002346-.0093575.0046692-.0163708.0116997-.0233994.0187111l-.0257435.0163879c-.0093727.0093727-.0210724.0163841-.0327721.0234146-.0210724.0116997-.0421295.0233994-.0632.035099l-2.010561 1.1609383-.1849155.1076584c-.2925739.1685295-.6085491.2481041-.9245224.2481041-.6389923 0-1.2615833-.3323593-1.6033134-.9245224-.0234013-.0421295-.0468159-.0842743-.0655308-.1264038-.4166317-.863678-.1006432-1.9146004.7443066-2.4014473 0 0 2.2165337-1.2826385 2.2516479-1.3036957.0093575-.0046883.016386-.0093727.021059-.0117035.0046844-.0023422.0093708-.0046844.0093708-.0046844.016386-.0070267.0327721-.0140419.0491428-.0187302.2270451-.0842552.5172768-.046814.83325.1357613.6694202.3885307 1.2264824 1.289669 1.3037109 2.0807724.0070288.0632019.0093729.1264038.0093729.1896019z" fill="#ffd06c" data-original="#ffd06c"/>
                  </g>
                </g>
                <path d="m31.3243217 43.4133873c0 .3510895-.1076736.6155624-.2855606.7723923-.0023422 0-.0023422 0-.0023422.002346-.0093575.0046692-.0163708.0116997-.0233994.0187111l-.0257435.0163879c-.0093727.0093727-.0210724.0163841-.0327721.0234146-.0210724.0116997-.0421295.0233994-.0632.035099l-2.010561 1.1609383-.1849155.1076584c-.2925739.1685295-.6085491.2481041-.9245224.2481041-.6389923 0-1.2615833-.3323593-1.6033134-.9245224-.0234013-.0421295-.0468159-.0842743-.0655308-.1264038.084259.0327721.1802158.0585175.2855453.0749016.8075085.1170311 2.1884632-.2668304 3.5904751-.9104919h.0023422c.4493904-.2059593.8987789-.4376907 1.3341255-.6881371.0070287.0632019.0093728.1264038.0093728.1896019z" fill="#febc1f" data-original="#febc1f"/>
              </g>
            </g>
            <path d="m26.3343601 44.6064453s-.1352921-1.0381851.8911171-1.7499046c1.0264282-.7117195 4.3850555-2.5645676 4.3850555-2.5645676s.4176159-.2293892.2441082-.376442c0 0-.1000023-.1823387-.6705589.1676407-.5382099.3293915-3.9144821 2.2263451-3.9144821 2.2263451s-1.5322723.7205353-.9352398 2.2969284z" fill="#ffffff" opacity=".5" data-original="#ffffff" class=""/>
          </g>
          <g>
            <g>
              <g>
                <path d="m20.5565205 40.2443657-2.6846505 1.5494728c.229372-.1380882.3698025-.4306602.3698025-.833252 0-.0608559-.0023422-.1240425-.0093575-.1872444-.0748997-.7911186-.6296196-1.6969299-1.3013687-2.0831299-.3393879-.1942596-.6506901-.2246895-.8824081-.1146889l2.6565819-1.5377693c.8870792-.5079041 2.0199165-.2083015 2.5278358.6787758.0233994.0421295.046814.0866013.0678711.1287308.4142895.863678.098301 1.9122582-.7443065 2.3991051z" fill="#ffd06c" data-original="#ffd06c"/>
              </g>
            </g>
            <path d="m20.5565205 40.2443657-2.6846505 1.5494728c.229372-.1380882.3698025-.4306602.3698025-.833252 0-.0608559-.0023422-.1240425-.0093575-.1872444 1.4769135-.8777199 2.740839-1.9614182 3.068512-2.9280815.4142895.863678.098301 1.9122582-.7443065 2.3991051z" fill="#febc1f" data-original="#febc1f"/>
            <g>
              <g>
                <g>
                  <g>
                    <path d="m18.3894138 40.8763084c0 .3510895-.1076736.6155624-.2855606.7723923-.0023422 0-.0023422 0-.0023422.0023422-.0093575.004673-.0163727.0116997-.0234013.0187149l-.0257435.0163879c-.0093708.0093689-.0210705.0163841-.0327702.0234146-.0210724.0116997-.0421295.0233994-.0632019.035099l-2.01056 1.1609383-.1849155.1076584c-.2925739.1685295-.6085482.2481041-.9245224.2481041-.6389914 0-1.2615824-.3323631-1.6033134-.9245224-.0234003-.0421295-.0468149-.0842743-.0655298-.1264038-.4166317-.863678-.1006432-1.9146004.7443066-2.4014473 0 0 2.2165337-1.2826424 2.2516479-1.3036995.0093575-.0046844.016386-.0093689.0210571-.0116997.0046864-.0023422.0093727-.0046844.0093727-.0046844.016386-.0070305.0327702-.0140419.0491428-.0187302.2270451-.0842552.5172749-.046814.83325.1357574.6694202.3885345 1.2264824 1.289669 1.3037109 2.0807762.0070287.063202.0093728.126404.0093728.189602z" fill="#f45170" data-original="#f45170" class=""/>
                  </g>
                </g>
                <path d="m18.3894138 40.8763084c0 .3510895-.1076736.6155624-.2855606.7723923-.0023422 0-.0023422 0-.0023422.0023422-.0093575.004673-.0163727.0116997-.0234013.0187149l-.0257435.0163879c-.0093708.0093689-.0210705.0163841-.0327702.0234146-.0210724.0116997-.0421295.0233994-.0632019.035099l-2.01056 1.1609383-.1849155.1076584c-.2925739.1685295-.6085482.2481041-.9245224.2481041-.6389914 0-1.2615824-.3323631-1.6033134-.9245224-.0234003-.0421295-.0468149-.0842743-.0655298-.1264038.0842581.0327721.1802158.0585175.2855453.0749016.8075075.1170311 2.1884623-.2668304 3.5904751-.9104919h.0023422c.4493904-.2059593.8987789-.4376907 1.3341255-.6881371.0070286.0632019.0093727.1264039.0093727.1896019z" fill="#df3260" data-original="#df3260" class=""/>
              </g>
            </g>
            <path d="m13.3994522 42.0693665s-.135293-1.0381851.8911171-1.7499046c1.0264273-.7117195 4.3850536-2.5645676 4.3850536-2.5645676s.4176197-.229393.2441101-.376442c0 0-.1000023-.1823425-.6705589.1676407-.5382099.3293915-3.9144831 2.2263451-3.9144831 2.2263451s-1.5322723.7205314-.9352388 2.2969284z" fill="#ffffff" opacity=".5" data-original="#ffffff" class=""/>
          </g>
          <g>
            <g>
              <g>
                <path d="m31.692112 37.391201-2.6846523 1.5494728c.2293739-.1380882.3698025-.4306641.3698025-.833252 0-.0608559-.0023422-.1240425-.0093575-.1872444-.0748997-.7911224-.6296196-1.6969299-1.3013687-2.0831337-.3393879-.1942558-.6506901-.2246857-.8824062-.1146851l2.65658-1.5377693c.8870792-.5079041 2.0199165-.2083015 2.5278358.6787758.0233994.0421295.046814.0866013.0678711.1287308.4142913.863678.0983009 1.9122582-.7443047 2.3991051z" fill="#ffd06c" data-original="#ffd06c"/>
              </g>
            </g>
            <path d="m31.692112 37.391201-2.6846523 1.5494728c.2293739-.1380882.3698025-.4306641.3698025-.833252 0-.0608559-.0023422-.1240425-.0093575-.1872444 1.4769135-.8777237 2.7408371-1.9614182 3.068512-2.9280815.4142913.863678.0983009 1.9122582-.7443047 2.3991051z" fill="#febc1f" data-original="#febc1f"/>
            <g>
              <g>
                <g>
                  <g>
                    <path d="m29.5250034 38.0231438c0 .3510895-.1076736.6155624-.2855606.7723923-.0023422 0-.0023422 0-.0023422.0023422-.0093575.004673-.0163727.0116997-.0234013.0187149l-.0257416.0163879c-.0093727.0093689-.0210724.0163841-.0327721.0234108-.0210724.0117035-.0421295.0234032-.0632.0351028l-2.010561 1.1609383-.1849155.1076584c-.2925739.1685295-.6085491.2481003-.9245224.2481003-.6389923 0-1.2615833-.3323593-1.6033154-.9245224-.0233994-.0421257-.046814-.0842705-.0655289-.1264-.4166317-.863678-.1006432-1.9146004.7443066-2.4014511 0 0 2.2165337-1.2826385 2.2516479-1.3036957.0093575-.0046844.016386-.0093727.0210571-.0116997.0046864-.0023422.0093727-.0046844.0093727-.0046844.016386-.0070305.0327721-.0140457.0491428-.0187302.2270451-.084259.5172768-.046814.83325.1357574.6694202.3885345 1.2264824 1.289669 1.3037109 2.0807762.0070289.063202.009373.1264001.009373.189602z" fill="#f45170" data-original="#f45170" class=""/>
                  </g>
                </g>
                <path d="m29.5250034 38.0231438c0 .3510895-.1076736.6155624-.2855606.7723923-.0023422 0-.0023422 0-.0023422.0023422-.0093575.004673-.0163727.0116997-.0234013.0187149l-.0257416.0163879c-.0093727.0093689-.0210724.0163841-.0327721.0234108-.0210724.0117035-.0421295.0234032-.0632.0351028l-2.010561 1.1609383-.1849155.1076584c-.2925739.1685295-.6085491.2481003-.9245224.2481003-.6389923 0-1.2615833-.3323593-1.6033154-.9245224-.0233994-.0421257-.046814-.0842705-.0655289-.1264.084259.0327721.1802158.0585136.2855453.0749016.8075085.1170273 2.1884632-.2668304 3.5904751-.9104958h.0023422c.4493904-.2059593.8987789-.4376869 1.3341255-.6881332.0070288.0632019.0093729.1264.0093729.1896019z" fill="#df3260" data-original="#df3260" class=""/>
              </g>
            </g>
            <path d="m24.5350418 39.2162018s-.1352921-1.0381851.8911171-1.7499046c1.0264263-.7117195 4.3850536-2.5645714 4.3850536-2.5645714s.4176197-.2293892.2441101-.3764381c0 0-.1000023-.1823425-.6705589.1676407-.5382099.3293915-3.9144821 2.2263451-3.9144821 2.2263451s-1.5322723.7205313-.9352398 2.2969283z" fill="#ffffff" opacity=".5" data-original="#ffffff" class=""/>
          </g>
          <g>
            <g>
              <g>
                <path d="m21.5289822 39.879776 2.6846523 1.5494728c-.2293739-.1380882-.3698025-.4306602-.3698025-.833252 0-.0608559.0023422-.1240425.0093575-.1872444.0748997-.7911186.6296196-1.6969261 1.3013687-2.0831299.3393879-.1942596.6506901-.2246895.8824062-.1146889l-2.65658-1.5377693c-.8870792-.5079041-2.0199165-.2083015-2.5278358.6787758-.0233994.0421295-.046814.0866013-.067873.1287308-.4142876.863678-.098299 1.9122582.7443066 2.3991051z" fill="#f45170" data-original="#f45170" class=""/>
              </g>
            </g>
            <path d="m21.5289822 39.879776 2.6846523 1.5494728c-.2293739-.1380882-.3698025-.4306602-.3698025-.833252 0-.0608559.0023422-.1240425.0093575-.1872444-1.4769135-.8777199-2.740839-1.9614143-3.0685139-2.9280815-.4142876.863678-.098299 1.9122582.7443066 2.3991051z" fill="#df3260" data-original="#df3260" class=""/>
            <g>
              <g>
                <g>
                  <g>
                    <path d="m23.6960907 40.5117188c0 .3510895.1076736.6155624.2855606.7723923.0023422 0 .0023422 0 .0023422.002346.0093575.0046692.0163727.0116997.0234013.0187111l.0257416.0163879c.0093727.0093727.0210724.0163841.0327721.0234146.0210724.0116997.0421295.0233994.0632.035099l2.010561 1.1609383.1849155.1076584c.2925739.1685295.6085491.2481041.9245224.2481041.6389923 0 1.2615833-.3323631 1.6033154-.9245224.0233994-.0421295.046814-.0842743.0655289-.1264038.4166317-.863678.1006432-1.9146004-.7443066-2.4014473 0 0-2.2165337-1.2826385-2.2516479-1.3036995-.0093575-.0046844-.016386-.0093689-.0210571-.0116997-.0046864-.0023422-.0093727-.0046844-.0093727-.0046844-.016386-.0070267-.0327721-.0140419-.0491428-.0187302-.2270451-.0842552-.5172768-.046814-.83325.1357613-.6694202.3885307-1.2264824 1.2896652-1.3037109 2.0807724-.0070289.0632019-.009373.1264038-.009373.1896019z" fill="#ffd06c" data-original="#ffd06c"/>
                  </g>
                </g>
                <path d="m23.6960907 40.5117188c0 .3510895.1076736.6155624.2855606.7723923.0023422 0 .0023422 0 .0023422.002346.0093575.0046692.0163727.0116997.0234013.0187111l.0257416.0163879c.0093727.0093727.0210724.0163841.0327721.0234146.0210724.0116997.0421295.0233994.0632.035099l2.010561 1.1609383.1849155.1076584c.2925739.1685295.6085491.2481041.9245224.2481041.6389923 0 1.2615833-.3323631 1.6033154-.9245224.0233994-.0421295.046814-.0842743.0655289-.1264038-.084259.0327721-.1802158.0585175-.2855453.0749016-.8075085.1170311-2.1884632-.2668304-3.5904751-.9104919 0 0 0 0-.0023422 0-.4493904-.2059593-.8987789-.4376907-1.3341255-.6881371-.0070288.0632019-.0093729.1264038-.0093729.1896019z" fill="#febc1f" data-original="#febc1f"/>
              </g>
            </g>
            <path d="m28.6860523 41.7047768s.1352921-1.0381851-.8911171-1.7499046c-1.0264263-.7117195-4.3850536-2.5645676-4.3850536-2.5645676s-.4176197-.2293892-.2441101-.376442c0 0 .1000023-.1823387.6705589.1676407.5382099.3293915 3.9144821 2.2263451 3.9144821 2.2263451s1.5322724.7205352.9352398 2.2969284z" fill="#ffffff" opacity=".5" data-original="#ffffff" class=""/>
          </g>
          <g>
            <g>
              <g>
                <path d="m29.9720821 34.7497444 2.6846523 1.5494728c-.2293739-.1380882-.3698044-.4306602-.3698044-.833252 0-.0608559.002346-.1240425.0093575-.1872444.0749016-.7911186.6296196-1.6969299 1.3013687-2.0831299.3393898-.1942596.650692-.2246895.8824081-.1146889l-2.65658-1.5377693c-.8870792-.507906-2.0199165-.2083035-2.5278358.6787758-.0234013.0421295-.046814.0866013-.067873.1287308-.4142875.863678-.0983009 1.9122582.7443066 2.3991051z" fill="#f45170" data-original="#f45170" class=""/>
              </g>
            </g>
            <path d="m29.9720821 34.7497444 2.6846523 1.5494728c-.2293739-.1380882-.3698044-.4306602-.3698044-.833252 0-.0608559.002346-.1240425.0093575-.1872444-1.4769115-.8777199-2.7408371-1.9614182-3.068512-2.9280815-.4142875.863678-.0983009 1.9122582.7443066 2.3991051z" fill="#df3260" data-original="#df3260" class=""/>
            <g>
              <g>
                <g>
                  <g>
                    <path d="m32.1391907 35.3816872c0 .3510895.1076736.6155624.2855606.7723923.0023422 0 .0023422 0 .0023422.0023422.0093575.004673.0163727.0116997.0233994.0187149l.0257454.0163879c.0093689.0093689.0210686.0163841.0327721.0234146.0210686.0116997.0421257.0233994.0631981.035099l2.0105629 1.1609383.1849136.1076584c.2925758.1685295.6085472.2481003.9245224.2481003.6389923 0 1.2615814-.3323593 1.6033134-.9245186.0233994-.0421295.046814-.0842743.0655289-.1264038.4166336-.863678.1006432-1.9146004-.7443047-2.4014473 0 0-2.2165337-1.2826424-2.2516479-1.3036995-.0093575-.0046844-.0163879-.0093689-.0210571-.0116997-.0046883-.0023422-.0093727-.0046844-.0093727-.0046844-.0163841-.0070305-.0327721-.0140419-.0491447-.0187302-.2270432-.0842552-.5172729-.046814-.8332481.1357574-.6694221.3885345-1.2264824 1.289669-1.3037109 2.0807762-.0070307.063202-.0093729.1264001-.0093729.189602z" fill="#ffd06c" data-original="#ffd06c"/>
                  </g>
                </g>
                <path d="m32.1391907 35.3816872c0 .3510895.1076736.6155624.2855606.7723923.0023422 0 .0023422 0 .0023422.0023422.0093575.004673.0163727.0116997.0233994.0187149l.0257454.0163879c.0093689.0093689.0210686.0163841.0327721.0234146.0210686.0116997.0421257.0233994.0631981.035099l2.0105629 1.1609383.1849136.1076584c.2925758.1685295.6085472.2481003.9245224.2481003.6389923 0 1.2615814-.3323593 1.6033134-.9245186.0233994-.0421295.046814-.0842743.0655289-.1264038-.0842552.0327721-.1802139.0585175-.2855453.0749016-.8075066.1170311-2.1884613-.2668304-3.5904732-.9104919 0 0 0 0-.0023422 0-.4493904-.2059593-.8987808-.4376907-1.3341255-.6881371-.0070306.0632019-.0093728.1264-.0093728.1896019z" fill="#febc1f" data-original="#febc1f"/>
              </g>
            </g>
            <path d="m37.1291504 36.5747452s.1352959-1.0381851-.8911133-1.7499046c-1.0264282-.7117195-4.3850574-2.5645676-4.3850574-2.5645676s-.4176178-.229393-.2441082-.376442c0 0 .1000023-.1823406.6705589.1676407.538208.3293915 3.9144821 2.2263451 3.9144821 2.2263451s1.5322723.7205314.9352379 2.2969284z" fill="#ffffff" opacity=".5" data-original="#ffffff" class=""/>
          </g>
          <g>
            <g>
              <g>
                <path d="m27.7758102 34.7497444-2.6846523 1.5494728c.2293739-.1380882.3698025-.4306602.3698025-.833252 0-.0608559-.0023422-.1240425-.0093575-.1872444-.0748997-.7911186-.6296196-1.6969299-1.3013668-2.0831299-.3393898-.1942596-.650692-.2246895-.8824081-.1146889l2.65658-1.5377693c.8870792-.507906 2.0199184-.2083035 2.5278358.6787758.0234013.0421295.0468159.0866013.067873.1287308.4142895.863678.0983009 1.9122582-.7443066 2.3991051z" fill="#f45170" data-original="#f45170" class=""/>
              </g>
            </g>
            <path d="m27.7758102 34.7497444-2.6846523 1.5494728c.2293739-.1380882.3698025-.4306602.3698025-.833252 0-.0608559-.0023422-.1240425-.0093575-.1872444 1.4769135-.8777199 2.740839-1.9614182 3.0685139-2.9280815.4142895.863678.0983009 1.9122582-.7443066 2.3991051z" fill="#df3260" data-original="#df3260" class=""/>
            <g>
              <g>
                <g>
                  <g>
                    <path d="m25.6087017 35.3816872c0 .3510895-.1076717.6155624-.2855606.7723923-.0023422 0-.0023422 0-.0023422.0023422-.0093575.004673-.0163708.0116997-.0233994.0187149l-.0257435.0163879c-.0093727.0093689-.0210724.0163841-.0327721.0234146-.0210724.0116997-.0421295.0233994-.0632.035099l-2.010561 1.1609383-.1849155.1076584c-.2925739.1685295-.6085491.2481003-.9245224.2481003-.6389923 0-1.2615833-.3323593-1.6033134-.9245186-.0234013-.0421295-.0468159-.0842743-.0655308-.1264038-.4166317-.863678-.1006432-1.9146004.7443066-2.4014473 0 0 2.2165337-1.2826424 2.2516499-1.3036995.0093555-.0046844.0163841-.0093689.0210571-.0116997.0046844-.0023422.0093708-.0046844.0093708-.0046844.016386-.0070305.0327721-.0140419.0491428-.0187302.2270451-.0842552.5172768-.046814.83325.1357574.6694202.3885345 1.2264824 1.289669 1.3037109 2.0807762.0070287.063202.0093728.1264001.0093728.189602z" fill="#ffd06c" data-original="#ffd06c"/>
                  </g>
                </g>
                <path d="m25.6087017 35.3816872c0 .3510895-.1076717.6155624-.2855606.7723923-.0023422 0-.0023422 0-.0023422.0023422-.0093575.004673-.0163708.0116997-.0233994.0187149l-.0257435.0163879c-.0093727.0093689-.0210724.0163841-.0327721.0234146-.0210724.0116997-.0421295.0233994-.0632.035099l-2.010561 1.1609383-.1849155.1076584c-.2925739.1685295-.6085491.2481003-.9245224.2481003-.6389923 0-1.2615833-.3323593-1.6033134-.9245186-.0234013-.0421295-.0468159-.0842743-.0655308-.1264038.084259.0327721.1802158.0585175.2855453.0749016.8075085.1170311 2.1884632-.2668304 3.5904751-.9104919h.0023422c.4493904-.2059593.8987789-.4376907 1.3341255-.6881371.0070287.0632019.0093728.1264.0093728.1896019z" fill="#febc1f" data-original="#febc1f"/>
              </g>
            </g>
            <path d="m20.6187401 36.5747452s-.1352921-1.0381851.8911171-1.7499046c1.0264282-.7117195 4.3850555-2.5645676 4.3850555-2.5645676s.4176178-.229393.2441082-.376442c0 0-.1000023-.1823406-.6705589.1676407-.5382099.3293915-3.9144821 2.2263451-3.9144821 2.2263451s-1.5322724.7205314-.9352398 2.2969284z" fill="#ffffff" opacity=".5" data-original="#ffffff" class=""/>
          </g>
          <g>
            <g>
              <g>
                <path d="m19.5884533 36.3484917-2.6846523 1.549469c.2293739-.1380844.3698044-.4306602.3698044-.8332481 0-.0608597-.0023441-.1240463-.0093575-.1872444-.0749016-.7911224-.6296196-1.6969299-1.3013687-2.0831337-.3393888-.1942596-.650691-.2246857-.8824072-.1146851l2.656579-1.5377731c.8870792-.5079041 2.0199184-.2083015 2.5278378.6787796.0233994.0421295.046814.0866013.0678711.1287308.4142894.8636779.0983009 1.912258-.7443066 2.399105z" fill="#f45170" data-original="#f45170" class=""/>
              </g>
            </g>
            <path d="m19.5884533 36.3484917-2.6846523 1.549469c.2293739-.1380844.3698044-.4306602.3698044-.8332481 0-.0608597-.0023441-.1240463-.0093575-.1872444 1.4769135-.8777237 2.7408371-1.9614182 3.068512-2.9280815.4142894.8636779.0983009 1.912258-.7443066 2.399105z" fill="#df3260" data-original="#df3260" class=""/>
            <g>
              <g>
                <g>
                  <g>
                    <path d="m17.4213448 36.9804344c0 .3510895-.1076717.6155624-.2855587.7723923-.0023441 0-.0023441 0-.0023441.0023422-.0093555.004673-.0163708.0116997-.0233994.0187149l-.0257435.0163841c-.0093708.0093727-.0210705.0163879-.0327721.0234146-.0210705.0116997-.0421276.0234032-.0632.0351028l-2.01056 1.1609383-.1849155.1076584c-.2925739.1685295-.6085482.2481003-.9245224.2481003-.6389914 0-1.2615824-.3323593-1.6033144-.9245224-.0234003-.0421295-.0468149-.0842705-.0655289-.1264-.4166327-.863678-.1006441-1.9146042.7443066-2.4014511 0 0 2.2165337-1.2826385 2.2516479-1.3036957.0093575-.0046844.016386-.0093727.0210571-.0116997.0046864-.0023422.0093718-.0046844.0093718-.0046844.016386-.0070305.0327721-.0140457.0491428-.0187302.2270451-.084259.5172768-.046814.833251.1357574.6694202.3885307 1.2264824 1.289669 1.3037109 2.0807762.0070286.063202.0093709.1264001.0093709.189602z" fill="#ffd06c" data-original="#ffd06c"/>
                  </g>
                </g>
                <path d="m17.4213448 36.9804344c0 .3510895-.1076717.6155624-.2855587.7723923-.0023441 0-.0023441 0-.0023441.0023422-.0093555.004673-.0163708.0116997-.0233994.0187149l-.0257435.0163841c-.0093708.0093727-.0210705.0163879-.0327721.0234146-.0210705.0116997-.0421276.0234032-.0632.0351028l-2.01056 1.1609383-.1849155.1076584c-.2925739.1685295-.6085482.2481003-.9245224.2481003-.6389914 0-1.2615824-.3323593-1.6033144-.9245224-.0234003-.0421295-.0468149-.0842705-.0655289-.1264.0842581.0327721.1802158.0585136.2855453.0749016.8075066.1170273 2.1884613-.2668304 3.5904732-.9104958h.0023441c.4493885-.2059593.8987789-.4376869 1.3341255-.6881332.0070286.0632019.0093709.1264.0093709.1896019z" fill="#febc1f" data-original="#febc1f"/>
              </g>
            </g>
            <path d="m12.431385 38.1734886s-.135293-1.0381813.8911161-1.7499008c1.0264273-.7117195 4.3850546-2.5645714 4.3850546-2.5645714s.4176178-.2293892.2441082-.3764381c0 0-.1000023-.1823425-.670557.1676369-.5382099.3293953-3.9144831 2.2263489-3.9144831 2.2263489s-1.5322723.7205314-.9352388 2.2969245z" fill="#ffffff" opacity=".5" data-original="#ffffff" class=""/>
          </g>
        </g>
        <g opacity=".25">
          <path d="m38.7783775 27.0599995-.0611954 13.5353031c0 2.0298424-1.3361931 4.0596237-4.0187874 5.6099739-5.3549786 3.1110382-14.0861397 3.1110382-19.4921036 0-1.8359804-1.0709801-3.049778-2.3561859-3.6413927-3.7229462-.2855663-.642601-.428381-1.315773-.428381-1.9685822l.0611973-13.4537487h27.5806628z" fill="#b28afd" data-original="#b28afd" class=""/>
        </g>
      </g>
      <g>
        <path d="m18.4583855 28.9889488c-.9833088 0-1.858469.3835049-2.4877405 1.0324631-.6490183.6293335-1.0325232 1.5044918-1.0325232 2.4878006 0-1.937149-1.5732708-3.5202637-3.5202045-3.5202637.963624 0 1.8584089-.4031296 2.4975843-1.0226192.6194897-.6391754 1.0226202-1.5339603 1.0226202-2.4976444 0 .9636841.3835049 1.858469 1.0325232 2.4976444.6292715.6194896 1.5044317 1.0226192 2.4877405 1.0226192z" fill="#ffffff" data-original="#ffffff" class=""/>
      </g>
    </g>
  </g>
</svg>
