<?xml version="1.0" encoding="UTF-8"?>
<svg xmlns="http://www.w3.org/2000/svg" xmlns:xlink="http://www.w3.org/1999/xlink" xmlns:svgjs="http://svgjs.com/svgjs" version="1.1" width="512" height="512" x="0" y="0" viewBox="0 0 510 510" style="enable-background:new 0 0 512 512" xml:space="preserve" class="">
  <g>
    <linearGradient id="lg1">
      <stop offset="0" stop-color="#f8f6fb"/>
      <stop offset="1" stop-color="#efdcfb"/>
    </linearGradient>
    <linearGradient id="SVGID_1_" gradientTransform="matrix(.707 .707 -.707 .707 411.433 -357.293)" gradientUnits="userSpaceOnUse" x1="294.164" x2="426.259" xlink:href="#lg1" y1="512.868" y2="512.868"/>
    <linearGradient id="SVGID_2_" gradientUnits="userSpaceOnUse" x1="306.603" x2="-25.701" y1="396.843" y2="64.539">
      <stop stop-opacity="1" stop-color="#efdcfb" offset="0"/>
      <stop stop-opacity="1" stop-color="#baaad6" offset="0.4856"/>
      <stop stop-opacity="1" stop-color="#8477b0" offset="1"/>
    </linearGradient>
    <linearGradient id="SVGID_3_" gradientTransform="matrix(.707 .707 -.707 .707 411.433 -357.293)" gradientUnits="userSpaceOnUse" x1="294.164" x2="426.259" y1="623.924" y2="623.924">
      <stop offset="0" stop-color="#65e0db"/>
      <stop offset=".185" stop-color="#5edad4"/>
      <stop offset=".457" stop-color="#4ac9c0"/>
      <stop offset=".7811" stop-color="#2bada0"/>
      <stop offset="1" stop-color="#119786"/>
    </linearGradient>
    <linearGradient id="SVGID_4_" gradientTransform="matrix(.707 .707 -.707 .707 411.433 -357.293)" gradientUnits="userSpaceOnUse" x1="400.505" x2="493.157" y1="595.8" y2="755.72">
      <stop offset="0" stop-color="#119786" stop-opacity="0"/>
      <stop offset="1" stop-color="#119786"/>
    </linearGradient>
    <linearGradient id="lg2">
      <stop offset="0" stop-color="#fff" stop-opacity="0"/>
      <stop offset="1" stop-color="#fff"/>
    </linearGradient>
    <linearGradient id="SVGID_5_" gradientTransform="matrix(.707 .707 -.707 .707 411.433 -357.293)" gradientUnits="userSpaceOnUse" x1="351.645" x2="175.225" xlink:href="#lg2" y1="509.214" y2="411.486"/>
    <linearGradient id="SVGID_6_" gradientUnits="userSpaceOnUse" x1="60.922" x2="193.017" xlink:href="#lg1" y1="223.902" y2="223.902"/>
    <linearGradient id="SVGID_7_" gradientUnits="userSpaceOnUse" x1="60.922" x2="193.017" y1="334.958" y2="334.958">
      <stop offset="0" stop-color="#ffd945"/>
      <stop offset="1" stop-color="#ffa325"/>
    </linearGradient>
    <linearGradient id="SVGID_8_" gradientUnits="userSpaceOnUse" x1="167.263" x2="259.915" y1="306.834" y2="466.754">
      <stop offset="0" stop-color="#e87264" stop-opacity="0"/>
      <stop offset="1" stop-color="#ff7044"/>
    </linearGradient>
    <linearGradient id="SVGID_9_" gradientUnits="userSpaceOnUse" x1="118.403" x2="-58.017" xlink:href="#lg2" y1="220.249" y2="122.52"/>
    <linearGradient id="lg3">
      <stop offset="0" stop-color="#ff819c"/>
      <stop offset=".2594" stop-color="#ff7e9a"/>
      <stop offset=".4757" stop-color="#fe7396"/>
      <stop offset=".6765" stop-color="#fc628e"/>
      <stop offset=".8668" stop-color="#fa4a83"/>
      <stop offset="1" stop-color="#f83479"/>
    </linearGradient>
    <linearGradient id="SVGID_10_" gradientUnits="userSpaceOnUse" x1="452.992" x2="452.992" xlink:href="#lg3" y1="365.631" y2="388.574"/>
    <linearGradient id="SVGID_11_" gradientUnits="userSpaceOnUse" x1="341.936" x2="341.936" xlink:href="#lg3" y1="365.631" y2="388.574"/>
    <linearGradient id="SVGID_12_" gradientUnits="userSpaceOnUse" x1="397.464" x2="397.464" xlink:href="#lg3" y1="396.092" y2="459.574"/>
    <linearGradient id="SVGID_13_" gradientUnits="userSpaceOnUse" x1="380.135" x2="318.367" y1="432.653" y2="409.808">
      <stop offset="0" stop-color="#f82814" stop-opacity="0"/>
      <stop offset="1" stop-color="#c0272d"/>
    </linearGradient>
    <linearGradient id="SVGID_14_" gradientUnits="userSpaceOnUse" x1="187.833" x2="334.741" xlink:href="#lg3" y1="350.616" y2="497.523"/>
    <linearGradient id="SVGID_15_" gradientTransform="matrix(-1 0 0 -1 1678 200)" gradientUnits="userSpaceOnUse" x1="1408.899" x2="1537.307" xlink:href="#lg3" y1="-231.884" y2="-103.476"/>
    <linearGradient id="SVGID_16_" gradientUnits="userSpaceOnUse" x1="198.032" x2="310.389" xlink:href="#lg3" y1="360.814" y2="473.172"/>
    <linearGradient id="SVGID_17_" gradientUnits="userSpaceOnUse" x1="231.198" x2="231.198" xlink:href="#lg3" y1="436.287" y2="361.75"/>
    <g>
      <g>
        <path d="m140.564 411.256c-46.344-46.344-46.344-121.482 0-167.826l146.286-146.287c46.344-46.344 121.482-46.344 167.826 0 46.344 46.344 46.344 121.482 0 167.826l-146.287 146.287c-46.343 46.344-121.481 46.344-167.825 0z" fill="url(#SVGID_1_)" data-original="url(#SVGID_1_)"/>
        <path d="m237.103 146.89-96.539 96.54c-46.344 46.344-46.344 121.482 0 167.826 46.344 46.344 121.482 46.344 167.826 0l96.539-96.539z" fill="url(#SVGID_2_)" data-original="url(#SVGID_2_)"/>
        <path d="m213.707 170.286-73.143 73.143c-46.344 46.344-46.344 121.482 0 167.826 46.344 46.344 121.482 46.344 167.826 0l73.143-73.143z" fill="url(#SVGID_3_)" data-original="url(#SVGID_3_)"/>
        <path d="m485.654 151.303c-3.364 24.834-14.582 48.807-33.67 67.895l-146.287 146.287c-46.344 46.344-121.482 46.344-167.826 0-15.539-15.539-25.859-34.317-30.978-54.16-4.804 35.46 6.415 72.675 33.67 99.93 46.344 46.344 121.482 46.344 167.826 0l146.287-146.287c30.805-30.804 41.125-74.329 30.978-113.665z" fill="url(#SVGID_4_)" data-original="url(#SVGID_4_)"/>
        <path d="m454.676 264.969-146.286 146.287c-45.914 45.914-120.099 46.345-166.534 1.256-.431-.413-.871-.835-1.292-1.256-.422-.422-.844-.862-1.256-1.292-26-27.346-25.587-70.586 1.256-97.429l215.391-215.392c26.843-26.843 70.083-27.256 97.429-1.256.431.413.871.835 1.292 1.256s.844.862 1.256 1.292c22.338 23.002 33.511 52.807 33.511 82.621.001 30.37-11.594 60.74-34.767 83.913z" fill="url(#SVGID_5_)" data-original="url(#SVGID_5_)"/>
      </g>
      <g>
        <path d="m118.671 446.014c-65.54 0-118.671-53.131-118.671-118.671v-206.881c0-65.54 53.131-118.671 118.671-118.671 65.54 0 118.671 53.131 118.671 118.671v206.881c0 65.54-53.131 118.671-118.671 118.671z" fill="url(#SVGID_6_)" data-original="url(#SVGID_6_)"/>
        <path d="m0 223.902v103.44c0 65.54 53.131 118.671 118.671 118.671 65.54 0 118.671-53.131 118.671-118.671v-103.44z" fill="url(#SVGID_7_)" data-original="url(#SVGID_7_)"/>
        <path d="m178.872 18.183c15.181 19.939 24.201 44.823 24.201 71.818v206.881c0 65.54-53.131 118.671-118.671 118.671-21.975 0-42.551-5.98-60.201-16.392 21.677 28.471 55.924 46.853 94.47 46.853 65.54 0 118.671-53.131 118.671-118.671v-206.881c0-43.565-23.48-81.639-58.47-102.279z" fill="url(#SVGID_8_)" data-original="url(#SVGID_8_)"/>
        <path d="m237.342 120.462v206.881c0 64.933-52.152 117.694-116.869 118.645-.596.013-1.206.025-1.802.025s-1.206-.013-1.802-.025c-37.721-.952-68.004-31.819-68.004-69.781v-304.609c0-37.962 30.283-68.829 68.004-69.781.596-.013 1.206-.025 1.802-.025s1.206.013 1.802.025c32.06.47 61.036 13.644 82.118 34.726 21.475 21.474 34.751 51.148 34.751 83.919z" fill="url(#SVGID_9_)" data-original="url(#SVGID_9_)"/>
      </g>
      <g>
        <g>
          <path d="m487.577 374.515h-70.97c-3.213 0-5.817 2.604-5.817 5.817v13.221h84.402v-11.423c.001-4.206-3.409-7.615-7.615-7.615z" fill="url(#SVGID_10_)" data-original="url(#SVGID_10_)"/>
          <path d="m378.32 374.515h-70.97c-4.206 0-7.615 3.409-7.615 7.615v11.423h84.402v-13.221c0-3.213-2.604-5.817-5.817-5.817z" fill="url(#SVGID_11_)" data-original="url(#SVGID_11_)"/>
        </g>
        <path d="m496.885 446.014h-198.842c-7.243 0-13.115-5.872-13.115-13.115v-32.999c0-7.243 5.872-13.115 13.115-13.115h198.842c7.243 0 13.115 5.872 13.115 13.115v32.999c0 7.243-5.872 13.115-13.115 13.115z" fill="url(#SVGID_12_)" data-original="url(#SVGID_12_)"/>
      </g>
      <path d="m343.518 374.515h-36.168c-4.206 0-7.615 3.409-7.615 7.615v4.654h-1.692c-7.243 0-13.115 5.872-13.115 13.115v32.999c0 7.243 5.872 13.115 13.115 13.115h116.975z" fill="url(#SVGID_13_)" data-original="url(#SVGID_13_)"/>
      <g>
        <circle cx="231.198" cy="393.98" fill="url(#SVGID_14_)" r="114.229" data-original="url(#SVGID_14_)"/>
        <circle cx="231.198" cy="393.98" fill="url(#SVGID_15_)" r="99.844" data-original="url(#SVGID_15_)"/>
        <circle cx="231.198" cy="393.98" fill="url(#SVGID_16_)" r="87.364" data-original="url(#SVGID_16_)"/>
        <path d="m143.834 393.98c0 8.369 1.201 16.452 3.398 24.115h167.931c2.197-7.663 3.398-15.746 3.398-24.115s-1.201-16.452-3.398-24.115h-167.931c-2.197 7.663-3.398 15.746-3.398 24.115z" fill="url(#SVGID_17_)" data-original="url(#SVGID_17_)"/>
      </g>
    </g>
  </g>
</svg>
