<svg width="49" height="48" viewBox="0 0 49 48" fill="none" xmlns="http://www.w3.org/2000/svg">
<path d="M42.8448 0.794075H6.90476C3.57448 0.794075 0.874756 3.71102 0.874756 7.30925V41.2789C0.874756 44.8771 3.57448 47.7941 6.90476 47.7941H42.8448C46.175 47.7941 48.8748 44.8771 48.8748 41.2789V7.30925C48.8748 3.71102 46.175 0.794075 42.8448 0.794075Z" fill="#A50064"/>
<path d="M35.4923 6.67761C31.1787 6.67761 27.6822 10.2232 27.6822 14.5926C27.6822 18.962 31.1878 22.5076 35.4923 22.5076C39.7968 22.5076 43.3115 18.962 43.3115 14.5926C43.3115 10.2232 39.815 6.67761 35.4923 6.67761ZM35.4923 17.9696C34.6286 17.9864 33.794 17.6406 33.1718 17.0083C32.5495 16.376 32.1906 15.5089 32.1738 14.5974C32.2184 13.7003 32.5875 12.8555 33.2049 12.2372C33.8224 11.6188 34.6411 11.2741 35.4923 11.2741C36.3435 11.2741 37.1622 11.6188 37.7797 12.2372C38.3971 12.8555 38.7662 13.7003 38.8108 14.5974C38.794 15.5089 38.4351 16.376 37.8128 17.0083C37.1906 17.6406 36.3559 17.9864 35.4923 17.9696V17.9696ZM25.4501 12.6223V22.5413H20.9402V12.5741C20.9402 12.2036 20.8007 11.8483 20.5525 11.5863C20.3042 11.3243 19.9675 11.1771 19.6164 11.1771C19.2654 11.1771 18.9287 11.3243 18.6804 11.5863C18.4322 11.8483 18.2927 12.2036 18.2927 12.5741V22.5413H13.8011V12.5741C13.8011 12.2036 13.6616 11.8483 13.4134 11.5863C13.1651 11.3243 12.8284 11.1771 12.4773 11.1771C12.1262 11.1771 11.7895 11.3243 11.5413 11.5863C11.293 11.8483 11.1536 12.2036 11.1536 12.5741V22.5413H6.67566V12.6223C6.70922 11.014 7.34538 9.48534 8.44479 8.3711C9.5442 7.25686 11.0172 6.6479 12.5412 6.67761C13.8029 6.67487 15.033 7.09302 16.056 7.87233C17.0781 7.09488 18.3063 6.67687 19.5662 6.67761C21.093 6.64401 22.5701 7.2511 23.6732 8.36562C24.7763 9.48014 25.4153 11.011 25.4501 12.6223V12.6223ZM35.4923 25.9135C31.1787 25.9135 27.6822 29.4543 27.6822 33.8285C27.6822 38.2027 31.1878 41.758 35.4923 41.758C39.7968 41.758 43.3024 38.2172 43.3024 33.8478C43.3024 29.4784 39.815 25.9135 35.4923 25.9135ZM35.4923 37.2055C34.8661 37.18 34.2609 36.9608 33.7519 36.5751C33.2429 36.1894 32.8526 35.6542 32.6296 35.0362C32.4065 34.4183 32.3606 33.7447 32.4974 33.0993C32.6343 32.454 32.9479 31.8654 33.3993 31.4067C33.8507 30.948 34.4199 30.6395 35.0361 30.5196C35.6523 30.3997 36.2884 30.4736 36.8651 30.7322C37.4418 30.9908 37.9337 31.4227 38.2797 31.9741C38.6256 32.5255 38.8103 33.172 38.8108 33.8333C38.8049 34.2863 38.7142 34.7335 38.544 35.1494C38.3739 35.5653 38.1275 35.9416 37.8192 36.2567C37.5108 36.5718 37.1466 36.8196 36.7472 36.9857C36.3479 37.1518 35.9214 37.2331 35.4923 37.2248V37.2055ZM25.4501 31.8775V41.7773H20.9402V31.8245C20.9402 31.454 20.8007 31.0986 20.5525 30.8366C20.3042 30.5746 19.9675 30.4274 19.6164 30.4274C19.2654 30.4274 18.9287 30.5746 18.6804 30.8366C18.4322 31.0986 18.2927 31.454 18.2927 31.8245V41.7773H13.8011V31.8245C13.8011 31.454 13.6616 31.0986 13.4134 30.8366C13.1651 30.5746 12.8284 30.4274 12.4773 30.4274C12.1262 30.4274 11.7895 30.5746 11.5413 30.8366C11.293 31.0986 11.1536 31.454 11.1536 31.8245V41.7773H6.67566V31.8775C6.68932 31.0793 6.85192 30.2917 7.15417 29.5599C7.45641 28.8281 7.89238 28.1663 8.43714 27.6124C8.98189 27.0585 9.62475 26.6234 10.329 26.3319C11.0332 26.0404 11.7849 25.8982 12.5412 25.9135C13.8021 25.9114 15.0316 26.3276 16.056 27.1034C17.0783 26.3268 18.3067 25.9104 19.5662 25.9135C20.3239 25.8963 21.0773 26.037 21.7834 26.3275C22.4895 26.6181 23.1342 27.0529 23.6808 27.6069C24.2274 28.1609 24.665 28.8233 24.9686 29.5561C25.2722 30.289 25.4358 31.0778 25.4501 31.8775V31.8775Z" fill="white"/>
</svg>
