<?xml version="1.0" encoding="UTF-8"?>
<svg xmlns="http://www.w3.org/2000/svg" xmlns:xlink="http://www.w3.org/1999/xlink" xmlns:svgjs="http://svgjs.com/svgjs" version="1.1" width="512" height="512" x="0" y="0" viewBox="0 0 6827 6827" style="enable-background:new 0 0 512 512" xml:space="preserve" class="">
  <g>
    <linearGradient xmlns="http://www.w3.org/2000/svg" id="id0" gradientUnits="userSpaceOnUse" x1="3413.33" x2="3413.33" y1="5980.4" y2="838.957">
      <stop stop-opacity="1" stop-color="#dadada" offset="0"/>
      <stop stop-opacity="1" stop-color="#ffaf48" offset="1"/>
    </linearGradient>
    <g xmlns="http://www.w3.org/2000/svg" id="Layer_x0020_1">
      <path d="m2475 3198c26 15 34 47 20 73-15 26-47 34-73 20-216-123-391-300-511-508-121-208-187-447-187-696 0-260 73-509 204-723s319-392 551-511c26-13 58-3 71 23s3 58-23 71c-214 110-388 274-508 472-121 197-188 427-188 668 0 230 62 451 173 643s273 355 472 469zm1265 2675-674-576-76 576zm-767-685c0-1 0-3 1-4l144-1082c0-3 1-6 1-8l223-1680c-68-12-130-46-177-93-61-61-98-144-98-237s38-176 98-237c61-61 144-98 237-98s176 38 237 98c61 61 98 144 98 237s-38 176-98 237c-47 47-108 80-177 93l301 2222v3l167 1235h2043c29 0 53 24 53 53s-24 53-53 53h-2089-1-955-1-2074c-29 0-53-24-53-53s24-53 53-53h2029l91-685zm123-119 534-429-421-421zm150-1128 268-300 6-6-118-870-156 1175zm292-168-295 330 393 393-98-722zm132 972-561 450 703 601zm239-2139c-26 14-58 4-72-22s-4-58 22-72c78-42 141-104 185-177s68-158 68-247c0-86-23-169-64-241s-101-133-176-176c-25-15-34-47-19-73 15-25 47-34 73-19 91 53 164 128 214 215 51 88 79 189 79 293 0 108-30 212-83 301-53 90-131 165-226 216zm174 357c-27 11-58-1-70-28-11-27 1-58 28-70 155-65 283-174 372-308s139-294 139-462c0-163-47-319-132-451-84-132-206-240-354-308-27-12-38-44-26-71s44-38 71-26c167 77 304 199 399 348s149 324 149 508c0 189-57 370-157 521s-244 274-419 347zm322 336c-26 15-58 6-73-20s-6-58 20-73c200-114 361-277 472-469s173-413 173-643c0-240-67-470-188-668s-295-362-508-472c-26-13-36-45-23-71s45-36 71-23c232 119 420 297 551 511s204 463 204 723c0 249-67 488-187 696-121 208-295 385-511 508zm-1165-1376c-41 41-67 98-67 162 0 63 26 120 67 162 41 41 98 67 162 67 63 0 120-26 162-67 41-41 67-98 67-162 0-63-26-120-67-162-41-41-98-67-162-67-63 0-120 26-162 67zm-271 582c26 14 36 46 22 72s-46 36-72 22c-95-51-172-127-226-216-54-90-83-194-83-301 0-105 28-205 79-293s124-163 214-215c25-15 58-6 73 19s6 58-19 73c-74 43-134 104-176 176-41 72-64 154-64 241 0 89 24 174 68 247s107 135 185 177zm-183 352c27 11 40 43 28 70-11 27-43 40-70 28-175-74-319-196-419-347s-157-332-157-521c0-184 54-359 149-508s232-271 399-348c27-12 58-1 71 26 12 27 1 58-26 71-148 68-270 177-354 308-84 132-132 287-132 451 0 168 50 328 139 462s217 243 372 308z" fill="url(#id0)" fill-rule="nonzero" data-original="url(#id0)"/>
    </g>
  </g>
</svg>
