<?xml version="1.0" encoding="UTF-8"?>
<svg xmlns="http://www.w3.org/2000/svg" xmlns:xlink="http://www.w3.org/1999/xlink" xmlns:svgjs="http://svgjs.com/svgjs" version="1.1" width="512" height="512" x="0" y="0" viewBox="0 0 64 64" style="enable-background:new 0 0 512 512" xml:space="preserve" class="">
  <g>
    <g xmlns="http://www.w3.org/2000/svg" id="Exp-1.-O">
      <path d="m42.399 34.23c.009-.237-.148-.447-.378-.505-.229-.058-.467.053-.571.266-1.663 3.413-4.983 6.246-7.516 7.513-.211.106-.319.344-.26.572.058.228.268.384.504.375 1.165-.046 2.7.033 4.497.452.268.062.536-.104.6-.372.516-2.181 2.009-2.935 3.199-3.203.129-.029.242-.109.313-.222s.094-.25.063-.379c-.418-1.797-.497-3.331-.451-4.497z" fill="#dddddd" data-original="#2d74ff"/>
      <path d="m18.432 15.195c-.914.431-2.654 1.957-3.609 3.61-.928 1.607-1.417 3.457-1.419 4.717 0 .276.223.501.499.501s.501-.223.501-.499c.002-1.129.454-2.78 1.285-4.219.843-1.46 2.362-2.825 3.169-3.205.25-.118.357-.416.239-.665-.117-.25-.415-.357-.665-.24z" fill="#ff9900" data-original="#738bab" class=""/>
      <path d="m14.925 14.977c5.854-5.854 15.359-5.854 21.213 0s5.854 15.359 0 21.213-15.359 5.854-21.213 0c-4.799-4.799-5.664-12.051-2.595-17.735.131-.242.04-.546-.203-.677-.242-.131-.546-.041-.677.202-3.274 6.062-2.351 13.798 2.768 18.917 6.244 6.244 16.383 6.244 22.627 0s6.244-16.383 0-22.627-16.383-6.244-22.627 0c-.195.195-.195.512 0 .707s.512.195.707 0z" fill="#ff9900" data-original="#738bab" class=""/>
      <path d="m42.956 30.1c-.776 3.009-2.342 5.857-4.697 8.211-7.024 7.025-18.431 7.025-25.455 0-7.025-7.024-7.025-18.431 0-25.455 7.024-7.025 18.431-7.025 25.455 0 3.633 3.632 5.387 8.436 5.263 13.2-.008.276.211.506.486.513.276.007.506-.211.513-.487.131-5.029-1.72-10.099-5.555-13.934-7.415-7.415-19.455-7.415-26.87 0s-7.415 19.456 0 26.871 19.455 7.415 26.87 0c2.486-2.486 4.139-5.492 4.958-8.669.069-.268-.092-.54-.359-.609-.268-.069-.54.092-.609.359z" fill="#ff9900" data-original="#738bab" class=""/>
      <path d="m60.452 54.847c-.028.098-.102.335-.203.524-.387.724-1.179 1.728-2.191 2.739-1.011 1.012-2.015 1.804-2.739 2.191-.189.101-.426.175-.524.203l-11.885-11.885c-.195-.195-.512-.195-.707 0s-.195.512 0 .707l11.966 11.966c.21.211.638.313 1.22.081.794-.318 2.086-1.265 3.376-2.555 1.291-1.291 2.238-2.583 2.555-3.377.233-.582.13-1.01-.08-1.22 0 0-14.495-14.495-14.495-14.495-1.953-1.953-5.119-1.953-7.071 0 0 0-.143.143 0 0-1.953 1.952-1.953 5.118 0 7.071.195.195.512.195.707 0s.195-.512 0-.707c-1.562-1.563-1.562-4.095 0-5.657-.094.094 0 0 0 0 1.562-1.562 4.094-1.562 5.657 0z" fill="#ff9900" data-original="#738bab" class=""/>
      <g fill="#2d74ff">
        <path d="m23.193 22.435c-.023-.953.334-1.649.887-2.057.868-.64 2.164-.613 2.868.18.303.341.478.823.483 1.433.012 1.463-.674 2.318-1.346 3.203-.904 1.193-1.807 2.419-1.919 4.466-.03.552.393 1.023.944 1.053.552.03 1.023-.393 1.053-.944.085-1.555.829-2.461 1.516-3.367.92-1.213 1.768-2.423 1.752-4.427-.01-1.178-.403-2.087-.987-2.745-1.365-1.536-3.87-1.702-5.551-.462-1.008.744-1.741 1.976-1.7 3.714.013.552.472.989 1.024.976.551-.013.989-.471.976-1.023z" fill="#dddddd" data-original="#2d74ff"/>
        <circle cx="25.072" cy="33.197" r="1.23" fill="#dddddd" data-original="#2d74ff"/>
        <path d="m43.288 8.497 3-5c.284-.473.131-1.088-.343-1.372-.473-.283-1.088-.13-1.372.343l-3 5c-.284.474-.13 1.089.343 1.372.474.284 1.088.131 1.372-.343z" fill="#dddddd" data-original="#2d74ff"/>
        <path d="m48.019 11.792 11-8c.446-.325.545-.951.221-1.397-.325-.447-.951-.545-1.397-.221l-11 8c-.447.325-.545.951-.221 1.397.325.447.951.545 1.397.221z" fill="#dddddd" data-original="#2d74ff"/>
        <path d="m49.673 17.953 8-2c.536-.134.862-.677.728-1.213-.134-.535-.677-.861-1.213-.727l-8 2c-.535.134-.861.677-.727 1.213.134.535.677.861 1.212.727z" fill="#dddddd" data-original="#2d74ff"/>
      </g>
    </g>
  </g>
</svg>
