<?xml version="1.0" encoding="UTF-8"?>
<svg xmlns="http://www.w3.org/2000/svg" xmlns:xlink="http://www.w3.org/1999/xlink" xmlns:svgjs="http://svgjs.com/svgjs" version="1.1" width="512" height="512" x="0" y="0" viewBox="0 0 64 64" style="enable-background:new 0 0 512 512" xml:space="preserve" class="">
  <g>
    <g xmlns="http://www.w3.org/2000/svg" id="Exp-1.-O">
      <path d="m24.407 53.736-.296-2.374c-.034-.274-.284-.468-.558-.434s-.468.284-.434.558l.297 2.381.001.009c.12.835.85 1.665 2.134 2.355 2.621 1.408 7.65 2.379 13.396 2.379 5.718 0 10.725-.957 13.356-2.351 1.285-.681 2.026-1.501 2.165-2.328.001-.007.002-.014.003-.021l4.972-39.848c.034-.274-.161-.524-.434-.558-.274-.034-.524.16-.559.434l-4.97 39.836c-.065.369-.343.707-.761 1.038-.505.399-1.21.765-2.074 1.096-2.718 1.04-6.957 1.702-11.698 1.702-4.763 0-9.02-.671-11.736-1.722-.862-.334-1.564-.704-2.064-1.106-.414-.333-.686-.674-.74-1.046zm-.494.567-.001.002z" fill="#ff9900" data-original="#738bab" class=""/>
      <path d="m20.466 22.145-1.023-8.207c-.034-.274-.284-.468-.558-.434s-.469.284-.435.558l1.024 8.207c.034.274.284.468.558.434s.469-.284.434-.558z" fill="#ff9900" data-original="#738bab" class=""/>
      <g fill="#2d74ff">
        <path d="m27.633 42.04.319 3.063c.057.549.549.949 1.098.892s.948-.55.891-1.098l-.318-3.064c-.057-.549-.549-.948-1.098-.891s-.949.549-.892 1.098z" fill="#dddddd" data-original="#2d74ff" class=""/>
        <path d="m33.948 25.817 1 22.228c.024.551.492.979 1.044.954.551-.025.978-.493.954-1.044l-1-22.228c-.025-.551-.493-.979-1.044-.954-.552.025-.979.493-.954 1.044z" fill="#dddddd" data-original="#2d74ff" class=""/>
        <path d="m50.08 24.245-1.859 20.665c-.05.55.356 1.037.906 1.086s1.036-.357 1.086-.906l1.859-20.666c.049-.549-.357-1.036-.906-1.085-.55-.05-1.037.356-1.086.906z" fill="#dddddd" data-original="#2d74ff" class=""/>
        <path d="m41.948 25.727-1 22.228c-.025.551.402 1.019.954 1.044.551.025 1.019-.403 1.044-.954l1-22.228c.024-.551-.403-1.019-.954-1.044-.552-.025-1.02.403-1.044.954z" fill="#dddddd" data-original="#2d74ff" class=""/>
      </g>
      <path d="m32.596 6.807c1.993-.27 4.13-.417 6.351-.417 6.523 0 12.313 1.259 15.899 3.216 2.227 1.214 3.601 2.664 3.601 4.284s-1.374 3.07-3.601 4.285c-3.586 1.956-9.376 3.215-15.899 3.215-6.524 0-12.314-1.259-15.9-3.215-2.226-1.215-3.6-2.665-3.6-4.285 0-1.121.675-2.165 1.827-3.111 1.884-1.546 5.012-2.793 8.857-3.561.27-.054.446-.317.392-.588s-.318-.446-.588-.392c-4.039.806-7.316 2.144-9.295 3.768-1.424 1.169-2.193 2.498-2.193 3.884 0 1.913 1.493 3.729 4.121 5.163 3.695 2.015 9.656 3.337 16.379 3.337 6.722 0 12.683-1.322 16.378-3.337 2.628-1.434 4.122-3.25 4.122-5.163 0-1.912-1.494-3.728-4.122-5.162-3.695-2.016-9.656-3.338-16.378-3.338-2.268 0-4.45.15-6.486.426-.273.037-.465.29-.428.563s.289.465.563.428z" fill="#ff9900" data-original="#738bab" class=""/>
      <path d="m13.334 31.578c2.357-3.003 4.823-5.196 6.935-6.169 1.265-.582 2.382-.729 3.229-.241 1.117.645 1.523 2.218 1.433 4.307-.147 3.427-1.72 8.19-4.487 12.983-2.767 4.792-6.105 8.536-9 10.377-1.765 1.123-3.329 1.557-4.446.912s-1.523-2.217-1.433-4.306c.147-3.428 1.72-8.191 4.487-12.983.468-.812.953-1.593 1.45-2.341.153-.23.09-.54-.139-.693-.23-.153-.541-.09-.694.14-.508.764-1.004 1.564-1.483 2.394-2.863 4.958-4.468 9.894-4.621 13.44-.109 2.56.564 4.425 1.933 5.215 1.369.791 3.32.441 5.483-.934 2.994-1.905 6.466-5.763 9.329-10.721s4.468-9.894 4.62-13.44c.11-2.56-.563-4.425-1.932-5.216-1.086-.626-2.525-.548-4.147.199-2.218 1.021-4.827 3.305-7.303 6.46-.171.217-.133.532.084.702s.532.132.702-.085z" fill="#ff9900" data-original="#738bab" class=""/>
      <path d="m23.498 25.168 3.61 2.085c1.117.645 1.523 2.217 1.433 4.306-.147 3.428-1.72 8.191-4.487 12.983-2.767 4.793-6.105 8.536-9 10.377-1.765 1.123-3.329 1.557-4.446.913-.239-.138-.545-.056-.683.183s-.056.545.183.683c1.369.79 3.32.441 5.483-.935 2.995-1.905 6.466-5.763 9.329-10.721s4.468-9.894 4.62-13.44c.11-2.56-.563-4.425-1.932-5.215l-3.61-2.085c-.239-.138-.545-.056-.683.183s-.056.545.183.683z" fill="#ff9900" data-original="#738bab" class=""/>
      <path d="m12.313 45.278s-.738-1.002-1.426-1.936c-.471-.64-.519-1.498-.121-2.186.924-1.601 2.298-3.981 3.2-5.544.375-.649 1.081-1.034 1.83-.997 1.243.061 2.663.13 2.663.13.551.027 1.021-.399 1.048-.95s-.399-1.021-.95-1.048c0 0-1.42-.069-2.663-.13-1.497-.073-2.91.697-3.66 1.995-.902 1.563-2.276 3.943-3.2 5.544-.795 1.376-.699 3.092.243 4.372.688.934 1.426 1.936 1.426 1.936.327.444.953.539 1.398.212.444-.327.539-.954.212-1.398z" fill="#dddddd" data-original="#2d74ff" class=""/>
    </g>
  </g>
</svg>
