<?xml version="1.0" encoding="UTF-8"?>
<svg xmlns="http://www.w3.org/2000/svg" xmlns:xlink="http://www.w3.org/1999/xlink" xmlns:svgjs="http://svgjs.com/svgjs" version="1.1" width="512" height="512" x="0" y="0" viewBox="0 0 64 64" style="enable-background:new 0 0 512 512" xml:space="preserve" class="">
  <g>
    <g xmlns="http://www.w3.org/2000/svg" id="Exp-1.-O">
      <path d="m40.328 55.003c-.098.186-.198.367-.302.542-.09.152-.253.245-.43.245-3.837 0-26.545 0-32.895 0-.175 0-.338-.092-.428-.242-.091-.151-.095-.338-.013-.493.005-.008.009-.017.013-.025 3.137-6.811 3.376-18.665 3.376-18.665 0-.004 0-.007 0-.01v-27.645c0-.276.224-.5.5-.5h19.966c.276 0 .5-.224.5-.5s-.224-.5-.5-.5c0 0-15.795 0-19.966 0-.828 0-1.5.671-1.5 1.5v27.64c-.005.256-.249 11.654-3.277 18.245-.242.468-.225 1.021.043 1.467.271.451.759.728 1.285.728h32.896c.53 0 1.02-.279 1.29-.734l.327-.587c.129-.245.035-.547-.209-.676-.245-.128-.547-.034-.676.21z" fill="#ff9900" data-original="#738bab" class=""/>
      <path d="m43.965 20.867c.198.078.423.023.562-.138.139-.16.161-.391.056-.575-2.821-4.932-6.686-9.211-11.582-12.846-.167-.124-.393-.131-.568-.019-.174.111-.262.32-.219.523.737 3.521 1.099 7.084.742 10.727-.049.459.12.919.457 1.239.338.321.805.467 1.265.395 3.207-.496 6.335-.472 9.287.694z" fill="#dddddd" data-original="#2d74ff" class=""/>
      <g fill="#738bab">
        <path d="m14.149 27.532h13.106c.276 0 .5-.224.5-.5s-.224-.5-.5-.5h-13.106c-.276 0-.5.224-.5.5s.224.5.5.5z" fill="#ff9900" data-original="#738bab" class=""/>
        <path d="m14.149 32.532h9.313c.276 0 .5-.224.5-.5s-.224-.5-.5-.5h-9.313c-.276 0-.5.224-.5.5s.224.5.5.5z" fill="#ff9900" data-original="#738bab" class=""/>
        <path d="m14.149 37.532h9.313c.276 0 .5-.224.5-.5s-.224-.5-.5-.5h-9.313c-.276 0-.5.224-.5.5s.224.5.5.5z" fill="#ff9900" data-original="#738bab" class=""/>
        <path d="m14.149 42.532h9.313c.276 0 .5-.224.5-.5s-.224-.5-.5-.5h-9.313c-.276 0-.5.224-.5.5s.224.5.5.5z" fill="#ff9900" data-original="#738bab" class=""/>
        <path d="m55.368 28.754c1.929 2.463 3.08 5.564 3.08 8.932 0 8.003-6.497 14.5-14.5 14.5s-14.5-6.497-14.5-14.5 6.497-14.5 14.5-14.5c3.574 0 6.847 1.296 9.376 3.443.21.178.526.153.705-.058.178-.21.153-.526-.058-.704-2.703-2.296-6.203-3.681-10.023-3.681-8.555 0-15.5 6.945-15.5 15.5s6.945 15.5 15.5 15.5c8.554 0 15.5-6.945 15.5-15.5 0-3.6-1.231-6.916-3.293-9.548-.17-.218-.485-.256-.702-.086-.217.171-.256.485-.085.702z" fill="#ff9900" data-original="#738bab" class=""/>
      </g>
      <path d="m35.854 35.386c1.286-4.798 6.219-7.68 11.018-6.394 4.798 1.285 7.649 6.224 6.364 11.022-1.286 4.798-6.225 7.65-11.023 6.364-.533-.143-1.082.174-1.225.707-.143.534.174 1.082.707 1.225 5.864 1.571 11.901-1.914 13.472-7.778 1.572-5.864-1.914-11.901-7.778-13.472s-11.895 1.944-13.466 7.808c-.143.533.174 1.082.707 1.225s1.082-.174 1.224-.707z" fill="#dddddd" data-original="#2d74ff" class=""/>
      <path d="m32.428 31.818 1.537 3.693c.212.51.798.752 1.308.539l3.693-1.537c.509-.212.751-.798.539-1.307-.213-.51-.798-.751-1.308-.539l-2.77 1.153s-1.152-2.77-1.152-2.77c-.212-.51-.798-.751-1.308-.539-.509.212-.751.798-.539 1.307z" fill="#dddddd" data-original="#2d74ff" class=""/>
      <path d="m43.448 32.686v6.77s-3.326 2.85-3.326 2.85c-.209.18-.233.496-.054.705.18.21.496.234.705.055l3.5-3c.111-.095.175-.234.175-.38v-7c0-.276-.224-.5-.5-.5s-.5.224-.5.5z" fill="#ff9900" data-original="#738bab" class=""/>
    </g>
  </g>
</svg>
