<?xml version="1.0" encoding="UTF-8"?>
<svg xmlns="http://www.w3.org/2000/svg" xmlns:xlink="http://www.w3.org/1999/xlink" xmlns:svgjs="http://svgjs.com/svgjs" version="1.1" width="512" height="512" x="0" y="0" viewBox="0 0 496 496" style="enable-background:new 0 0 512 512" xml:space="preserve" class="">
  <g>
    <path d="m432.94 454.085c-79.095 9.393-243.731 23.567-319.868-9.514-8.004-3.478-14.136-10.202-16.813-18.508-14.876-46.14-62.198-215.563-.669-339.805 1.867-3.77 2.399-8.054 1.473-12.157-1.738-7.699-3.745-21.097.271-30.925 8.981-21.979 75.498-73.068 125.827-19.554 13.951 14.833 13.863 39.676 11.025 58.842-2.05 13.845-17.042 21.622-29.52 15.282l-10.474-5.322c-6.889-3.5-15.221-2.372-20.925 2.841-6.294 5.752-15.569 12.292-26.063 13.426-16.644 30.011 28.524 151.158 29.409 212.405.094 6.475 7.693 9.855 12.53 5.551 15.743-14.008 43.423-31.178 81.337-26.345 23.155 2.951 38.988 16.924 48.891 29.758 7.38 9.565 21.749 9.727 29.465.43 19.665-23.692 56.49-56.649 105.755-50.427 8.257 1.043 14.566 7.89 14.979 16.202l5.369 108.146c1.244 25.019-17.108 46.718-41.999 49.674z" fill="#ffd3be" data-original="#ffd3be"/>
    <path d="m474.141 388.313c-3.841 19.928-21.291 44.783-42.3 47.278-9.412 1.118-27.125-5.895-38.666-4.73-91.277 9.217-231.786 16.377-292.835-20.279 0 0-32.478-87.652-35.302-188.866-2.603 89.546 21.396 173.871 31.224 204.357 2.677 8.305 8.807 15.021 16.81 18.498 76.137 33.081 240.772 18.907 319.868 9.514 24.891-2.956 43.243-24.655 42.001-49.675z" fill="#ffa69f" data-original="#ffaea7" class=""/>
    <path d="m115.544 101.606c1.867-3.77 2.399-8.053 1.473-12.157-1.738-7.699-3.745-21.097.271-30.925 7.796-19.079 58.945-60.077 105.227-35.565-50.251-52.402-116.238-1.669-125.181 20.217-4.016 9.828-2.009 23.226-.271 30.925.926 4.104.394 8.387-1.473 12.157-61.526 124.238-14.208 293.659.669 339.805 2.642 8.195 8.618 14.92 16.507 18.368 1.671.73 3.384 1.438 5.137 2.123-12.402-36.984-66.47-215.491-2.359-344.948z" fill="#ffa69f" data-original="#ffaea7" class=""/>
    <path d="m316.095 496h-260.892c-18.89 0-34.203-15.303-34.203-34.181v-242.339c0-18.878 15.313-34.181 34.203-34.181h260.892c18.89 0 34.203 15.303 34.203 34.181v242.339c0 18.877-15.313 34.181-34.203 34.181z" fill="#4ac9ff" data-original="#4ac9ff" class=""/>
    <path d="m350.298 328.756c-.493.58-.988 1.163-1.461 1.734-7.709 9.287-22.049 9.199-29.413-.363-9.9-12.853-25.748-26.869-48.943-29.825-37.92-4.834-65.603 12.343-81.345 26.352-4.824 4.294-12.431.942-12.522-5.515-.495-35.075-15.533-89.822-25.163-135.84h-83.804c-11.945 102.231 17.463 206.181 28.615 240.774 2.665 8.266 8.744 14.986 16.707 18.453 54.788 23.861 155.539 23.187 237.2 17.432.201-.217.129 6.104.129-133.202z" fill="#e6795f" data-original="#e6795f" class=""/>
    <path d="m127.913 425.779c-7.962-3.468-14.041-10.186-16.706-18.451-10.471-32.479-37.033-126.097-30.354-222.029h-13.206c-11.945 102.231 17.463 206.181 28.615 240.774 2.665 8.266 8.744 14.986 16.707 18.453 54.788 23.861 155.539 23.188 237.2 17.432.194-.21.13 1.214.13-17.776-78.712 4.776-170.868 4.033-222.386-18.403z" fill="#cb5d5f" data-original="#cb5d5f" class=""/>
    <path d="m350.298 383.004h-143.69c-.234-11.378-9.519-20.533-20.96-20.533-19.197 0-28.28 23.745-13.994 36.56-14.278 12.809-5.218 36.56 13.994 36.56 11.441 0 20.726-9.155 20.96-20.533h143.69z" fill="#d4deff" data-original="#d4deff"/>
    <path d="m115.458 382.113c4.05 6.652 17.803 12.971 24.847-3.987 4.713-11.348 11.377-22.863.19-37.477-27.148-35.465-14.387-155.351-14.387-155.351h-34.805s-2.505 153.02 24.155 196.815z" fill="#d4deff" data-original="#d4deff"/>
    <g fill="#ffaea7">
      <ellipse cx="129.669" cy="63.427" rx="9.887" ry="6.179" transform="matrix(.273 -.962 .962 .273 33.227 170.832)" fill="#ffa69f" data-original="#ffaea7" class=""/>
      <ellipse cx="432.523" cy="416.924" rx="11.589" ry="8.408" fill="#ffa69f" data-original="#ffaea7" class=""/>
    </g>
  </g>
</svg>
