<?xml version="1.0" encoding="UTF-8"?>
<svg xmlns="http://www.w3.org/2000/svg" xmlns:xlink="http://www.w3.org/1999/xlink" xmlns:svgjs="http://svgjs.com/svgjs" version="1.1" width="512" height="512" x="0" y="0" viewBox="0 0 512 512" style="enable-background:new 0 0 512 512" xml:space="preserve" class="">
  <g>
    <g>
      <g>
        <path d="m325.582 38.066c-50.237 1.19-90.544 43.311-89.629 93.553.465 25.532 11.353 48.51 28.582 64.878v-.613c0-2.555 2.078-4.633 4.632-4.633h16.896c2.554 0 4.632 2.078 4.632 4.633v18.055c5.494 2.429 11.263 4.35 17.259 5.672 1.617.356 3.023 1.344 3.851 2.778l12.994 22.506c1.338 2.318 4.684 2.318 6.022 0l12.994-22.506c.828-1.433 2.234-2.421 3.85-2.777 9.163-2.019 17.809-5.413 25.721-9.941-.078-2.024-.078-4.06.02-6.105 1.357-28.21 20.028-52.1 45.455-61.342.539-4.027.821-8.135.821-12.31.001-51.483-42.341-93.074-94.1-91.848z" fill="#8379c1" data-original="#8379c1"/>
        <path d="m337.676 204.971c-.828-1.434-2.234-2.422-3.851-2.778-40.657-8.96-71.215-44.83-72.002-87.991-.485-26.639 10.619-50.994 28.646-68.176-32.602 14.655-55.205 47.829-54.517 85.593.465 25.532 11.352 48.51 28.582 64.878v-.613c0-2.555 2.078-4.633 4.632-4.633h16.896c2.554 0 4.632 2.078 4.632 4.633v18.055c5.494 2.429 11.263 4.35 17.259 5.672 1.617.356 3.023 1.344 3.851 2.778l12.994 22.506c1.338 2.318 4.684 2.318 6.022 0l12.994-22.506c.599-1.037 1.502-1.836 2.567-2.336z" fill="#6e61b6" data-original="#6e61b6"/>
        <g fill="#fff">
          <path d="m327.811 95.197c4.142 0 7.5-3.357 7.5-7.5v-4.966c0-4.143-3.358-7.5-7.5-7.5s-7.5 3.357-7.5 7.5v4.966c0 4.143 3.358 7.5 7.5 7.5z" fill="#ffffff" data-original="#ffffff"/>
          <path d="m335.408 162.132h-.097v-47.123c0-4.143-3.358-7.5-7.5-7.5h-7.597c-4.142 0-7.5 3.357-7.5 7.5s3.358 7.5 7.5 7.5h.097v39.623h-.097c-4.142 0-7.5 3.357-7.5 7.5s3.358 7.5 7.5 7.5h15.194c4.142 0 7.5-3.357 7.5-7.5s-3.358-7.5-7.5-7.5z" fill="#ffffff" data-original="#ffffff"/>
        </g>
      </g>
      <g>
        <g>
          <path d="m109.38 354.641h-47.474v109.018c0 5.69 4.612 10.302 10.302 10.302h16.029c4.497 0 8.475-2.918 9.826-7.207l32.663-103.719z" fill="#ffce00" data-original="#fed402" class=""/>
        </g>
        <g>
          <path d="m88.081 463.659v-109.018h-26.175v109.018c0 5.69 4.612 10.302 10.302 10.302h16.029c1.824 0 3.558-.487 5.071-1.343-3.119-1.771-5.227-5.116-5.227-8.959z" fill="#fabe00" data-original="#fac600" class=""/>
        </g>
        <g>
          <path d="m110.215 267.714h-75.674c-19.077 0-34.541 15.464-34.541 34.541v18.876c0 19.076 15.464 34.541 34.541 34.541h75.675v-87.958z" fill="#fd4755" data-original="#fd4755"/>
        </g>
        <g>
          <path d="m26.27 321.131v-18.876c0-19.076 15.464-34.541 34.541-34.541h-26.27c-19.077 0-34.541 15.464-34.541 34.541v18.876c0 19.076 15.464 34.541 34.541 34.541h26.27c-19.077-.001-34.541-15.465-34.541-34.541z" fill="#fb2b3a" data-original="#fb2b3a"/>
        </g>
        <g>
          <g>
            <path d="m294.463 267.714h-3.798v87.957h3.798c24.289 0 43.979-19.69 43.979-43.979 0-24.288-19.69-43.978-43.979-43.978z" fill="#fd4755" data-original="#fd4755"/>
          </g>
        </g>
        <g>
          <path d="m294.463 329.535h-3.798v26.136h3.798c24.289 0 43.979-19.69 43.979-43.979 0-4.551-.691-8.94-1.974-13.068-5.566 17.908-22.267 30.911-42.005 30.911z" fill="#fb2b3a" data-original="#fb2b3a"/>
        </g>
        <g>
          <path d="m264.565 206.617-155.38 61.097v87.957l155.38 61.098z" fill="#ffce00" data-original="#fed402" class=""/>
        </g>
        <g>
          <path d="m143.888 329.857v-75.789l-34.703 13.646v87.957l155.38 61.098v-39.461z" fill="#fabe00" data-original="#fac600" class=""/>
        </g>
        <g>
          <g>
            <path d="m70.495 305.676h-25.907c-4.142 0-7.5-3.357-7.5-7.5s3.358-7.5 7.5-7.5h25.908c4.142 0 7.5 3.357 7.5 7.5s-3.359 7.5-7.501 7.5z" fill="#e41f2d" data-original="#e41f2d"/>
          </g>
          <g>
            <path d="m70.495 332.71h-25.907c-4.142 0-7.5-3.357-7.5-7.5s3.358-7.5 7.5-7.5h25.908c4.142 0 7.5 3.357 7.5 7.5s-3.359 7.5-7.501 7.5z" fill="#e41f2d" data-original="#e41f2d"/>
          </g>
        </g>
        <g>
          <path d="m286.063 433.134h-16.896c-3.111 0-5.632-2.522-5.632-5.632v-231.619c0-3.111 2.522-5.632 5.632-5.632h16.896c3.111 0 5.632 2.522 5.632 5.632v231.619c.001 3.111-2.521 5.632-5.632 5.632z" fill="#fee97d" data-original="#fee97d" class=""/>
        </g>
      </g>
      <g>
        <g>
          <path d="m439.95 137.149c-36.157 1.118-65.804 30.234-67.542 66.366-.74 15.38 3.517 29.721 11.261 41.575l-10.72 26.011c-1.047 2.541 1.494 5.082 4.035 4.035l25.69-10.587c11.289 7.755 24.966 12.286 39.708 12.241 39.075-.121 70.784-32.965 69.584-72.022-1.175-38.289-33.172-68.819-72.016-67.619z" fill="#0ed290" data-original="#0ed290" class=""/>
        </g>
        <g>
          <g>
            <path d="m401.421 265.066 7.224-17.528c.615-1.492.507-3.192-.327-4.573-6.346-10.516-10.009-22.833-10.009-36.012 0-34.128 24.487-62.521 56.846-68.612-4.212-.793-8.55-1.225-12.992-1.225-38.57 0-69.838 31.267-69.838 69.838 0 14.077 4.179 27.171 11.344 38.138l-10.72 26.011c-1.047 2.541 1.494 5.082 4.035 4.035z" fill="#00c285" data-original="#00c285" class=""/>
          </g>
        </g>
        <g>
          <g>
            <path d="m468.071 189.672h-51.815c-4.142 0-7.5-3.357-7.5-7.5s3.358-7.5 7.5-7.5h51.815c4.142 0 7.5 3.357 7.5 7.5s-3.358 7.5-7.5 7.5z" fill="#eaf6ff" data-original="#eaf6ff"/>
          </g>
          <g>
            <path d="m468.071 214.452h-51.815c-4.142 0-7.5-3.357-7.5-7.5s3.358-7.5 7.5-7.5h51.815c4.142 0 7.5 3.357 7.5 7.5s-3.358 7.5-7.5 7.5z" fill="#eaf6ff" data-original="#eaf6ff"/>
          </g>
          <g>
            <path d="m468.071 239.233h-51.815c-4.142 0-7.5-3.357-7.5-7.5s3.358-7.5 7.5-7.5h51.815c4.142 0 7.5 3.357 7.5 7.5s-3.358 7.5-7.5 7.5z" fill="#eaf6ff" data-original="#eaf6ff"/>
          </g>
        </g>
      </g>
      <path d="m375.461 388.422h-9.252v-9.252c0-4.143-3.358-7.5-7.5-7.5s-7.5 3.357-7.5 7.5v9.252h-9.252c-4.142 0-7.5 3.357-7.5 7.5s3.358 7.5 7.5 7.5h9.252v9.252c0 4.143 3.358 7.5 7.5 7.5s7.5-3.357 7.5-7.5v-9.252h9.252c4.142 0 7.5-3.357 7.5-7.5s-3.358-7.5-7.5-7.5z" fill="#fe7701" data-original="#fe7701"/>
      <g>
        <path d="m182.717 142.342 7.419 15.033c.45.912 1.32 1.544 2.327 1.691l16.59 2.411c2.535.368 3.547 3.484 1.713 5.272l-12.004 11.701c-.728.71-1.061 1.733-.889 2.736l2.834 16.523c.433 2.525-2.217 4.45-4.484 3.258l-14.838-7.801c-.9-.473-1.976-.473-2.876 0l-14.838 7.801c-2.267 1.192-4.917-.733-4.484-3.258l2.834-16.523c.172-1.003-.16-2.026-.889-2.736l-12.004-11.701c-1.834-1.788-.822-4.903 1.713-5.272l16.59-2.411c1.007-.146 1.877-.778 2.327-1.691l7.419-15.033c1.131-2.297 4.407-2.297 5.54 0z" fill="#ffce00" data-original="#fed402" class=""/>
      </g>
      <g>
        <path d="m175.996 193.38 2.834-16.523c.172-1.003-.16-2.026-.889-2.736l-12.004-11.701c-.874-.852-1.096-2.005-.82-3.019l-14.278 2.075c-2.535.368-3.547 3.484-1.713 5.271l12.004 11.701c.728.71 1.061 1.733.889 2.736l-2.834 16.523c-.433 2.525 2.217 4.45 4.484 3.258l12.338-6.487c-.064-.347-.077-.714-.011-1.098z" fill="#fabe00" data-original="#fac600" class=""/>
      </g>
      <g>
        <path d="m415.538 306.215 7.419 15.033c.45.912 1.32 1.544 2.327 1.691l16.59 2.411c2.535.368 3.547 3.484 1.713 5.272l-12.004 11.701c-.728.71-1.061 1.733-.889 2.736l2.834 16.523c.433 2.525-2.217 4.45-4.484 3.258l-14.838-7.801c-.9-.473-1.976-.473-2.876 0l-14.838 7.801c-2.267 1.192-4.917-.733-4.484-3.258l2.834-16.523c.172-1.003-.16-2.026-.889-2.736l-12.004-11.701c-1.834-1.788-.822-4.903 1.713-5.272l16.59-2.411c1.007-.146 1.877-.779 2.327-1.691l7.419-15.033c1.131-2.298 4.407-2.298 5.54 0z" fill="#ffce00" data-original="#fed402" class=""/>
      </g>
    </g>
  </g>
</svg>
