<svg xmlns="http://www.w3.org/2000/svg" xmlns:xlink="http://www.w3.org/1999/xlink" version="1.1" width="1000" height="1000" viewBox="0 0 1000 1000" xml:space="preserve">
<desc>Created with Fabric.js 3.5.0</desc>
<defs>
</defs>
<rect x="0" y="0" width="100%" height="100%" fill="rgba(255,255,255,0)"/>
<g transform="matrix(1.4419 -1.0362 1.0362 1.4419 489.5947 470.8354)" id="960140">
<g style="" vector-effect="non-scaling-stroke">
		<g transform="matrix(1 0 0 1 71.8098 -113.6634)">
<path style="stroke: none; stroke-width: 1; stroke-dasharray: none; stroke-linecap: butt; stroke-dashoffset: 0; stroke-linejoin: miter; stroke-miterlimit: 4; is-custom-font: none; font-file-url: none; fill: rgb(131,121,193); fill-rule: nonzero; opacity: 1;" transform=" translate(-327.8099, -142.3365)" d="m 325.582 38.066 c -50.237 1.19 -90.544 43.311 -89.629 93.553 c 0.465 25.532 11.353 48.51 28.582 64.878 v -0.613 c 0 -2.555 2.078 -4.633 4.632 -4.633 h 16.896 c 2.554 0 4.632 2.078 4.632 4.633 v 18.055 c 5.494 2.429 11.263 4.35 17.259 5.672 c 1.617 0.356 3.023 1.344 3.851 2.778 l 12.994 22.506 c 1.338 2.318 4.684 2.318 6.022 0 l 12.994 -22.506 c 0.828 -1.433 2.234 -2.421 3.85 -2.777 c 9.163 -2.019 17.809 -5.413 25.721 -9.941 c -0.078 -2.024 -0.078 -4.06 0.02 -6.105 c 1.357 -28.21 20.028 -52.1 45.455 -61.342 c 0.539 -4.027 0.821 -8.135 0.821 -12.31 c 0.001 -51.483 -42.341 -93.074 -94.1 -91.848 z" stroke-linecap="round"/>
</g>
		<g transform="matrix(1 0 0 1 35.1588 -109.6702)">
<path style="stroke: none; stroke-width: 1; stroke-dasharray: none; stroke-linecap: butt; stroke-dashoffset: 0; stroke-linejoin: miter; stroke-miterlimit: 4; is-custom-font: none; font-file-url: none; fill: rgb(110,97,182); fill-rule: nonzero; opacity: 1;" transform=" translate(-291.1589, -146.3298)" d="m 337.676 204.971 c -0.828 -1.434 -2.234 -2.422 -3.851 -2.778 c -40.657 -8.96 -71.215 -44.83 -72.002 -87.991 c -0.485 -26.639 10.619 -50.994 28.646 -68.176 c -32.602 14.655 -55.205 47.829 -54.517 85.593 c 0.465 25.532 11.352 48.51 28.582 64.878 v -0.613 c 0 -2.555 2.078 -4.633 4.632 -4.633 h 16.896 c 2.554 0 4.632 2.078 4.632 4.633 v 18.055 c 5.494 2.429 11.263 4.35 17.259 5.672 c 1.617 0.356 3.023 1.344 3.851 2.778 l 12.994 22.506 c 1.338 2.318 4.684 2.318 6.022 0 l 12.994 -22.506 c 0.599 -1.037 1.502 -1.836 2.567 -2.336 z" stroke-linecap="round"/>
</g>
		<g transform="matrix(1 0 0 1 71.811 -170.786)">
<path style="stroke: none; stroke-width: 1; stroke-dasharray: none; stroke-linecap: butt; stroke-dashoffset: 0; stroke-linejoin: miter; stroke-miterlimit: 4; is-custom-font: none; font-file-url: none; fill: rgb(255,255,255); fill-rule: nonzero; opacity: 1;" transform=" translate(-327.811, -85.214)" d="m 327.811 95.197 c 4.142 0 7.5 -3.357 7.5 -7.5 v -4.966 c 0 -4.143 -3.358 -7.5 -7.5 -7.5 s -7.5 3.357 -7.5 7.5 v 4.966 c 0 4.143 3.358 7.5 7.5 7.5 z" stroke-linecap="round"/>
</g>
		<g transform="matrix(1 0 0 1 71.811 -113.6795)">
<path style="stroke: none; stroke-width: 1; stroke-dasharray: none; stroke-linecap: butt; stroke-dashoffset: 0; stroke-linejoin: miter; stroke-miterlimit: 4; is-custom-font: none; font-file-url: none; fill: rgb(255,255,255); fill-rule: nonzero; opacity: 1;" transform=" translate(-327.811, -142.3205)" d="m 335.408 162.132 h -0.097 v -47.123 c 0 -4.143 -3.358 -7.5 -7.5 -7.5 h -7.597 c -4.142 0 -7.5 3.357 -7.5 7.5 s 3.358 7.5 7.5 7.5 h 0.097 v 39.623 h -0.097 c -4.142 0 -7.5 3.357 -7.5 7.5 s 3.358 7.5 7.5 7.5 h 15.194 c 4.142 0 7.5 -3.357 7.5 -7.5 s -3.358 -7.5 -7.5 -7.5 z" stroke-linecap="round"/>
</g>
		<g transform="matrix(1 0 0 1 -159.684 158.301)">
<path style="stroke: none; stroke-width: 1; stroke-dasharray: none; stroke-linecap: butt; stroke-dashoffset: 0; stroke-linejoin: miter; stroke-miterlimit: 4; is-custom-font: none; font-file-url: none; fill: rgb(255,206,0); fill-rule: nonzero; opacity: 1;" transform=" translate(-96.316, -414.301)" d="m 109.38 354.641 h -47.474 v 109.018 c 0 5.69 4.612 10.302 10.302 10.302 h 16.029 c 4.497 0 8.475 -2.918 9.826 -7.207 l 32.663 -103.719 z" stroke-linecap="round"/>
</g>
		<g transform="matrix(1 0 0 1 -178.393 158.301)">
<path style="stroke: none; stroke-width: 1; stroke-dasharray: none; stroke-linecap: butt; stroke-dashoffset: 0; stroke-linejoin: miter; stroke-miterlimit: 4; is-custom-font: none; font-file-url: none; fill: rgb(250,190,0); fill-rule: nonzero; opacity: 1;" transform=" translate(-77.607, -414.301)" d="m 88.081 463.659 v -109.018 h -26.175 v 109.018 c 0 5.69 4.612 10.302 10.302 10.302 h 16.029 c 1.824 0 3.558 -0.487 5.071 -1.343 c -3.119 -1.771 -5.227 -5.116 -5.227 -8.959 z" stroke-linecap="round"/>
</g>
		<g transform="matrix(1 0 0 1 -200.892 55.693)">
<path style="stroke: none; stroke-width: 1; stroke-dasharray: none; stroke-linecap: butt; stroke-dashoffset: 0; stroke-linejoin: miter; stroke-miterlimit: 4; is-custom-font: none; font-file-url: none; fill: rgb(253,71,85); fill-rule: nonzero; opacity: 1;" transform=" translate(-55.108, -311.693)" d="m 110.215 267.714 h -75.674 c -19.077 0 -34.541 15.464 -34.541 34.541 v 18.876 c 0 19.076 15.464 34.541 34.541 34.541 h 75.675 v -87.958 z" stroke-linecap="round"/>
</g>
		<g transform="matrix(1 0 0 1 -225.5945 55.693)">
<path style="stroke: none; stroke-width: 1; stroke-dasharray: none; stroke-linecap: butt; stroke-dashoffset: 0; stroke-linejoin: miter; stroke-miterlimit: 4; is-custom-font: none; font-file-url: none; fill: rgb(251,43,58); fill-rule: nonzero; opacity: 1;" transform=" translate(-30.4055, -311.693)" d="m 26.27 321.131 v -18.876 c 0 -19.076 15.464 -34.541 34.541 -34.541 h -26.27 c -19.077 0 -34.541 15.464 -34.541 34.541 v 18.876 c 0 19.076 15.464 34.541 34.541 34.541 h 26.27 c -19.077 -0.001 -34.541 -15.465 -34.541 -34.541 z" stroke-linecap="round"/>
</g>
		<g transform="matrix(1 0 0 1 58.5535 55.6925)">
<path style="stroke: none; stroke-width: 1; stroke-dasharray: none; stroke-linecap: butt; stroke-dashoffset: 0; stroke-linejoin: miter; stroke-miterlimit: 4; is-custom-font: none; font-file-url: none; fill: rgb(253,71,85); fill-rule: nonzero; opacity: 1;" transform=" translate(-314.5535, -311.6925)" d="m 294.463 267.714 h -3.798 v 87.957 h 3.798 c 24.289 0 43.979 -19.69 43.979 -43.979 c 0 -24.288 -19.69 -43.978 -43.979 -43.978 z" stroke-linecap="round"/>
</g>
		<g transform="matrix(1 0 0 1 58.5535 71.1475)">
<path style="stroke: none; stroke-width: 1; stroke-dasharray: none; stroke-linecap: butt; stroke-dashoffset: 0; stroke-linejoin: miter; stroke-miterlimit: 4; is-custom-font: none; font-file-url: none; fill: rgb(251,43,58); fill-rule: nonzero; opacity: 1;" transform=" translate(-314.5535, -327.1475)" d="m 294.463 329.535 h -3.798 v 26.136 h 3.798 c 24.289 0 43.979 -19.69 43.979 -43.979 c 0 -4.551 -0.691 -8.94 -1.974 -13.068 c -5.566 17.908 -22.267 30.911 -42.005 30.911 z" stroke-linecap="round"/>
</g>
		<g transform="matrix(1 0 0 1 -69.125 55.693)">
<path style="stroke: none; stroke-width: 1; stroke-dasharray: none; stroke-linecap: butt; stroke-dashoffset: 0; stroke-linejoin: miter; stroke-miterlimit: 4; is-custom-font: none; font-file-url: none; fill: rgb(255,206,0); fill-rule: nonzero; opacity: 1;" transform=" translate(-186.875, -311.693)" d="m 264.565 206.617 l -155.38 61.097 v 87.957 l 155.38 61.098 z" stroke-linecap="round"/>
</g>
		<g transform="matrix(1 0 0 1 -69.125 79.4185)">
<path style="stroke: none; stroke-width: 1; stroke-dasharray: none; stroke-linecap: butt; stroke-dashoffset: 0; stroke-linejoin: miter; stroke-miterlimit: 4; is-custom-font: none; font-file-url: none; fill: rgb(250,190,0); fill-rule: nonzero; opacity: 1;" transform=" translate(-186.875, -335.4185)" d="m 143.888 329.857 v -75.789 l -34.703 13.646 v 87.957 l 155.38 61.098 v -39.461 z" stroke-linecap="round"/>
</g>
		<g transform="matrix(1 0 0 1 -198.458 42.176)">
<path style="stroke: none; stroke-width: 1; stroke-dasharray: none; stroke-linecap: butt; stroke-dashoffset: 0; stroke-linejoin: miter; stroke-miterlimit: 4; is-custom-font: none; font-file-url: none; fill: rgb(228,31,45); fill-rule: nonzero; opacity: 1;" transform=" translate(-57.542, -298.176)" d="m 70.495 305.676 h -25.907 c -4.142 0 -7.5 -3.357 -7.5 -7.5 s 3.358 -7.5 7.5 -7.5 h 25.908 c 4.142 0 7.5 3.357 7.5 7.5 s -3.359 7.5 -7.501 7.5 z" stroke-linecap="round"/>
</g>
		<g transform="matrix(1 0 0 1 -198.458 69.21)">
<path style="stroke: none; stroke-width: 1; stroke-dasharray: none; stroke-linecap: butt; stroke-dashoffset: 0; stroke-linejoin: miter; stroke-miterlimit: 4; is-custom-font: none; font-file-url: none; fill: rgb(228,31,45); fill-rule: nonzero; opacity: 1;" transform=" translate(-57.542, -325.21)" d="m 70.495 332.71 h -25.907 c -4.142 0 -7.5 -3.357 -7.5 -7.5 s 3.358 -7.5 7.5 -7.5 h 25.908 c 4.142 0 7.5 3.357 7.5 7.5 s -3.359 7.5 -7.501 7.5 z" stroke-linecap="round"/>
</g>
		<g transform="matrix(1 0 0 1 21.615 55.6925)">
<path style="stroke: none; stroke-width: 1; stroke-dasharray: none; stroke-linecap: butt; stroke-dashoffset: 0; stroke-linejoin: miter; stroke-miterlimit: 4; is-custom-font: none; font-file-url: none; fill: rgb(254,233,125); fill-rule: nonzero; opacity: 1;" transform=" translate(-277.615, -311.6925)" d="m 286.063 433.134 h -16.896 c -3.111 0 -5.632 -2.522 -5.632 -5.632 v -231.619 c 0 -3.111 2.522 -5.632 5.632 -5.632 h 16.896 c 3.111 0 5.632 2.522 5.632 5.632 v 231.619 c 0.001 3.111 -2.521 5.632 -5.632 5.632 z" stroke-linecap="round"/>
</g>
		<g transform="matrix(1 0 0 1 186.1621 -49.0474)">
<path style="stroke: none; stroke-width: 1; stroke-dasharray: none; stroke-linecap: butt; stroke-dashoffset: 0; stroke-linejoin: miter; stroke-miterlimit: 4; is-custom-font: none; font-file-url: none; fill: rgb(14,210,144); fill-rule: nonzero; opacity: 1;" transform=" translate(-442.1621, -206.9526)" d="m 439.95 137.149 c -36.157 1.118 -65.804 30.234 -67.542 66.366 c -0.74 15.38 3.517 29.721 11.261 41.575 l -10.72 26.011 c -1.047 2.541 1.494 5.082 4.035 4.035 l 25.69 -10.587 c 11.289 7.755 24.966 12.286 39.708 12.241 c 39.075 -0.121 70.784 -32.965 69.584 -72.022 c -1.175 -38.289 -33.172 -68.819 -72.016 -67.619 z" stroke-linecap="round"/>
</g>
		<g transform="matrix(1 0 0 1 157.74 -49.7521)">
<path style="stroke: none; stroke-width: 1; stroke-dasharray: none; stroke-linecap: butt; stroke-dashoffset: 0; stroke-linejoin: miter; stroke-miterlimit: 4; is-custom-font: none; font-file-url: none; fill: rgb(0,194,133); fill-rule: nonzero; opacity: 1;" transform=" translate(-413.74, -206.2479)" d="m 401.421 265.066 l 7.224 -17.528 c 0.615 -1.492 0.507 -3.192 -0.327 -4.573 c -6.346 -10.516 -10.009 -22.833 -10.009 -36.012 c 0 -34.128 24.487 -62.521 56.846 -68.612 c -4.212 -0.793 -8.55 -1.225 -12.992 -1.225 c -38.57 0 -69.838 31.267 -69.838 69.838 c 0 14.077 4.179 27.171 11.344 38.138 l -10.72 26.011 c -1.047 2.541 1.494 5.082 4.035 4.035 z" stroke-linecap="round"/>
</g>
		<g transform="matrix(1 0 0 1 186.1635 -73.828)">
<path style="stroke: none; stroke-width: 1; stroke-dasharray: none; stroke-linecap: butt; stroke-dashoffset: 0; stroke-linejoin: miter; stroke-miterlimit: 4; is-custom-font: none; font-file-url: none; fill: rgb(234,246,255); fill-rule: nonzero; opacity: 1;" transform=" translate(-442.1635, -182.172)" d="m 468.071 189.672 h -51.815 c -4.142 0 -7.5 -3.357 -7.5 -7.5 s 3.358 -7.5 7.5 -7.5 h 51.815 c 4.142 0 7.5 3.357 7.5 7.5 s -3.358 7.5 -7.5 7.5 z" stroke-linecap="round"/>
</g>
		<g transform="matrix(1 0 0 1 186.1635 -49.048)">
<path style="stroke: none; stroke-width: 1; stroke-dasharray: none; stroke-linecap: butt; stroke-dashoffset: 0; stroke-linejoin: miter; stroke-miterlimit: 4; is-custom-font: none; font-file-url: none; fill: rgb(234,246,255); fill-rule: nonzero; opacity: 1;" transform=" translate(-442.1635, -206.952)" d="m 468.071 214.452 h -51.815 c -4.142 0 -7.5 -3.357 -7.5 -7.5 s 3.358 -7.5 7.5 -7.5 h 51.815 c 4.142 0 7.5 3.357 7.5 7.5 s -3.358 7.5 -7.5 7.5 z" stroke-linecap="round"/>
</g>
		<g transform="matrix(1 0 0 1 186.1635 -24.267)">
<path style="stroke: none; stroke-width: 1; stroke-dasharray: none; stroke-linecap: butt; stroke-dashoffset: 0; stroke-linejoin: miter; stroke-miterlimit: 4; is-custom-font: none; font-file-url: none; fill: rgb(234,246,255); fill-rule: nonzero; opacity: 1;" transform=" translate(-442.1635, -231.733)" d="m 468.071 239.233 h -51.815 c -4.142 0 -7.5 -3.357 -7.5 -7.5 s 3.358 -7.5 7.5 -7.5 h 51.815 c 4.142 0 7.5 3.357 7.5 7.5 s -3.358 7.5 -7.5 7.5 z" stroke-linecap="round"/>
</g>
		<g transform="matrix(1 0 0 1 102.709 139.922)">
<path style="stroke: none; stroke-width: 1; stroke-dasharray: none; stroke-linecap: butt; stroke-dashoffset: 0; stroke-linejoin: miter; stroke-miterlimit: 4; is-custom-font: none; font-file-url: none; fill: rgb(254,119,1); fill-rule: nonzero; opacity: 1;" transform=" translate(-358.709, -395.922)" d="m 375.461 388.422 h -9.252 v -9.252 c 0 -4.143 -3.358 -7.5 -7.5 -7.5 s -7.5 3.357 -7.5 7.5 v 9.252 h -9.252 c -4.142 0 -7.5 3.357 -7.5 7.5 s 3.358 7.5 7.5 7.5 h 9.252 v 9.252 c 0 4.143 3.358 7.5 7.5 7.5 s 7.5 -3.357 7.5 -7.5 v -9.252 h 9.252 c 4.142 0 7.5 -3.357 7.5 -7.5 s -3.358 -7.5 -7.5 -7.5 z" stroke-linecap="round"/>
</g>
		<g transform="matrix(1 0 0 1 -76.053 -85.0259)">
<path style="stroke: none; stroke-width: 1; stroke-dasharray: none; stroke-linecap: butt; stroke-dashoffset: 0; stroke-linejoin: miter; stroke-miterlimit: 4; is-custom-font: none; font-file-url: none; fill: rgb(255,206,0); fill-rule: nonzero; opacity: 1;" transform=" translate(-179.947, -170.9741)" d="m 182.717 142.342 l 7.419 15.033 c 0.45 0.912 1.32 1.544 2.327 1.691 l 16.59 2.411 c 2.535 0.368 3.547 3.484 1.713 5.272 l -12.004 11.701 c -0.728 0.71 -1.061 1.733 -0.889 2.736 l 2.834 16.523 c 0.433 2.525 -2.217 4.45 -4.484 3.258 l -14.838 -7.801 c -0.9 -0.473 -1.976 -0.473 -2.876 0 l -14.838 7.801 c -2.267 1.192 -4.917 -0.733 -4.484 -3.258 l 2.834 -16.523 c 0.172 -1.003 -0.16 -2.026 -0.889 -2.736 l -12.004 -11.701 c -1.834 -1.788 -0.822 -4.903 1.713 -5.272 l 16.59 -2.411 c 1.007 -0.146 1.877 -0.778 2.327 -1.691 l 7.419 -15.033 c 1.131 -2.297 4.407 -2.297 5.54 0 z" stroke-linecap="round"/>
</g>
		<g transform="matrix(1 0 0 1 -92.468 -75.636)">
<path style="stroke: none; stroke-width: 1; stroke-dasharray: none; stroke-linecap: butt; stroke-dashoffset: 0; stroke-linejoin: miter; stroke-miterlimit: 4; is-custom-font: none; font-file-url: none; fill: rgb(250,190,0); fill-rule: nonzero; opacity: 1;" transform=" translate(-163.532, -180.364)" d="m 175.996 193.38 l 2.834 -16.523 c 0.172 -1.003 -0.16 -2.026 -0.889 -2.736 l -12.004 -11.701 c -0.874 -0.852 -1.096 -2.005 -0.82 -3.019 l -14.278 2.075 c -2.535 0.368 -3.547 3.484 -1.713 5.271 l 12.004 11.701 c 0.728 0.71 1.061 1.733 0.889 2.736 l -2.834 16.523 c -0.433 2.525 2.217 4.45 4.484 3.258 l 12.338 -6.487 c -0.064 -0.347 -0.077 -0.714 -0.011 -1.098 z" stroke-linecap="round"/>
</g>
		<g transform="matrix(1 0 0 1 156.768 78.8467)">
<path style="stroke: none; stroke-width: 1; stroke-dasharray: none; stroke-linecap: butt; stroke-dashoffset: 0; stroke-linejoin: miter; stroke-miterlimit: 4; is-custom-font: none; font-file-url: none; fill: rgb(255,206,0); fill-rule: nonzero; opacity: 1;" transform=" translate(-412.768, -334.8467)" d="m 415.538 306.215 l 7.419 15.033 c 0.45 0.912 1.32 1.544 2.327 1.691 l 16.59 2.411 c 2.535 0.368 3.547 3.484 1.713 5.272 l -12.004 11.701 c -0.728 0.71 -1.061 1.733 -0.889 2.736 l 2.834 16.523 c 0.433 2.525 -2.217 4.45 -4.484 3.258 l -14.838 -7.801 c -0.9 -0.473 -1.976 -0.473 -2.876 0 l -14.838 7.801 c -2.267 1.192 -4.917 -0.733 -4.484 -3.258 l 2.834 -16.523 c 0.172 -1.003 -0.16 -2.026 -0.889 -2.736 l -12.004 -11.701 c -1.834 -1.788 -0.822 -4.903 1.713 -5.272 l 16.59 -2.411 c 1.007 -0.146 1.877 -0.779 2.327 -1.691 l 7.419 -15.033 c 1.131 -2.298 4.407 -2.298 5.54 0 z" stroke-linecap="round"/>
</g>
</g>
</g>
</svg>