<?xml version="1.0" encoding="UTF-8"?>
<svg xmlns="http://www.w3.org/2000/svg" xmlns:xlink="http://www.w3.org/1999/xlink" xmlns:svgjs="http://svgjs.com/svgjs" version="1.1" width="512" height="512" x="0" y="0" viewBox="0 0 455.351 455.351" style="enable-background:new 0 0 512 512" xml:space="preserve" class="">
  <g>
<path style="" d="M365.799,280.351c-5.689,5.689-8.533,14.222-7.111,22.756l19.911,113.778  c2.844,19.911-18.489,35.556-36.978,27.022l-102.4-54.044c-7.111-4.267-15.644-4.267-22.756,0l-102.4,52.622  c-18.489,9.956-39.822-5.689-36.978-27.022l19.911-113.778c1.422-8.533-1.422-17.067-7.111-22.756L7.399,199.284  c-14.222-14.222-7.111-39.822,14.222-42.667l113.778-17.067c8.533-1.422,15.644-5.689,18.489-14.222l51.2-102.4  c8.533-18.489,35.556-18.489,45.511,0l51.2,102.4c4.267,7.111,11.378,12.8,18.489,14.222l113.778,17.067  c19.911,2.844,28.444,28.444,14.222,42.667L365.799,280.351z" fill="#ffe641" data-original="#6dafe0" class=""/>
<path style="" d="M365.799,280.351c-5.689,5.689-8.533,14.222-7.111,22.756l19.911,113.778  c2.844,19.911-18.489,35.556-36.978,27.022l-102.4-54.044c-7.111-4.267-15.644-4.267-22.756,0l-102.4,52.622  c-18.489,9.956-39.822-5.689-36.978-27.022l14.222-81.067c4.267,0,8.533,0,12.8,0c110.933,0,201.956-86.756,209.067-196.267  c1.422,1.422,4.267,1.422,5.689,1.422l113.778,17.067c19.911,2.844,28.444,28.444,14.222,42.667L365.799,280.351z" fill="#ffde00" data-original="#5ca4da" class=""/>
<g>
</g>
<g>
</g>
<g>
</g>
<g>
</g>
<g>
</g>
<g>
</g>
<g>
</g>
<g>
</g>
<g>
</g>
<g>
</g>
<g>
</g>
<g>
</g>
<g>
</g>
<g>
</g>
<g>
</g>
</g>
</svg>
