<?xml version="1.0" encoding="UTF-8"?>
<svg xmlns="http://www.w3.org/2000/svg" xmlns:xlink="http://www.w3.org/1999/xlink" xmlns:svgjs="http://svgjs.com/svgjs" version="1.1" width="512" height="512" x="0" y="0" viewBox="0 0 32 32" style="enable-background:new 0 0 512 512" xml:space="preserve" class="">
  <g>
    <g id="emoji_x2C__mobile_x2C__phone_x2C__sadness">
      <g id="XMLID_1728_">
        <g id="XMLID_1872_">
          <path d="m20.5 12.979c.27 0 .5.229.5.5s-.23.5-.5.5-.5-.229-.5-.5.23-.5.5-.5z" fill="#ffb808" data-original="#263238"/>
        </g>
        <g id="XMLID_1871_">
          <path d="m11.5 12.979c.27 0 .5.229.5.5s-.23.5-.5.5-.5-.229-.5-.5.23-.5.5-.5z" fill="#ffb808" data-original="#263238"/>
        </g>
      </g>
      <g id="XMLID_17_">
        <g id="XMLID_1892_">
          <g id="XMLID_1897_">
            <path d="m17.5 4h-3c-.276 0-.5-.224-.5-.5s.224-.5.5-.5h3c.276 0 .5.224.5.5s-.224.5-.5.5z" fill="#ffb808" data-original="#455a64" class=""/>
          </g>
          <g id="XMLID_1896_">
            <path d="m21.5 31h-11c-1.93 0-3.5-1.57-3.5-3.5v-23c0-1.93 1.57-3.5 3.5-3.5h11c1.93 0 3.5 1.57 3.5 3.5v23c0 1.93-1.57 3.5-3.5 3.5zm-11-29c-1.379 0-2.5 1.121-2.5 2.5v23c0 1.379 1.121 2.5 2.5 2.5h11c1.379 0 2.5-1.121 2.5-2.5v-23c0-1.379-1.121-2.5-2.5-2.5z" fill="#ffb808" data-original="#455a64" class=""/>
          </g>
          <g id="XMLID_1895_">
            <path d="m17 16c-.276 0-.5-.224-.5-.5 0-.275-.225-.5-.5-.5s-.5.225-.5.5c0 .276-.224.5-.5.5s-.5-.224-.5-.5c0-.827.673-1.5 1.5-1.5s1.5.673 1.5 1.5c0 .276-.224.5-.5.5z" fill="#ffb808" data-original="#455a64" class=""/>
          </g>
          <g id="XMLID_1894_">
            <path d="m20.5 14.479c-.542 0-1-.458-1-1s.458-1 1-1 1 .458 1 1-.458 1-1 1z" fill="#ffb808" data-original="#455a64" class=""/>
          </g>
          <g id="XMLID_1893_">
            <path d="m11.5 14.479c-.542 0-1-.458-1-1s.458-1 1-1 1 .458 1 1-.458 1-1 1z" fill="#ffb808" data-original="#455a64" class=""/>
          </g>
        </g>
        <g id="XMLID_1524_">
          <g id="XMLID_1875_">
            <path d="m17.5 4h-3c-.276 0-.5-.224-.5-.5s.224-.5.5-.5h3c.276 0 .5.224.5.5s-.224.5-.5.5z" fill="#ffb808" data-original="#263238"/>
          </g>
          <g id="XMLID_1874_">
            <path d="m21.5 31h-11c-1.93 0-3.5-1.57-3.5-3.5v-23c0-1.93 1.57-3.5 3.5-3.5h11c1.93 0 3.5 1.57 3.5 3.5v23c0 1.93-1.57 3.5-3.5 3.5zm-11-29c-1.379 0-2.5 1.121-2.5 2.5v23c0 1.379 1.121 2.5 2.5 2.5h11c1.379 0 2.5-1.121 2.5-2.5v-23c0-1.379-1.121-2.5-2.5-2.5z" fill="#ffb808" data-original="#263238"/>
          </g>
          <g id="XMLID_1873_">
            <path d="m17 16c-.276 0-.5-.224-.5-.5 0-.275-.225-.5-.5-.5s-.5.225-.5.5c0 .276-.224.5-.5.5s-.5-.224-.5-.5c0-.827.673-1.5 1.5-1.5s1.5.673 1.5 1.5c0 .276-.224.5-.5.5z" fill="#ffb808" data-original="#263238"/>
          </g>
          <g id="XMLID_1612_">
            <path d="m20.5 14.479c-.542 0-1-.458-1-1s.458-1 1-1 1 .458 1 1-.458 1-1 1z" fill="#ffb808" data-original="#263238"/>
          </g>
          <g id="XMLID_1529_">
            <path d="m11.5 14.479c-.542 0-1-.458-1-1s.458-1 1-1 1 .458 1 1-.458 1-1 1z" fill="#ffb808" data-original="#263238"/>
          </g>
        </g>
      </g>
    </g>
  </g>
</svg>
