<?xml version="1.0" encoding="UTF-8"?>
<svg xmlns="http://www.w3.org/2000/svg" xmlns:xlink="http://www.w3.org/1999/xlink" xmlns:svgjs="http://svgjs.com/svgjs" version="1.1" width="512" height="512" x="0" y="0" viewBox="0 0 74 74" style="enable-background:new 0 0 512 512" xml:space="preserve" class="">
  <g>
    <path d="m63.876 69.346h-56.99a4.891 4.891 0 0 1 -4.886-4.886v-45.333a1 1 0 0 1 1-1h60.876a4.892 4.892 0 0 1 4.886 4.886v13.38a1 1 0 0 1 -2 0v-13.38a2.889 2.889 0 0 0 -2.886-2.886h-59.876v44.333a2.89 2.89 0 0 0 2.886 2.886h56.99a2.89 2.89 0 0 0 2.886-2.886v-13.379a1 1 0 0 1 2 0v13.379a4.892 4.892 0 0 1 -4.886 4.886z" fill="#ffb420" data-original="#000000" class=""/>
    <path d="m69.327 52.076h-11.711a8.34 8.34 0 1 1 0-16.68h11.711a2.677 2.677 0 0 1 2.673 2.674v11.33a2.676 2.676 0 0 1 -2.673 2.676zm-11.711-14.676a6.34 6.34 0 1 0 0 12.68h11.711a.674.674 0 0 0 .673-.68v-11.33a.675.675 0 0 0 -.673-.674z" fill="#ffb420" data-original="#000000" class=""/>
    <path d="m3 20.127a1 1 0 0 1 -.324-1.946l38.324-13.129a7.272 7.272 0 0 1 9.63 6.88v7.195a1 1 0 1 1 -2 0v-7.195a5.273 5.273 0 0 0 -6.982-4.988l-38.324 13.129a.992.992 0 0 1 -.324.054z" fill="#ffb420" data-original="#000000" class=""/>
    <path d="m58.008 47.327a3.591 3.591 0 1 1 3.592-3.591 3.594 3.594 0 0 1 -3.592 3.591zm0-5.181a1.591 1.591 0 1 0 1.591 1.59 1.591 1.591 0 0 0 -1.591-1.59z" fill="#ffb420" data-original="#000000" class=""/>
  </g>
</svg>
