<?xml version="1.0" encoding="UTF-8"?>
<svg xmlns="http://www.w3.org/2000/svg" xmlns:xlink="http://www.w3.org/1999/xlink" xmlns:svgjs="http://svgjs.com/svgjs" version="1.1" width="512" height="512" x="0" y="0" viewBox="0 0 512 512" style="enable-background:new 0 0 512 512" xml:space="preserve" class="">
  <g>
    <path d="m60.668 78.597 211.908-77.129c12.612-4.59 26.554 1.942 31.097 14.571l50.798 141.2h-290.859l-17.413-47.529c-4.612-12.587 1.871-26.528 14.469-31.113z" fill="#ff5857" data-original="#ff5857"/>
    <path d="m303.673 16.04c-4.543-12.629-18.485-19.162-31.097-14.572l-105.954 38.565 42.66 117.208h145.19z" fill="#fe1b5c" data-original="#fe1b5c" class=""/>
    <path d="m406 69.982h-172.085c-11.046 0-20 8.954-20 20v67.258h212.085v-67.258c0-11.046-8.954-20-20-20z" fill="#57c67f" data-original="#57c67f" class=""/>
    <path d="m426 89.982c0-11.046-8.954-20-20-20h-86.043v87.258h106.043z" fill="#43a071" data-original="#43a071"/>
    <path d="m442 130c22.091 0 40 17.909 40 40v302c0 22.091-17.909 40-40 40h-402c-22.091 0-40-17.909-40-40v-302c0-22.091 17.909-40 40-40z" fill="#38579f" data-original="#3555a2" class=""/>
    <path d="m442 130h-201v382h201c22.091 0 40-17.909 40-40v-302c0-22.091-17.909-40-40-40z" fill="#1b3555" data-original="#1b3555" class=""/>
    <path d="m412 381h80c11.046 0 20-8.954 20-20v-80c0-11.046-8.954-20-20-20h-80c-33.137 0-60 26.863-60 60 0 33.137 26.863 60 60 60z" fill="#38579f" data-original="#3555a2" class=""/>
    <circle cx="412" cy="321" fill="#d6e8fe" r="15" data-original="#d6e8fe" class=""/>
  </g>
</svg>
